<?xml version="1.0" encoding="utf-8" ?>
<svg baseProfile="full" height="96" version="1.1" width="768.0" xmlns="http://www.w3.org/2000/svg" xmlns:ev="http://www.w3.org/2001/xml-events" xmlns:xlink="http://www.w3.org/1999/xlink"><defs /><rect fill="#fff" height="96" width="768.0" x="0" y="0" /><g opacity="1.0"><path d="m 532,497.5 a 2.5,2.5 0 0 0 -2.5,2.5 2.5,2.5 0 0 0 0.7344,1.76758 l 4.2656,4.26758 4.2422,-4.24219 a 2.5,2.5 0 0 0 0.023,-0.0254 l 0,0 A 2.5,2.5 0 0 0 539.5,500 2.5,2.5 0 0 0 537,497.5 2.5,2.5 0 0 0 534.5,500 2.5,2.5 0 0 0 532,497.5 Z m 8,7 -2.5,4 2.5,-0.5 0,2.5 2.5,-4 -2.5,0.5 z" fill="#d22" transform="translate(48.0,48.0) scale(4.0,4.0) translate(-536.0,-504.0)" /></g><g opacity="1.0"><path d="m 119,562 c -0.0693,0 -0.12764,0.006 -0.1875,0.0312 C 117.24696,562.13217 116,563.40897 116,565 l -1,7 2,0 0,-7 c 0,-1.10457 0.89543,-2 2,-2 l 1.5,0 c 0.277,0 0.5,-0.223 0.5,-0.5 0,-0.277 -0.223,-0.5 -0.5,-0.5 z m 1,2 c -1.108,0 -2,0.892 -2,2 l 0,0.5 0,1.5 0,5.5 c 0,0.277 0.223,0.5 0.5,0.5 l 3,0 c 0.277,0 0.5,-0.223 0.5,-0.5 l 0,-5.5 0,-1.5 0,-0.5 c 0,-1.108 -0.892,-2 -2,-2 z" fill="#d22" transform="translate(144.0,48.0) scale(4.0,4.0) translate(-120.0,-568.0)" /></g><g opacity="1.0"><path d="m 136,369 c -1.662,0 -3,1.338 -3,3 l -0.5,0 c -0.277,0 -0.5,0.223 -0.5,0.5 0,0.277 0.223,0.5 0.5,0.5 l 0.5,0 0,1 -1.5,0 c -0.277,0 -0.5,0.223 -0.5,0.5 l 0,0.5 -0.5,0 c -0.277,0 -0.5,0.223 -0.5,0.5 l 0,1 c 0,0.277 0.223,0.5 0.5,0.5 l 0.5,0 0,0.5 c 0,0.277 0.223,0.5 0.5,0.5 l 1.5,0 0,4 -1.5,0 c -0.277,0 -0.5,0.223 -0.5,0.5 0,0.277 0.223,0.5 0.5,0.5 l 9,0 c 0.277,0 0.5,-0.223 0.5,-0.5 0,-0.277 -0.223,-0.5 -0.5,-0.5 l -1.5,0 0,-4 1.5,0 c 0.277,0 0.5,-0.223 0.5,-0.5 l 0,-0.5 0.5,0 c 0.277,0 0.5,-0.223 0.5,-0.5 l 0,-1 c 0,-0.277 -0.223,-0.5 -0.5,-0.5 l -0.5,0 0,-0.5 c 0,-0.277 -0.223,-0.5 -0.5,-0.5 l -1.5,0 0,-1 0.5,0 c 0.277,0 0.5,-0.223 0.5,-0.5 0,-0.277 -0.223,-0.5 -0.5,-0.5 l -0.5,0 c 0,-1.662 -1.338,-3 -3,-3 z m 0,5 c 1.10457,0 2,0.89543 2,2 0,1.10457 -0.89543,2 -2,2 -1.10457,0 -2,-0.89543 -2,-2 0,-1.10457 0.89543,-2 2,-2 z" fill="#d22" transform="translate(240.0,48.0) scale(4.0,4.0) translate(-136.0,-376.0)" /></g><g opacity="1.0"><path d="m 520,338 a 6,6 0 0 0 -6,6 6,6 0 0 0 6,6 6,6 0 0 0 6,-6 6,6 0 0 0 -6,-6 z m 0,1 a 5,5 0 0 1 5,5 h -2 a 3,3 0 0 0 -3,-3 z m 0,3 a 2,2 0 0 1 2,2 2,2 0 0 1 -2,2 2,2 0 0 1 -2,-2 2,2 0 0 1 2,-2 z m -5,2 h 2 a 3,3 0 0 0 3,3 v 2 a 5,5 0 0 1 -5,-5 z" fill="#d22" transform="translate(336.0,48.0) scale(4.0,4.0) translate(-520.0,-344.0)" /></g><g opacity="1.0"><path d="m 71.5,562 c -2.75,0 -5.5,1 -5.5,3 l 3,0 c 0,-2 5,-2 5,0 l 3,0 c 0,-2 -2.75,-3 -5.5,-3 z m -5.5,4 c 0,0.554 0.446,1 1,1 l 1,0 c 0.554,0 1,-0.446 1,-1 z m 8,0 c 0,0.554 0.446,1 1,1 l 1,0 c 0.554,0 1,-0.446 1,-1 z m -6.5,3 c -0.82251,0 -1.5,0.67749 -1.5,1.5 0,0.82251 0.67749,1.5 1.5,1.5 0.28206,0 0.5,0.21795 0.5,0.5 0,0.28205 -0.21794,0.5 -0.5,0.5 l -1,0 a 0.50005,0.50005 0 1 0 0,1 l 1,0 c 0.82251,0 1.5,-0.67749 1.5,-1.5 0,-0.82251 -0.67749,-1.5 -1.5,-1.5 -0.28205,0 -0.5,-0.21795 -0.5,-0.5 0,-0.28205 0.21795,-0.5 0.5,-0.5 l 1,0 a 0.50005,0.50005 0 1 0 0,-1 z m 4,0 c -0.82251,0 -1.5,0.67749 -1.5,1.5 l 0,2 c 0,0.82251 0.67749,1.5 1.5,1.5 0.68503,0 1.17533,-0.51422 1.35156,-1.14648 A 0.50005,0.50005 0 0 0 73,572.5 l 0,-2 c 0,-0.82251 -0.67749,-1.5 -1.5,-1.5 z m 4,0 c -0.82251,0 -1.5,0.67749 -1.5,1.5 0,0.82251 0.67749,1.5 1.5,1.5 0.28206,0 0.5,0.21795 0.5,0.5 0,0.28205 -0.21794,0.5 -0.5,0.5 l -1,0 a 0.50005,0.50005 0 1 0 0,1 l 1,0 c 0.82251,0 1.5,-0.67749 1.5,-1.5 0,-0.82251 -0.67749,-1.5 -1.5,-1.5 -0.28205,0 -0.5,-0.21795 -0.5,-0.5 0,-0.28205 0.21795,-0.5 0.5,-0.5 l 1,0 a 0.50005,0.50005 0 1 0 0,-1 z m -4,1 c 0.28206,0 0.5,0.21795 0.5,0.5 l 0,2 c 0,0.28205 -0.21794,0.5 -0.5,0.5 -0.28205,0 -0.5,-0.21795 -0.5,-0.5 l 0,-2 c 0,-0.28205 0.21795,-0.5 0.5,-0.5 z" fill="#d22" transform="translate(432.0,48.0) scale(4.0,4.0) translate(-72.0,-568.0)" /></g></svg>