<?xml version="1.0" encoding="utf-8" ?>
<svg baseProfile="full" height="192" version="1.1" width="768.0" xmlns="http://www.w3.org/2000/svg" xmlns:ev="http://www.w3.org/2001/xml-events" xmlns:xlink="http://www.w3.org/1999/xlink"><defs /><rect fill="#fff" height="192" width="768.0" x="0" y="0" /><g opacity="1.0"><path d="m 36,157 -2,0 0,-6 3,0 0,-4 6,0 0,4 3,0 0,6 -2,0 0,-4 -3,0 0,-4 -2,0 0,4 -3,0 z" fill="#444" transform="translate(48.0,48.0) scale(4.0,4.0) translate(-40.0,-152.0)" /></g><g opacity="1.0"><path d="M 120 145.69727 L 113.13086 156 L 119 156 L 119 158 L 119 159 L 121 159 L 121 158 L 121 156 L 126.86914 156 L 120 145.69727 z M 120 149.30273 L 123.13086 154 L 121 154 L 119 154 L 116.86914 154 L 120 149.30273 z " fill="#444" transform="translate(144.0,48.0) scale(4.0,4.0) translate(-120.0,-152.0)" /></g><g opacity="1.0"><path d="m 23,146 0,2 -5,0 0,2 1.31836,0 c 0.65136,1.45812 1.78192,2.79481 3.08203,4.00195 -0.99185,0.79392 -2.01566,1.53974 -2.95508,2.16602 l 1.10938,1.66406 c 1.06983,-0.71322 2.27655,-1.54204 3.44531,-2.46484 1.16876,0.9228 2.37548,1.75162 3.44531,2.46484 l 1.10938,-1.66406 c -0.93942,-0.62628 -1.96323,-1.3721 -2.95508,-2.16602 1.30011,-1.20714 2.43067,-2.54383 3.08203,-4.00195 L 30,150 l 0,-2 -5,0 0,-2 z m -1.35156,4 4.70312,0 C 25.77198,150.86634 24.95617,151.76645 24,152.64453 23.04383,151.76645 22.22802,150.86634 21.64844,150 Z" fill="#444" transform="translate(240.0,48.0) scale(4.0,4.0) translate(-24.0,-152.0)" /></g><g opacity="1.0"><path d="M 82 147 C 82 149.14199 83.144982 151.12432 85 152.19531 C 85.627593 152.55766 86.306524 152.78713 87 152.9043 L 87 153 L 87 157 L 87 158 L 89 158 L 89 157 L 89 153 L 89 152.9043 C 89.693476 152.78713 90.372407 152.55766 91 152.19531 C 92.855018 151.12432 94 149.14199 94 147 L 92 147 C 92 148.43067 91.238993 149.74951 90 150.46484 C 88.761007 151.18018 87.238993 151.18018 86 150.46484 C 84.761007 149.74951 84 148.43067 84 147 L 82 147 z " fill="#444" transform="translate(336.0,48.0) scale(4.0,4.0) translate(-88.0,-152.0)" /></g><g opacity="1.0"><path d="M 130 147 C 130 149.14199 131.14498 151.12432 133 152.19531 C 133.20035 152.31098 133.40779 152.40931 133.61719 152.5 C 133.40806 152.5906 133.2001 152.68721 133 152.80273 C 131.14498 153.87373 130 155.85801 130 158 L 132 158 C 132 156.56933 132.76101 155.25049 134 154.53516 C 134.31805 154.35153 134.65423 154.21631 135 154.12695 L 135 157 L 135 158 L 137 158 L 137 157 L 137 154.12695 C 137.34577 154.21631 137.68195 154.35153 138 154.53516 C 139.23899 155.25049 140 156.56933 140 158 L 142 158 C 142 155.85801 140.85502 153.87373 139 152.80273 C 138.7999 152.68721 138.59194 152.5906 138.38281 152.5 C 138.59221 152.40931 138.79965 152.31098 139 152.19531 C 140.85502 151.12432 142 149.14199 142 147 L 140 147 C 140 148.43067 139.23899 149.74951 138 150.46484 C 137.68195 150.64847 137.34577 150.78369 137 150.87305 L 137 148 L 137 147 L 135 147 L 135 148 L 135 150.87305 C 134.65423 150.78369 134.31805 150.64847 134 150.46484 C 132.76101 149.74951 132 148.43067 132 147 L 130 147 z " fill="#444" transform="translate(432.0,48.0) scale(4.0,4.0) translate(-136.0,-152.0)" /></g><g opacity="1.0"><path d="m 71.5,147 a 1.5,1.5 0 0 0 -1.5,1.5 1.5,1.5 0 0 0 1.5,1.5 1.5,1.5 0 0 0 1.5,-1.5 1.5,1.5 0 0 0 -1.5,-1.5 z m -4,7 a 1.5,1.5 0 0 0 -1.5,1.5 1.5,1.5 0 0 0 1.5,1.5 1.5,1.5 0 0 0 1.5,-1.5 1.5,1.5 0 0 0 -1.5,-1.5 z m 8,0 a 1.5,1.5 0 0 0 -1.5,1.5 1.5,1.5 0 0 0 1.5,1.5 1.5,1.5 0 0 0 1.5,-1.5 1.5,1.5 0 0 0 -1.5,-1.5 z" fill="#444" transform="translate(528.0,48.0) scale(4.0,4.0) translate(-72.0,-152.0)" /></g><g opacity="1.0"><path d="M 101.17578 146.59766 L 99.597656 147.82422 L 100.21094 148.61328 L 103.23438 152.5 L 100.21094 156.38672 L 99.597656 157.17578 L 101.17578 158.40234 L 101.78906 157.61328 L 104.5 154.12695 L 107.21094 157.61328 L 107.82422 158.40234 L 109.40234 157.17578 L 108.78906 156.38672 L 105.76562 152.5 L 108.78906 148.61328 L 109.40234 147.82422 L 107.82422 146.59766 L 107.21094 147.38672 L 104.5 150.87305 L 101.78906 147.38672 L 101.17578 146.59766 z " fill="#444" transform="translate(624.0,48.0) scale(4.0,4.0) translate(-104.0,-152.0)" /></g><g opacity="1.0"><path d="m 3,147 0,2 10,0 0,-2 z m 0,4 0,2 4,0 0,4 2,0 0,-4 4,0 0,-2 z" fill="#444" transform="translate(720.0,48.0) scale(4.0,4.0) translate(-8.0,-152.0)" /></g><g opacity="1.0"><path d="M 146 147 L 146 149 L 147 149 L 147 157 L 147 158 L 149 158 L 149 157 L 149 152 L 155 152 L 155 157 L 155 158 L 157 158 L 157 157 L 157 149 L 158 149 L 158 147 L 157 147 L 147 147 L 146 147 z M 149 149 L 155 149 L 155 150 L 149 150 L 149 149 z " fill="#444" transform="translate(48.0,144.0) scale(4.0,4.0) translate(-152.0,-152.0)" /></g><g opacity="1.0"><path d="m 51.5,146.08594 -1.41406,1.41406 0.70703,0.70703 1.20703,1.20703 0,5.17188 -1.20703,1.20703 L 50.08594,156.5 51.5,157.91406 52.20703,157.20703 53.41406,156 l 5.17188,0 1.20703,1.20703 L 60.5,157.91406 61.91406,156.5 61.20703,155.79297 60,154.58594 60,149.41406 61.20703,148.20703 61.91406,147.5 60.5,146.08594 59.79297,146.79297 58.58594,148 l -5.17188,0 -1.20703,-1.20703 z M 54,150 l 4,0 0,4 -4,0 z" fill="#444" transform="translate(144.0,144.0) scale(4.0,4.0) translate(-56.0,-152.0)" /></g><g opacity="1.0"><path d="m 210,147 0,1 0,2 0,1 2,0 0,-1 3,0 0,7 0,1 2,0 0,-1 0,-7 3,0 0,1 2,0 0,-1 0,-2 0,-1 -2,0 0,1 -8,0 0,-1 z" fill="#444" transform="translate(240.0,144.0) scale(4.0,4.0) translate(-216.0,-152.0)" /></g><g opacity="1.0"><path d="M 163 146 L 163 147 L 162 147 L 162 149 L 163 149 L 163 154 L 162 154 L 162 156 L 163 156 L 163 157 L 165 157 L 165 156 L 170 156 L 170 157 L 172 157 L 172 156 L 173 156 L 173 154 L 172 154 L 172 149 L 173 149 L 173 147 L 172 147 L 172 146 L 170 146 L 170 147 L 165 147 L 165 146 L 163 146 z M 165 149 L 170 149 L 170 154 L 165 154 L 165 149 z " fill="#444" transform="translate(336.0,144.0) scale(4.0,4.0) translate(-168.0,-152.0)" /></g></svg>