<?xml version="1.0" encoding="utf-8" ?>
<svg baseProfile="full" height="400.0" version="1.1" width="599.0" xmlns="http://www.w3.org/2000/svg" xmlns:ev="http://www.w3.org/2001/xml-events" xmlns:xlink="http://www.w3.org/1999/xlink"><defs /><rect fill="#eee" height="400.0" width="599.0" x="0.0" y="0.0" /><path d="M 23.382951520383358,-270.72059734910727 L -8.041567541658878,-219.67602724209428 L -8.779727391898632,-220.1520905625075 L -8.937904499471188,-219.88761094259098 L 96.09169612824917,-155.0372136803344 L 101.73334636539221,-164.24110298836604 L 100.4679294899106,-165.034541729372 L 100.62610659748316,-165.29902130318806 L 101.41699214279652,-166.56852330360562 L 102.41878049820662,-168.26119263423607 L 102.62968331575394,-168.5785681400448 L 103.68419737368822,-167.89092122437432 L 110.90761870890856,-179.47512715682387 L 120.34551956504583,-173.60368026979268 L 124.14177019149065,-179.73960675252602 L 127.2525866702199,-177.7824577735737 L 142.17396065592766,-201.8501012804918 L 54.54384206235409,-256.28000842081383 L 53.489328004419804,-254.58733869157732 L 51.907556906342506,-255.53946542041376 L 50.95849425345659,-253.95258754538372 L 44.736861281096935,-257.8139903745614 L 45.7913753464818,-259.55955603998154 L 30.711824253201485,-268.9221356897615 L 29.499133087694645,-266.96498626144603 L 23.382951520383358,-270.72059734910727 Z " fill="#E8E4E0" stroke="#A0A890" stroke-width="1.0" /><path d="M -20.748461991548538,-202.90801971498877 L -24.544712625443935,-196.7720928499475 L -27.550077699124813,-191.8527722544968 L -23.332021452486515,-189.26087217964232 L -27.602803401649,-182.27861084695905 L -26.653740741312504,-181.69675574125722 L -31.504505433142185,-173.7623680201359 L -24.91379254311323,-169.68938239244744 L -25.757403790950775,-168.26119263423607 L -21.697524651885033,-165.77508455887437 L -20.85391339659691,-167.20327431103215 L -13.683217778801918,-162.81291325064376 L -10.730578400194645,-167.62644163612276 L -8.35792175680399,-166.19825188536197 L -10.308772780001163,-162.97160099586472 L -3.770785592496395,-158.8986154855229 L -3.348979964852333,-159.53336646873504 L -2.5053687170147896,-159.00440731085837 L -2.1362887918949127,-159.63915829826146 L -1.4508546590805054,-159.1630950635299 L -1.0817747339606285,-159.74495013896376 L 3.2944586277008057,-157.0472584492527 L 2.9781044125556946,-156.5711952112615 L 4.612601205706596,-155.56617282750085 L 4.2435212880373,-154.9843177641742 L 6.141646601259708,-153.82060764124617 L 5.7725666761398315,-153.18585666129366 L 20.16668362915516,-144.24644718552008 L 20.535763554275036,-144.8283022325486 L 22.433888867497444,-143.66459213895723 L 22.80296878516674,-144.24644718552008 L 24.332014180719852,-143.3472166620195 L 24.70109409838915,-143.87617579707876 L 29.077327452600002,-141.17848422471434 L 28.76097323745489,-140.64952509803697 L 30.342744328081608,-139.64450275478885 L 30.026390112936497,-139.11554362019524 L 31.924515426158905,-137.95183354755864 L 31.502709805965424,-137.26418668357655 L 46.16045527160168,-128.21898576896638 L 46.58226089179516,-128.9066326096654 L 48.42766050249338,-127.74292257195339 L 48.79674042761326,-128.32477759057656 L 50.43123722076416,-127.31975528225303 L 50.74759144335985,-127.79581848625094 L 55.07109909504652,-125.15102293295786 L 54.70201916992664,-124.6220638290979 L 56.336515970528126,-123.61704152124003 L 55.96743604540825,-123.08808242762461 L 57.86556135863066,-121.92437239456922 L 57.49648143351078,-121.28962147515267 L 73.89417511224747,-111.08071094099432 L 74.31598073989153,-111.71546185202897 L 75.89775183051825,-110.71043958561495 L 76.21410605311394,-111.18650276074186 L 77.0577172935009,-110.65754367830232 L 77.47952292859554,-111.34519048593938 L 79.2194711342454,-110.28727231733501 L 80.80124221742153,-112.77338003180921 L 81.32849925011396,-112.45600457675755 L 82.17211050540209,-113.77840230381116 L 83.85933300107718,-112.72048412775621 L 84.80839566141367,-116.95215686224401 L 91.61001136153936,-128.5892571513541 L 98.41162706911564,-140.1734618805349 L 99.2552383095026,-141.49585969978943 L 98.67525558173656,-141.86613109894097 L 100.15157526731491,-144.29934310168028 L 98.41162706911564,-145.35726137273014 L 98.8861583918333,-146.09780416451395 L 97.98982144147158,-146.6267633070238 L 98.2534499540925,-147.049930610694 L 96.61895315349102,-148.0549529674463 L 97.04075878858566,-148.68970393715426 L 80.64306510984898,-158.8986154855229 L 80.16853377968073,-158.1580726671964 L 78.37585987895727,-159.26888689445332 L 78.0067799538374,-158.68703182181343 L 76.3722831606865,-159.74495013896376 L 76.10865464061499,-159.32178280921653 L 71.8378726914525,-161.96657859627157 L 72.1542269140482,-162.49553774530068 L 70.46700441092253,-163.55345607269555 L 70.73063292354345,-163.92372748581693 L 68.88523332029581,-165.08743764692917 L 69.30703894048929,-165.77508455887437 L 54.70201916992664,-174.92607820453122 L 54.17476214468479,-174.1326394448988 L 52.32936254143715,-175.29634963395074 L 51.96028261631727,-174.71449454128742 L 50.43123722076416,-175.66662105778232 L 50.11488300561905,-175.190557803493 L 45.68592394143343,-177.99404145218432 L 46.00227815657854,-178.47010471159592 L 44.36778135597706,-179.47512715682387 L 44.68413557857275,-179.95119042368606 L 42.78601027280092,-181.11490062996745 L 43.26054160296917,-181.85544349206612 L 28.76097323745489,-190.90064569795504 L 28.286441907286644,-190.10720689920709 L 26.493768006563187,-191.27091713482514 L 26.177413783967495,-190.79485386051238 L 24.59564269334078,-191.74698042077944 L 24.2265627682209,-191.21802121400833 L 19.850329406559467,-193.91571314586326 L 20.113957926630974,-194.3388805044815 L 19.27034667879343,-194.86783971264958 L 19.58670089393854,-195.29100707080215 L 18.690363943576813,-195.81996628688648 L 19.112169563770294,-196.50761324819177 L 12.943262293934822,-200.31611956097186 L 10.99241128563881,-197.1952602188103 L 8.408851832151413,-198.78213785029948 L 11.466942615807056,-203.80725038424134 L 4.507149800658226,-208.09182006726041 L 5.403486758470535,-209.52000997914 L 1.2381562069058418,-212.1119101913646 L 0.2890935465693474,-210.57792842993513 L -6.301619343459606,-214.65091449953616 L -11.205109730362892,-206.76942201843485 L -12.10144668072462,-207.29838123731315 L -16.477680042386055,-200.2103277198039 L -20.748461991548538,-202.90801971498877 Z " fill="#E8E4E0" stroke="#A0A890" stroke-width="1.0" /><path d="M 69.88702167570591,-282.6221820465289 L 62.92722886800766,-271.4082444566302 L 61.60908628255129,-269.2395112779923 L 60.29094371199608,-267.0707781165838 L 56.81104730069637,-261.4109135782346 L 73.57782089710236,-251.0433114762418 L 86.65379526466131,-272.20168342255056 L 81.75030487775803,-275.26964745670557 L 78.5867626965046,-277.2796928663738 L 75.37049479782581,-279.23684235755354 L 69.88702167570591,-282.6221820465289 Z " fill="#E8E4E0" stroke="#A0A890" stroke-width="1.0" /><path d="M 339.6844445616007,-176.30137207265943 L 354.65854424983263,-200.8450787756592 L 365.57276479154825,-194.18019275180995 L 350.5986651107669,-169.6364864706993 L 339.6844445616007,-176.30137207265943 Z " fill="#E8E4E0" stroke="#A0A890" stroke-width="1.0" /><path d="M 313.16341588646173,-198.46476232027635 L 323.128573782742,-214.43933080509305 L 327.92661276459694,-211.42426319560036 L 317.96145487576723,-195.44969483744353 L 313.16341588646173,-198.46476232027635 Z " fill="#E8E4E0" stroke="#A0A890" stroke-width="1.0" /><path d="M 349.70232816040516,-161.54341126047075 L 296.66027081012726,-193.49254578677937 L 319.0686946436763,-230.73127551330253 L 372.1107519865036,-198.78213785029948 L 349.70232816040516,-161.54341126047075 Z " fill="#E8E4E0" stroke="#A0A890" stroke-width="1.0" /><path d="M 77.0049915984273,-248.5572028476745 L 90.39732018858194,-270.24453397095203 L 95.24808488041162,-267.2823618389666 L 105.89867690950632,-260.7761624264531 L 116.54926893860102,-254.21706718858331 L 121.66366214305162,-251.0433114762418 L 108.21860784292221,-229.30308553297073 L 77.0049915984273,-248.5572028476745 Z " fill="#E8E4E0" stroke="#A0A890" stroke-width="1.0" /><path d="M 112.06758417189121,-227.45172815024853 L 125.09083284437656,-248.50430691521615 L 129.7306947261095,-245.59503089170903 L 140.90854378044605,-238.82435221364722 L 152.03366714715958,-232.0007777349092 L 156.93715753406286,-228.9857099838555 L 143.86118315905333,-207.77444453025237 L 112.06758417189121,-227.45172815024853 Z " fill="#E8E4E0" stroke="#A0A890" stroke-width="1.0" /><path d="M 182.35094644129276,-183.86548841372132 L 195.58509792387486,-205.34123211260885 L 200.5940397158265,-202.2732686586678 L 210.61192331463099,-196.03154996363446 L 220.68253260850906,-189.73693546000868 L 225.58602300286293,-186.72186804702505 L 212.40459722280502,-165.35191722633317 L 182.35094644129276,-183.86548841372132 Z " fill="#E8E4E0" stroke="#A0A890" stroke-width="1.0" /><path d="M 476.56036987900734,-143.08273709984496 L 442.07776003330946,-164.34689481323585 L 449.6702612861991,-176.7245394187048 L 451.0938552618027,-178.99906389415264 L 452.67562635987997,-181.5909638958983 L 453.99376893788576,-183.97128024464473 L 474.34589034318924,-171.43494765926152 L 488.6872815936804,-162.601329583209 L 488.0018474534154,-161.59630718361586 L 488.74000729620457,-161.12024393677711 L 489.16181292384863,-161.80789084546268 L 494.487108938396,-158.52834407892078 L 490.95448683202267,-152.76268933853135 L 485.57646510750055,-156.09513197140768 L 486.0509964376688,-156.83567478414625 L 485.418287999928,-157.205946194008 L 484.1528711244464,-155.19590142322704 L 484.6801281571388,-154.87852593092248 L 485.2073851823807,-155.72486057365313 L 490.7963097244501,-152.23373019788414 L 487.1055104956031,-146.3093878235668 L 481.6220373734832,-149.69472631439567 L 482.1492944061756,-150.48816501675174 L 481.4638602659106,-150.8584364168346 L 480.14571768790483,-148.7425998589024 L 480.8311518281698,-148.31943254172802 L 481.3056831508875,-149.11287125525996 L 486.6309791728854,-145.83332458976656 L 482.5711000338197,-139.27423136588186 L 477.3512554168701,-142.50088205002248 L 477.82578674703836,-143.24142483761534 L 476.9821754992008,-143.770383968018 L 476.56036987900734,-143.08273709984496 Z " fill="#E8E4E0" stroke="#A0A890" stroke-width="1.0" /><path d="M 383.3940524533391,-145.56884501874447 L 392.6737762019038,-160.5912847816944 L 401.90077424794436,-175.66662105778232 L 405.74975057691336,-173.2863047607243 L 409.01874417066574,-178.6287924675271 L 435.69794995337725,-162.28395408857614 L 434.5907101854682,-160.48549295589328 L 437.96515518426895,-158.36965632857755 L 439.757829092443,-161.27893169084564 L 479.3021064400673,-137.1054989453405 L 477.56215823441744,-134.19622377492487 L 482.1492944061756,-131.39274045079947 L 482.7820028439164,-132.39776276610792 L 489.74179565161467,-128.16608986118808 L 489.0036358088255,-127.00237981323153 L 492.2199037000537,-125.04523111274466 L 469.3369485512376,-87.33044866332784 L 466.0679549574852,-89.34049307741225 L 465.4352465197444,-88.28257497493178 L 462.2717043310404,-90.18682756926864 L 460.74265894293785,-91.13895388366655 L 459.21361353993416,-92.03818427072838 L 458.6863565146923,-92.83162287250161 L 459.4245163574815,-94.0482287183404 L 454.2573974505067,-97.22198310960084 L 452.46472354978323,-94.31270825164393 L 413.55315463989973,-118.27455460326746 L 415.5040056556463,-121.44830920360982 L 411.7604807317257,-123.77572926227003 L 410.4423381537199,-121.60699693625793 L 384.13221230357885,-137.84604172315449 L 387.3484801873565,-143.13563301274553 L 383.3940524533391,-145.56884501874447 Z " fill="#E8E4E0" stroke="#A0A890" stroke-width="1.0" /><path d="M 238.2929174527526,-100.87180070206523 L 245.09453316032887,-111.97994139697403 L 241.08737971633673,-114.09577775700018 L 240.71829979866743,-114.36025730706751 L 240.03286565840244,-114.83632047940046 L 239.5583343282342,-115.2594877644442 L 239.13652870804071,-115.8413427635096 L 238.71472308039665,-116.42319776350632 L 238.39836886525154,-117.05794867966324 L 238.13474034518003,-117.74559551477432 L 237.9238375350833,-118.43324233451858 L 237.81838612258434,-119.17378507414833 L 237.81838612258434,-119.91432780819014 L 237.8711118325591,-120.6548705548048 L 238.02928894013166,-121.3425173824653 L 238.24019175767899,-122.08306012535468 L 238.5565459728241,-122.71781104616821 L 238.9256258904934,-123.35256197303534 L 239.40015722066164,-123.9344169893302 L 239.8746885508299,-124.4633760927245 L 240.45467127859592,-124.88654337869957 L 241.03465402126312,-125.30971067165956 L 241.29828253388405,-125.46839839639142 L 241.7728138640523,-125.67998204007745 L 242.4055223017931,-125.89156568748876 L 243.0909564420581,-126.05025341548026 L 243.82911628484726,-126.15604523895308 L 244.46182472258806,-126.15604523895308 L 245.25271026790142,-126.10314932698384 L 245.9381444081664,-125.94446159899235 L 246.67630425095558,-125.73287795810029 L 247.09810987859964,-125.52129430882633 L 251.84342315793037,-122.92939469637349 L 257.5905248001218,-132.2390750395134 L 260.33226136118174,-130.54640586301684 L 262.7049179971218,-134.40780742559582 L 259.8577300310135,-136.15337252011523 L 273.09188152104616,-157.62911351630464 L 280.84255987405777,-152.86848117271438 L 293.44400292634964,-144.9869899796322 L 306.04544597119093,-137.15839486243203 L 314.00702714174986,-132.2390750395134 L 300.9837784692645,-111.18650276074186 L 298.1365905031562,-112.93206775514409 L 295.5530310496688,-108.75329096894711 L 298.4002190157771,-107.00772599270567 L 292.54766596853733,-97.53935855766758 L 296.76572221517563,-95.00035502854735 L 297.60933347046375,-94.41850006161258 L 298.3474933132529,-93.73085328377783 L 298.92747604846954,-92.88451877329499 L 299.454733081162,-91.98528837459162 L 299.7710872963071,-91.03316206810996 L 299.9819901138544,-90.02813985664397 L 299.9819901138544,-89.02311764890328 L 299.87653870135546,-88.01809543836862 L 299.56018447875977,-87.01307323155925 L 299.1383788585663,-86.11384284961969 L 298.55839613080025,-85.26750836148858 L 297.8202362880111,-84.52696568798274 L 297.02935073524714,-83.89221482444555 L 296.1330137774348,-83.41615169029683 L 295.1312254220247,-83.09877625480294 L 294.12943705916405,-82.88719263579696 L 293.12764870375395,-82.88719263579696 L 292.12586034834385,-83.04588035447523 L 291.12407198548317,-83.31035987846553 L 290.12228363007307,-83.83931892598048 L 285.6405988559127,-86.37832237128168 L 278.9971602708101,-75.5875578513369 L 283.373393625021,-72.88986676745117 L 283.8479249551892,-72.5724913449958 L 284.2697305753827,-72.20222002547234 L 284.69153621047735,-71.83194870688021 L 285.06061612814665,-71.40878147631884 L 285.32424464821815,-71.0914060571231 L 285.69332456588745,-70.45665522105992 L 285.85150167346,-70.19217570871115 L 286.1678558886051,-69.451633061748 L 286.2733072936535,-69.02846584096551 L 286.43148440122604,-68.34081910410896 L 286.4842101112008,-67.23000514879823 L 286.4842101112008,-66.806837934535 L 286.37875870615244,-66.0662952978164 L 286.2205815985799,-65.53733627311885 L 286.06240448355675,-65.00837724562734 L 285.85150167346,-64.47941822232679 L 285.5351474508643,-64.00335510959849 L 285.2187932357192,-63.47439608024433 L 284.9024390131235,-63.05122886877507 L 284.48063339293003,-62.680957556236535 L 284.05882777273655,-62.31068623857573 L 283.5842964425683,-61.94041491718963 L 283.10976511240005,-61.67593541601673 L 282.687959484756,-61.46435180818662 L 282.0552510470152,-61.19987230328843 L 281.3698169067502,-61.04118459345773 L 280.94801127910614,-60.935392790008336 L 280.20985143631697,-60.88249689433724 L 279.84077151864767,-60.88249689433724 L 279.26078878343105,-60.935392790008336 L 278.7335317507386,-61.04118459345773 L 278.1008233129978,-61.19987230328843 L 277.62629199028015,-61.35856000659987 L 276.782680734992,-61.78172722319141 L 272.19554456323385,-64.58521003089845 L 268.7156481593847,-58.87245263531804 L 267.39750558137894,-56.75661658635363 L 266.13208870589733,-54.640780543442816 L 264.18123769015074,-51.46702650748193 L 223.42426916956902,-76.64547592168674 L 225.32239448279142,-79.76633426686749 L 226.6932627633214,-82.04085816256702 L 228.11685674637556,-84.31538207270205 L 231.4385760501027,-89.71076441649348 L 227.22051979601383,-92.30266380263492 L 226.6405370682478,-92.77872696472332 L 226.06055433303118,-93.25479011842981 L 225.48057159036398,-94.0482287183404 L 224.95331456512213,-94.894563220907 L 224.63696034997702,-95.74089772393927 L 224.47878324240446,-96.42854451201856 L 224.4260575324297,-96.7459199433215 L 224.3733318299055,-97.16908720321953 L 224.3733318299055,-97.6451503559947 L 224.3733318299055,-98.121213526465 L 224.4260575324297,-98.65017260471359 L 224.53150893747807,-99.33781938906759 L 224.79513745754957,-100.0254661818035 L 225.0587659701705,-100.71311297127977 L 225.42784589529037,-101.34786386461928 L 225.84965151548386,-101.87682293634862 L 226.3769085481763,-102.40578201180324 L 226.9568912833929,-102.88184518087655 L 227.53687401860952,-103.30501243518665 L 228.2223081588745,-103.62238788139075 L 228.9077422991395,-103.88686742307618 L 229.5931764394045,-104.04555514920503 L 230.33133628219366,-104.15134696243331 L 231.06949612498283,-104.20424286928028 L 231.75493026524782,-104.0984510621056 L 232.493090108037,-103.99265924282372 L 233.17852424830198,-103.72817970765755 L 233.81123268604279,-103.46370016457513 L 238.2929174527526,-100.87180070206523 Z " fill="#E8E4E0" stroke="#A0A890" stroke-width="1.0" /><path d="M 216.25357354432344,-163.18318466097116 L 229.27682222425938,-184.44734352175146 L 231.12222182750702,-183.28363330103457 L 249.31258940696716,-172.0696986638941 L 267.5029569789767,-160.80286845145747 L 269.29563089460135,-159.6920542186126 L 256.37783362716436,-138.5865844944492 L 216.25357354432344,-163.18318466097116 Z " fill="#E8E4E0" stroke="#A0A890" stroke-width="1.0" /><path d="M 304.72730338573456,-108.70039506396279 L 317.7505520656705,-129.91165492730215 L 325.3957790136337,-125.20391884539276 L 337.89177065342665,-117.42822004994377 L 350.44048800319433,-109.59962550457567 L 358.1911663636565,-104.83899376355112 L 345.3260947987437,-83.83931892598048 L 304.72730338573456,-108.70039506396279 Z " fill="#E8E4E0" stroke="#A0A890" stroke-width="1.0" /><path d="M 440.23236042261124,-237.501954048872 L 427.05093464255333,-216.18489628378302 L 419.30025628209114,-220.9455294199288 L 406.64608753472567,-228.72123035462573 L 394.0446444824338,-236.49693144857883 L 386.3466918244958,-241.2575648445636 L 399.4753919094801,-262.5746240383014 L 440.23236042261124,-237.501954048872 Z " fill="#E8E4E0" stroke="#A0A890" stroke-width="1.0" /><path d="M 395.7318669781089,-264.8491490324959 L 382.60316690057516,-243.58498564455658 L 374.79976284503937,-248.45141099533066 L 362.0928683951497,-256.22711249580607 L 349.38597393780947,-263.9499182240106 L 341.5825698748231,-268.76344790076837 L 354.8167213574052,-290.13340457947925 L 395.7318669781089,-264.8491490324959 Z " fill="#E8E4E0" stroke="#A0A890" stroke-width="1.0" /><path d="M 351.1259221434593,-292.40792973991483 L 337.9444963634014,-271.0379729308188 L 336.1518224477768,-272.14878749474883 L 317.8032777681947,-283.3627251009457 L 299.50745878368616,-294.6295589818619 L 297.7675105780363,-295.7403736137785 L 311.0016620606184,-317.21612369967625 L 351.1259221434593,-292.40792973991483 Z " fill="#E8E4E0" stroke="#A0A890" stroke-width="1.0" /><path d="M 307.1526857391,-319.38485714793205 L 294.02398566156626,-298.17358661815524 L 289.22594667971134,-301.18865492241457 L 279.0498859733343,-307.2716875481419 L 268.92655096948147,-313.35472026700154 L 264.0230605825782,-316.42268464062363 L 277.30993776768446,-337.89843590091914 L 307.1526857391,-319.38485714793205 Z " fill="#E8E4E0" stroke="#A0A890" stroke-width="1.0" /><path d="M 225.0587659701705,-192.64621105697006 L 223.63517198711634,-190.42458241758868 L 221.7897723764181,-191.5353967328556 L 220.68253260850906,-189.73693546000868 L 210.61192331463099,-196.03154996363446 L 200.5940397158265,-202.2732686586678 L 201.5958280786872,-203.96593814948574 L 199.48679995536804,-205.28833619737998 L 200.80494253337383,-207.45706900255755 L 198.0104802697897,-209.14973851805553 L 198.6959144026041,-210.31344881327823 L 195.1105665937066,-212.53507757466286 L 194.31968104839325,-211.3184713497758 L 191.41976737976074,-213.1169327236712 L 190.15435050427914,-211.0539917331189 L 187.93987096846104,-212.37638981128111 L 186.72717979550362,-210.41924066888168 L 176.1293134689331,-217.0312310596928 L 165.5314471423626,-223.6961174895987 L 166.63868691027164,-225.49457893148065 L 164.63511018455029,-226.7111852047965 L 166.05870417505503,-228.93281406071037 L 163.21151620149612,-230.67837959341705 L 163.94967605173588,-231.89498588675633 L 160.15342542529106,-234.1695106900297 L 159.3625398799777,-232.90000847307965 L 156.5153519064188,-234.64557403651997 L 155.1972093358636,-232.5297369887121 L 153.14090690761805,-233.7992392089218 L 152.03366714715958,-232.0007777349092 L 140.90854378044605,-238.82435221364722 L 129.7306947261095,-245.59503089170903 L 130.94338589161634,-247.552180218976 L 128.99253487586975,-248.76878656307235 L 130.31067745387554,-250.93751962063834 L 127.41076377779245,-252.73598118731752 L 128.04347221553326,-253.84679568745196 L 124.45812440663576,-256.06842470774427 L 123.6672388613224,-254.7989224079065 L 120.87277659773827,-256.5444880677387 L 119.55463401973248,-254.42865090817213 L 117.44560588896275,-255.698153198231 L 116.54926893860102,-254.21706718858331 L 105.89867690950632,-260.7761624264531 L 95.24808488041162,-267.2823618389666 L 96.14442183077335,-268.76344790076837 L 94.19357081502676,-269.9800543198362 L 95.56443909555674,-272.20168342255056 L 92.7699768319726,-273.9472491601482 L 93.56086237728596,-275.1638555927202 L 89.9227888584137,-277.38548472942784 L 89.1846290230751,-276.2217742325738 L 86.28471534699202,-278.0731318583712 L 84.91384706646204,-275.85150269791484 L 82.8575446382165,-277.0681091407314 L 81.75030487775803,-275.26964745670557 L 78.5867626965046,-277.2796928663738 L 75.37049479782581,-279.23684235755354 L 76.47773456573486,-280.98240813426673 L 59.60550956428051,-291.29711512848735 L 60.976377844810486,-293.57164029963315 L 57.81283565610647,-295.47589394357055 L 58.76189831644297,-297.0098760491237 L 56.86377300322056,-298.17358661815524 L 57.49648143351078,-299.2315053185448 L 55.4401790201664,-300.5010077627376 L 55.914710350334644,-301.24155086185783 L 52.909345269203186,-303.0929086129181 L 54.33293925225735,-305.4203297807835 L 49.79852878302336,-309.1230453257449 L 50.589414335787296,-310.3925478057936 L 49.165820345282555,-311.29177873022854 L 48.269483387470245,-309.86358843557537 L 46.31863237917423,-311.0801949822344 L 45.26411832123995,-309.3875250061974 L 43.36599300801754,-310.55123561201617 L 49.32399746030569,-320.2311921585351 L 55.334727607667446,-329.85825301427394 L 57.232852920889854,-328.6945423479192 L 56.125613160431385,-326.9489763570018 L 58.07646417617798,-325.78526570182294 L 57.18012721836567,-324.3041794090532 L 58.49826979637146,-323.45784440031275 L 59.39460675418377,-324.88603473920375 L 64.87807987630367,-322.87598907388747 L 66.51257667690516,-325.4678900707513 L 69.67611886560917,-323.51074033789337 L 70.15065019577742,-324.25128347892314 L 72.73420964181423,-322.6644053198397 L 75.7923004180193,-327.68951950687915 L 72.99783815443516,-329.3821895653382 L 74.26325502991676,-331.39223526231945 L 72.99783815443516,-332.1327784145251 L 75.26504339277744,-335.83549421979114 L 74.47415784746408,-336.31155768502504 L 77.90132854878902,-341.97142335027456 L 72.8396610468626,-346.6262662024237 L 73.36691807955503,-347.4726012609899 L 71.99604979902506,-348.37183228181675 L 71.36334136128426,-347.36680938350037 L 70.15065019577742,-348.10735257156193 L 69.04341042786837,-346.25599460164085 L 68.04162206500769,-346.83784996159375 L 66.19622245430946,-343.8227812917903 L 67.09255941212177,-343.2938218754716 L 66.09077105671167,-341.60115175461397 L 63.5072115957737,-343.13513404969126 L 72.57603253424168,-357.7344141388312 L 81.64485347270966,-372.33369479794055 L 84.17568722367287,-370.6939204870723 L 83.06844745576382,-369.05414618644863 L 82.22483620047569,-369.58310564095154 L 80.32671088725328,-366.62093272572383 L 81.32849925011396,-365.98618138954043 L 80.16853377968073,-364.13482333905995 L 81.38122496008873,-363.39428012352437 L 80.74851652234793,-362.38925718609244 L 82.17211050540209,-361.5429220814258 L 82.69936753064394,-362.38925718609244 L 89.13190331310034,-359.9560437640175 L 92.61179972440004,-365.56301383441314 L 93.4026852697134,-365.0869503291324 L 95.72261620312929,-368.73677052091807 L 96.93530737608671,-367.9433313542977 L 98.14799855649471,-370.0062732016668 L 100.94246082007885,-368.26070701610297 L 104.0532772988081,-373.23292586486787 L 101.4697178453207,-374.81980422791094 L 101.94424917548895,-375.61324342433363 L 98.78070698678493,-377.517497473862 L 100.36247807741165,-380.16229479620233 L 96.09169612824917,-384.18238675175235 L 96.9880330786109,-385.61057732068 L 95.6171648055315,-386.40401653712615 L 94.72082784026861,-384.92293000919744 L 92.7699768319726,-386.1924327458255 L 91.71546277403831,-384.3939705383964 L 89.8173374608159,-385.5576813747175 L 95.77534191310406,-395.29053580295295 L 101.73334636539221,-404.97049452597275 L 103.4205688610673,-403.8596795774065 L 102.41878049820662,-402.2199051277712 L 104.47508292645216,-400.95040234038606 L 103.63147167116404,-399.57510766293854 L 104.79143714159727,-398.88746032258496 L 106.00412831455469,-400.8975063962862 L 111.1185215190053,-397.72374944901094 L 112.54211550205946,-400.0511712068692 L 115.6002062857151,-398.14691703626886 L 116.07473761588335,-398.88746032258496 L 118.02558862417936,-397.67085349932313 L 118.65829706192017,-398.67587652569637 L 120.4509709700942,-397.5650615938939 L 121.4000336304307,-399.04614817071706 L 124.61630151420832,-397.03610211610794 L 126.09262120723724,-399.3635238711722 L 142.80666909366846,-389.0488139106892 L 143.70300605148077,-390.5827963966876 L 146.97199963778257,-388.57275037886575 L 150.29371894150972,-386.5627043764107 L 149.18647917360067,-384.7642421736382 L 151.13733018934727,-383.5476353815757 L 149.7137362062931,-381.2731096679345 L 152.560924179852,-379.52754343440756 L 151.9282157421112,-378.52252045227215 L 155.93536917120218,-376.03641098039225 L 156.62080331891775,-377.1472258558497 L 159.3625398799777,-375.45455558924004 L 160.7334081530571,-377.72908126423135 L 162.78971058130264,-376.45957856206223 L 163.94967605173588,-378.31093666749075 L 174.38936527073383,-371.9105272204615 L 184.88178019225597,-365.45722195273265 L 183.72181472182274,-363.5529679534957 L 185.7781171426177,-362.2834652932361 L 184.40724886208773,-360.1147316005081 L 187.41261394321918,-358.263373574242 L 186.77990550547838,-357.2054546996951 L 190.36525331437588,-354.9838250884786 L 191.05068745464087,-356.09463990246877 L 193.95060113072395,-354.29617783473805 L 195.26874370127916,-356.41201555822045 L 197.32504612207413,-355.1425129259005 L 198.48501159995794,-357.0467668729834 L 209.55740924924612,-350.3289821376093 L 220.57708121091127,-343.6640934692696 L 219.15348722040653,-341.44246393302456 L 221.20978964865208,-340.17296135192737 L 219.94437277317047,-338.11001965915784 L 222.84428644180298,-336.31155768502504 L 222.1588522940874,-335.2536388770677 L 226.11328002810478,-332.8204256342724 L 226.79871417582035,-333.9312403779477 L 229.64590214192867,-332.1327784145251 L 231.01677042245865,-334.35440789349377 L 233.0730728507042,-333.13780126860365 L 243.7236648797989,-326.5787047818303 L 254.374256901443,-319.9667124678381 L 256.43055932968855,-318.8030018354766 L 255.05969104915857,-316.6342683881521 L 258.01233042031527,-314.7829105760902 L 257.37962198257446,-313.72499182540923 L 260.96496979892254,-311.50336247030646 L 261.7031296417117,-312.6670730873011 L 264.55031760782003,-310.868611226324 L 265.9211858958006,-313.0902405786328 L 267.977488309145,-311.82073809346184 L 268.92655096948147,-313.35472026700154 L 279.0498859733343,-307.2716875481419 L 289.22594667971134,-301.18865492241457 L 288.0659812018275,-299.28440124867484 L 290.0695579200983,-298.0148988091387 L 288.8041410446167,-295.89906142186373 L 291.7040547206998,-294.10059964610264 L 291.0186205804348,-292.9897850160487 L 294.70941979438066,-290.71525985049084 L 295.39485393464565,-291.8789704074152 L 297.1348021402955,-290.8210517154075 L 299.50745878368616,-294.6295589818619 L 317.8032777681947,-283.3627251009457 L 336.1518224477768,-272.14878749474883 L 333.67371440678835,-268.12869673082605 L 335.4663883149624,-267.0178821859881 L 334.7809541746974,-265.9070676439442 L 338.5772048011422,-263.5267507750541 L 339.3153646364808,-264.6904612472281 L 342.68980964273214,-262.6275199712254 L 343.69159799814224,-264.21439786674455 L 347.9096542522311,-261.62249729642645 L 349.38597393780947,-263.9499182240106 L 362.0928683951497,-256.22711249580607 L 374.79976284503937,-248.45141099533066 L 373.16526605188847,-245.85951053351164 L 377.48877370357513,-243.21471414947882 L 376.5924367532134,-241.78652412211522 L 380.1777845621109,-239.5648951898329 L 379.4923504218459,-238.50697665289044 L 383.18314964324236,-236.2853477462195 L 383.81585808098316,-237.34326626872644 L 387.2957544848323,-235.22742921765894 L 388.1920914426446,-236.65561922173947 L 392.51559909433126,-234.01082292292267 L 394.0446444824338,-236.49693144857883 L 406.64608753472567,-228.72123035462573 L 419.30025628209114,-220.9455294199288 L 417.7184851914644,-218.40652507776394 L 421.9892671406269,-215.7617288962938 L 421.0929301828146,-214.33353896345943 L 424.5728265941143,-212.21770203486085 L 419.30025628209114,-203.6485626185313 L 416.8221482411027,-199.68136850604787 L 414.3440401852131,-195.66127851651981 L 409.5460012033582,-187.88557827100158 L 408.0696815177798,-188.78480889834464 L 406.2770076096058,-185.92842924967408 L 405.0115907341242,-186.72186804702505 L 402.6389340907335,-182.80757003091276 L 403.85162527114153,-182.0670271674171 L 402.0589513629675,-179.21064757090062 L 403.53527104854584,-178.3114169551991 L 401.90077424794436,-175.66662105778232 L 392.6737762019038,-160.5912847816944 L 383.3940524533391,-145.56884501874447 L 381.70682995021343,-142.87115344312042 L 380.23051027208567,-143.770383968018 L 378.4905620664358,-140.96690057916567 L 377.3305965960026,-141.70744335465133 L 374.9579399526119,-137.84604172315449 L 376.22335682809353,-137.05260303476825 L 374.4834086224437,-134.19622377492487 L 375.9597283154726,-133.29699327470735 L 371.05623792111874,-125.41550248442218 L 368.6308555826545,-121.50120511651039 L 366.15274753421545,-117.53401187248528 L 360.9329029247165,-109.01777051528916 L 357.40028081834316,-111.18650276074186 L 356.55666956305504,-109.81120913522318 L 352.23316191136837,-112.45600457675755 L 350.44048800319433,-109.59962550457567 L 337.89177065342665,-117.42822004994377 L 325.3957790136337,-125.20391884539276 L 326.977550111711,-127.74292257195339 L 322.75949385762215,-130.33482221746817 L 323.6558308079839,-131.81590774469078 L 320.17593441158533,-133.93174421414733 L 320.9140942543745,-135.09545428026468 L 317.1705693304539,-137.42287441994995 L 316.4851351901889,-136.31206026300788 L 312.9525130838156,-138.4807926719077 L 312.05617612600327,-137.05260303476825 L 307.6799427717924,-139.7502945731394 L 306.04544597119093,-137.15839486243203 L 293.44400292634964,-144.9869899796322 L 280.84255987405777,-152.86848117271438 L 282.21342815458775,-155.19590142322704 L 277.99537190794945,-157.7878012578003 L 278.89170886576176,-159.26888689445332 L 275.5172638595104,-161.3847235199064 L 276.2554237097502,-162.65422549843788 L 272.56462448835373,-164.92874989518896 L 271.87919034063816,-163.81793565908447 L 270.03379072993994,-164.92874989518896 L 267.5029569789767,-160.80286845145747 L 249.31258940696716,-172.0696986638941 L 231.12222182750702,-183.28363330103457 L 233.65305557847023,-187.35661907680333 L 231.91310737282038,-188.41453746147454 L 232.70399292558432,-189.6840395363979 L 228.69683948904276,-192.1701477728784 L 227.9059539437294,-190.8477497762069 L 225.0587659701705,-192.64621105697006 Z " fill="#E8E4E0" stroke="#A0A890" stroke-width="1.0" /><path d="M 143.5975546464324,-32.95346182724461 L 144.44116588681936,-34.32875517569482 L 145.2847771421075,-35.70404852973297 L 141.43580082058907,-38.03146805148572 L 152.9827298000455,-56.80951248295605 L 133.10513972491026,-69.02846584096551 L 134.47600799798965,-71.30298966635019 L 131.4179172217846,-73.20724218664691 L 128.41255214065313,-75.0585988080129 L 127.04168386757374,-72.78407496213913 L 121.29458221793175,-76.27520460262895 L 117.18197737634182,-69.50452896719798 L 115.07294925302267,-70.77403064118698 L 116.39109183102846,-72.88986676745117 L 113.86025808006525,-74.4238479686901 L 116.65472034364939,-79.07868751464412 L 112.48938979953527,-81.61769092036411 L 115.49475488066673,-86.58990599075332 L 116.33836612850428,-86.0609469357878 L 116.6019946411252,-86.48411418450996 L 117.81468581408262,-85.74357150960714 L 121.29458221793175,-86.21963465679437 L 121.98001635819674,-87.38334458041936 L 122.45454768836498,-87.06596914911643 L 123.2981589436531,-88.44126268383116 L 126.03989550471306,-86.74859370943159 L 134.10692808032036,-100.0254661818035 L 142.22668636590242,-113.24944321112707 L 139.59040120244026,-114.83632047940046 L 140.38128674775362,-116.15871821995825 L 139.95948112756014,-116.42319776350632 L 140.64491526782513,-117.58690777374431 L 139.4849497973919,-120.97224601078779 L 138.4304357394576,-121.60699693625793 L 138.8522413596511,-122.24174785474315 L 138.06135581433773,-122.71781104616821 L 140.6976409703493,-127.10817163810134 L 145.02114862948656,-124.51627200096846 L 148.92285066097975,-131.02246907213703 L 150.87370166927576,-129.85875901626423 L 157.25351175665855,-140.43794144224375 L 155.30266073346138,-141.60165153071284 L 159.52071698755026,-148.5839121127501 L 158.94073425233364,-148.90128759713843 L 159.3625398799777,-149.64183039451018 L 157.93894588947296,-150.48816501675174 L 158.30802581459284,-151.0700200800784 L 156.8317061290145,-151.96925062779337 L 157.67531737685204,-153.34454440092668 L 151.24278159439564,-157.2588421124965 L 153.6154382377863,-161.12024393677711 L 154.6172265931964,-160.53838886879385 L 159.9952483177185,-169.31911097560078 L 161.8933736309409,-172.54576192377135 L 163.84422463923693,-175.77241289289668 L 169.53860057890415,-185.08209454314783 L 168.4313608109951,-185.76974149560556 L 171.54217729717493,-190.8477497762069 L 178.81832433491945,-186.4044925267808 L 191.68339589238167,-207.35127715487033 L 186.72717979550362,-210.41924066888168 L 176.1293134689331,-217.0312310596928 L 165.5314471423626,-223.6961174895987 L 160.6806824579835,-226.7111852047965 L 147.55198238044977,-205.44702396076173 L 157.04260893911123,-199.5755766686052 L 154.03724385797977,-194.70915194926783 L 147.1829024553299,-198.94082561088726 L 141.33034940809011,-189.47245586523786 L 138.79951566457748,-191.00643754098564 L 134.79236222058535,-184.5531353559345 L 137.165018863976,-183.07204962242395 L 131.89244855195284,-174.55580678442493 L 140.90854378044605,-169.00173547118902 L 138.4831614419818,-165.08743764692917 L 129.25616339594126,-170.80019665323198 L 128.30710074305534,-169.31911097560078 L 126.93623245507479,-170.21834156149998 L 126.56715253740549,-169.6364864706993 L 125.09083284437656,-170.53571706591174 L 124.72175292670727,-169.9009660659358 L 124.08904448896646,-170.32413339056075 L 117.34015449136496,-159.42757464572787 L 113.28027534484863,-161.96657859627157 L 116.54926893860102,-167.30906613217667 L 112.38393838703632,-169.95386197511107 L 110.59126448631287,-171.06467623868957 L 108.85131628066301,-172.17549049854279 L 107.84952791780233,-172.81024149945006 L 104.52780862897635,-167.41485796542838 L 104.31690581142902,-167.5735457232222 L 104.10600300133228,-167.20327431103215 L 102.41878049820662,-168.26119263423607 L 101.41699214279652,-166.56852330360562 L 100.62610659748316,-165.29902130318806 L 102.26060339063406,-164.29399889474735 L 102.15515198558569,-164.08241523755714 L 102.57695761322975,-163.81793565908447 L 106.58411104977131,-161.12024393677711 L 115.02022355049849,-155.93644423410296 L 109.32584761083126,-146.73255512537435 L 113.59662956744432,-144.08775944681838 L 110.64399019628763,-139.32712727226317 L 109.8531046435237,-139.8560863970779 L 109.53675042837858,-139.32712727226317 L 108.42951066046953,-140.01477413903922 L 104.94961424916983,-139.59160683583468 L 104.21145441383123,-138.37500084238127 L 103.73692308366299,-138.6923763169907 L 102.94603753834963,-137.42287441994995 L 98.41162706911564,-140.1734618805349 L 91.61001136153936,-128.5892571513541 L 84.80839566141367,-116.95215686224401 L 89.44825753569603,-118.59193005878478 L 92.92815393954515,-115.89423867408186 L 92.18999409675598,-112.0857332199812 L 94.56265073269606,-101.87682293634862 L 90.29186878353357,-94.73587549570948 L 89.60643464326859,-95.15904274629429 L 89.9227888584137,-95.68800181522965 L 85.54655550420284,-98.33279715664685 L 80.69579081237316,-101.24207204766572 L 76.63591167330742,-94.68297959119081 L 72.99783815443516,-96.90460767038167 L 71.46879276633263,-94.41850006161258 L 69.9397473782301,-91.98528837459162 L 73.57782089710236,-89.71076441649348 L 68.51615339517593,-81.51189912064001 L 69.14886183291674,-81.14162778668106 L 68.77978190779686,-80.50687693292275 L 70.36155299842358,-79.55475065531209 L 70.09792448580265,-79.07868751464412 L 71.62696987390518,-78.12656124075875 L 70.46700441092253,-76.2223086967133 L 98.99160979688168,-58.66086902655661 L 100.15157526731491,-60.565121482592076 L 101.68062066286802,-59.612995251081884 L 101.99697487801313,-60.14195426739752 L 103.52602026611567,-59.189828041009605 L 103.89510019123554,-59.771682949736714 L 104.52780862897635,-59.40141164045781 L 107.69135081022978,-64.53231413010508 L 110.16945886611938,-62.99833297031 L 111.43487574160099,-65.06127314083278 L 113.59662956744432,-63.738875589799136 L 107.2695451900363,-53.42417482472956 L 119.13282839208841,-46.124540608376265 L 121.98001635819674,-50.779379803687334 L 137.27047026902437,-41.416805571410805 L 134.42328230291605,-36.76196648646146 L 138.90496706962585,-34.01137978164479 L 139.6958526149392,-35.33377722883597 L 143.5975546464324,-32.95346182724461 Z " fill="#E8E4E0" stroke="#A0A890" stroke-width="1.0" /><path d="M 308.6817311272025,-90.23972348170355 L 312.42525604367256,-87.96519953478128 L 313.8488500341773,-90.2926193876192 L 315.32516971975565,-92.56714334525168 L 311.3707419857383,-95.00035502854735 L 312.5307074561715,-96.90460767038167 L 302.091018229723,-103.30501243518665 L 298.55839613080025,-97.53935855766758 L 299.24383026361465,-97.06329539604485 L 299.87653870135546,-96.53433632105589 L 300.2983443289995,-96.11116906488314 L 300.56197284162045,-95.79379362659529 L 300.9837784692645,-95.26483456557617 L 301.4583097919822,-94.52429187158123 L 301.8801154270768,-93.78374918317422 L 302.14374393969774,-93.25479011842981 L 302.5128238648176,-92.24976790649816 L 302.72372667491436,-91.40343340439722 L 302.82917807996273,-90.55709891021252 L 302.8819037824869,-89.97524395026267 L 302.8819037824869,-88.86442992975935 L 302.82917807996273,-88.07099134847522 L 302.618275269866,-87.1717609539628 L 302.5128238648176,-86.64280189713463 L 302.091018229723,-85.58488379884511 L 301.72193831950426,-84.79144521802664 L 301.3001326844096,-84.10379845555872 L 300.82560135424137,-83.41615169029683 L 300.24561862647533,-82.78140083421022 L 299.56018447875977,-82.09375407034531 L 298.98020175099373,-81.61769092036411 L 298.18931620568037,-81.14162778668106 L 297.5038820654154,-80.77135646063834 L 296.6075451076031,-80.34818921936676 L 295.97483666986227,-80.13660559942946 L 295.39485393464565,-79.9779178830795 L 294.2876141741872,-79.76633426686749 L 293.44400292634964,-79.71343836700544 L 292.6003916710615,-79.71343836700544 L 291.59860330820084,-79.87212608475238 L 290.91316917538643,-79.9779178830795 L 289.85865511745214,-80.29529331438243 L 289.33139807730913,-80.50687693292275 L 288.4350611269474,-80.98294007591903 L 285.11334183067083,-75.5875578513369 L 285.79877596348524,-75.0585988080129 L 286.43148440122604,-74.52963977400213 L 287.01146714389324,-73.89488893654197 L 287.5387241691351,-73.26013808464631 L 288.0659812018275,-72.51959544466808 L 288.4350611269474,-71.83194870688021 L 288.8041410446167,-71.0385101553984 L 289.0677695646882,-70.24507160624489 L 289.27867237478495,-69.39873715629801 L 289.4368494823575,-68.55240272032097 L 289.48957519233227,-67.9176518805325 L 289.48957519233227,-66.85973383160308 L 289.3841237872839,-66.17208710126579 L 289.22594667971134,-65.16706495406106 L 289.015043862164,-64.37362641841173 L 288.69868963956833,-63.58018789300695 L 288.3823354244232,-62.945437060669065 L 287.8550783917308,-62.09910263493657 L 287.38054706156254,-61.411455913446844 L 286.8005643263459,-60.72380918264389 L 286.2205815985799,-60.14195426739752 L 285.5351474508643,-59.612995251081884 L 284.8497133180499,-59.13693213602528 L 284.11155346781015,-58.713764925953 L 283.42611933499575,-58.44928541500121 L 282.52978237718344,-58.079014108050615 L 281.6861711293459,-57.92032641265541 L 280.84255987405777,-57.761638703756034 L 279.94622292369604,-57.708742802497 L 279.1553373783827,-57.708742802497 L 278.25900042802095,-57.81453460454941 L 277.468114875257,-57.97322230692953 L 276.41360080987215,-58.29059771588072 L 275.7808923795819,-58.55507722729817 L 274.9372811242938,-58.97824443411082 L 273.19733292609453,-56.12186576472595 L 268.7156481593847,-58.87245263531804 L 267.39750558137894,-56.75661658635363 L 266.13208870589733,-54.640780543442816 L 270.297419257462,-52.048881410155445 L 268.34656823426485,-48.87512739980593 L 279.0498859733343,-42.26313994452357 L 308.6817311272025,-90.23972348170355 Z " fill="#E8E4E0" stroke="#A0A890" stroke-width="1.0" /><path d="M 459.21361353993416,-92.03818427072838 L 456.20824847370386,-87.11886504897848 L 454.7846544831991,-87.96519953478128 L 454.2573974505067,-88.28257497493178 L 453.6246890127659,-88.28257497493178 L 453.04470628499985,-88.1238872515969 L 452.5701749548316,-87.75361591856927 L 452.3592721372843,-87.48913638433442 L 452.2538207322359,-87.1717609539628 L 452.04291792213917,-86.58990599075332 L 452.09564362466335,-85.95515512768179 L 452.3592721372843,-85.37330017238855 L 452.78107776492834,-84.84434111462906 L 453.46651190519333,-84.4211738803424 L 451.88474080711603,-81.77637864556164 L 451.14658097177744,-82.25244178110734 L 450.5665982365608,-82.56981720682234 L 449.9866154938936,-82.56981720682234 L 449.4066327661276,-82.35823359619826 L 448.87937574088573,-81.987962259911 L 448.56302151829004,-81.4590032119304 L 448.24666730314493,-80.98294007591903 L 460.53175612539053,-73.36592990066856 L 472.8168449476361,-65.74891987768933 L 472.9750220552087,-66.01339939236641 L 473.2913762778044,-66.54235841426998 L 473.44955338537693,-67.12421334255487 L 473.44955338537693,-67.75896417489275 L 473.23865058273077,-68.34081910410896 L 472.8695706576109,-68.81688222847879 L 471.8677823022008,-69.451633061748 L 473.5022790953517,-72.04353231703863 L 474.08226182311773,-71.67326099099591 L 474.92587307840586,-71.46167738456279 L 475.55858151614666,-71.46167738456279 L 476.19128995388746,-71.67326099099591 L 476.7185469865799,-72.04353231703863 L 477.0876269042492,-72.62538724485785 L 477.19307831674814,-73.26013808464631 L 477.1403526067734,-73.89488893654197 L 476.82399839162827,-74.47674387134612 L 476.61309557408094,-74.68832748755813 L 479.3548321425915,-79.02579160686582 L 484.4692253470421,-75.79914147220552 L 481.67476307600737,-71.40878147631884 L 480.77842612564564,-71.51457328675315 L 480.198443390429,-71.30298966635019 L 479.7239120602608,-70.9327183435671 L 479.3548321425915,-70.40375931141898 L 479.1966550350189,-69.76900847954676 L 479.3021064400673,-69.13425764720887 L 479.5657349526882,-68.55240272032097 L 479.7239120602608,-68.34081910410896 L 488.581830188632,-62.786749359220266 L 491.903549477458,-68.07633959129453 L 485.89281933009624,-71.83194870688021 L 487.3691390156746,-74.15936844749376 L 493.32714346796274,-70.45665522105992 L 532.1332609653473,-132.5564505099319 L 527.9679304212332,-135.14835019409657 L 534.6113690137863,-145.72753276722506 L 538.6185224577785,-147.4730979143642 L 542.1511445641518,-153.34454440092668 L 547.1073606535792,-152.97427300037816 L 548.7945831567049,-151.96925062779337 L 550.1127257347107,-154.13798311911523 L 551.3781426101923,-156.2538197208196 L 549.7436458170414,-157.2588421124965 L 547.2128120660782,-161.49051534896716 L 551.6944968253374,-168.84304771991447 L 540.4111963585019,-175.77241289289668 L 530.4987641721964,-159.53336646873504 L 523.6971484646201,-163.71214381977916 L 524.5934854149818,-165.19322947505862 L 526.2807079255581,-164.1882070689462 L 528.7060902640224,-168.15540081029758 L 527.0188677683473,-169.2133191432804 L 530.8678440898657,-175.50793329905719 L 532.5550665929914,-174.45001495163888 L 535.2440774515271,-178.84037614008412 L 534.7168204262853,-179.21064757090062 L 535.0331746414304,-183.6010088105686 L 535.7186087816954,-184.6589271905832 L 533.6095806583762,-185.98132517421618 L 531.5005525276065,-187.30372316157445 L 530.7623926848173,-186.14001293387264 L 527.0188677683473,-183.97128024464473 L 525.7534508928657,-184.71182311093435 L 510.1993684619665,-159.00440731085837 L 503.5032041668892,-163.0244969110936 L 501.3941760510206,-164.34689481323585 L 499.2851479202509,-165.61639680387452 L 469.75875417143106,-184.0241761598736 L 466.3843091726303,-186.0871170097962 L 463.00986417382956,-188.15005786763504 L 458.3700022995472,-191.00643754098564 L 453.99376893788576,-183.97128024464473 L 474.34589034318924,-171.43494765926152 L 488.6872815936804,-162.601329583209 L 488.9509101063013,-163.0244969110936 L 494.85618886351585,-159.3746787183918 L 495.91070292145014,-161.0673480243422 L 513.2574592530727,-150.32947728037834 L 517.2118869870901,-156.72988295787945 L 521.4299432337284,-158.10517675615847 L 529.971507139504,-152.81558526447043 L 530.7096669822931,-148.4252243731171 L 525.7534508928657,-140.49083735328168 L 524.3298569023609,-141.33717196621 L 524.751662530005,-142.0248188301921 L 525.5425480753183,-141.49585969978943 L 529.2333472967148,-147.4202020028606 L 523.6971484646201,-150.8584364168346 L 520.0063492506742,-144.93409405788407 L 520.7972347959876,-144.45803084550425 L 520.3227034732699,-143.7174880565144 L 518.160949639976,-145.0927818035707 L 518.6354809626937,-145.8862205031328 L 519.3209151104093,-145.41015728749335 L 522.9062629193068,-151.2287078127265 L 516.9482584670186,-154.93142184149474 L 513.3101849555969,-149.11287125525996 L 514.1537962034345,-148.5839121127501 L 513.6265391781926,-147.73757749376819 L 512.7302022129297,-148.31943254172802 L 511.0957054272294,-145.67463685339317 L 512.9938307404518,-144.5109267551452 L 511.67568815499544,-142.3950902223587 L 509.98846565932035,-143.45300849154592 L 508.40669456124306,-140.86110874591395 L 504.7686210423708,-143.08273709984496 L 508.2485174536705,-148.68970393715426 L 498.0197310447693,-155.0372136803344 L 486.94733338803053,-137.1054989453405 L 497.2815712019801,-130.75798950809985 L 501.9214330762625,-138.2163131106645 L 505.6122322976589,-135.9417888764292 L 478.5639465972781,-92.09108018642291 L 490.5854069069028,-84.68565340479836 L 488.84545870125294,-81.82927454821765 L 476.7712726891041,-89.23470127489418 L 472.9222963601351,-82.94008854217827 L 474.1349875330925,-82.1995458798483 L 471.1823481544852,-77.38601858448237 L 459.002710737288,-84.84434111462906 L 462.2717043310404,-90.18682756926864 L 460.74265894293785,-91.13895388366655 L 459.21361353993416,-92.03818427072838 Z " fill="#E8E4E0" stroke="#A0A890" stroke-width="1.0" /><path d="M 105.47687128931284,-149.32445490639657 L 110.74944159388542,-157.89359309338033 L 106.2677568346262,-160.64418070064858 L 106.58411104977131,-161.12024393677711 L 102.57695761322975,-163.81793565908447 L 96.88258168101311,-154.66694227606058 L 105.47687128931284,-149.32445490639657 Z " fill="none" stroke="#A0A890" stroke-width="1.0" /><path d="M 117.18197737634182,-167.99671305529773 L 119.87098824232817,-172.334178250283 L 111.06579581648111,-177.83535369345918 L 108.32405924797058,-173.44499251293018 L 109.27312190830708,-172.8631374281831 L 108.85131628066301,-172.17549049854279 L 110.59126448631287,-171.06467623868957 L 112.38393838703632,-169.95386197511107 L 112.85846971720457,-170.6944048195146 L 117.18197737634182,-167.99671305529773 Z " fill="none" stroke="#A0A890" stroke-width="1.0" /><path d="M 134.42328230291605,-36.76196648646146 L 137.27047026902437,-41.416805571410805 L 121.98001635819674,-50.779379803687334 L 119.13282839208841,-46.124540608376265 L 134.42328230291605,-36.76196648646146 Z " fill="none" stroke="#A0A890" stroke-width="1.0" /><path d="M 89.9227888584137,-95.68800181522965 L 93.82449088990688,-102.08840657165274 L 91.55728565901518,-111.9270454859361 L 92.29544550180435,-115.62975912587717 L 89.44825753569603,-117.79849142208695 L 85.33565268665552,-116.52898958930746 L 84.43931573629379,-112.35021275561303 L 86.70652097463608,-111.02781503461301 L 85.91563542932272,-109.65252141375095 L 86.28471534699202,-109.44093777658418 L 85.54655550420284,-108.17143597593531 L 86.70652097463608,-104.94478558003902 L 87.9192121475935,-104.20424286928028 L 87.6028579249978,-103.72817970765755 L 88.49919487535954,-103.199220625218 L 85.54655550420284,-98.33279715664685 L 89.9227888584137,-95.68800181522965 Z " fill="none" stroke="#A0A890" stroke-width="1.0" /><path d="M 156.25172339379787,-60.51222557993606 L 149.97736471891403,-64.37362641841173 L 148.87012495100498,-62.52226984128356 L 140.53946385532618,-67.65317237051204 L 141.64670362323523,-69.39873715629801 L 137.11229315400124,-72.14932411862537 L 136.05777909606695,-70.35086340783164 L 134.47600799798965,-71.30298966635019 L 131.4179172217846,-73.20724218664691 L 128.41255214065313,-75.0585988080129 L 127.8852951079607,-75.37597423512489 L 129.67796901613474,-78.28524895431474 L 124.51085010915995,-81.40610730927438 L 126.46170112490654,-84.63275750121102 L 125.24900995194912,-85.37330017238855 L 126.03989550471306,-86.74859370943159 L 134.10692808032036,-100.0254661818035 L 142.22668636590242,-113.24944321112707 L 143.01757191121578,-114.62473685387522 L 144.33571448922157,-113.77840230381116 L 145.8647598773241,-116.2116141305305 L 151.08460448682308,-113.0378595800139 L 152.19184425473213,-114.83632047940046 L 160.31160253286362,-109.8641050439328 L 159.20436276495457,-107.95985234016553 L 163.73877323418856,-105.20926512312144 L 164.79328729957342,-106.90193417761475 L 173.12394839525223,-101.82392702577636 L 172.01670862734318,-100.0254661818035 L 178.29106730222702,-96.21696088090539 L 177.97471307963133,-95.74089772393927 L 178.50197011232376,-95.42352227587253 L 177.60563315451145,-93.94243690744042 L 177.86926167458296,-93.73085328377783 L 176.65657050162554,-91.6679129358381 L 178.18561589717865,-90.71578662563115 L 161.10248807817698,-62.83964525768533 L 159.62616839259863,-63.791771492920816 L 158.36075151711702,-61.7288313168101 L 157.93894588947296,-61.99331082915887 L 157.1480603441596,-60.670913280919194 L 156.56807760894299,-60.98828869126737 L 156.25172339379787,-60.51222557993606 Z " fill="none" stroke="#A0A890" stroke-width="1.0" /><path d="M 443.9231596365571,-22.691657797433436 L 423.41286112368107,-35.545360828284174 L 422.83287838846445,-36.02142391214147 L 422.3583470582962,-36.44459109986201 L 422.0419928431511,-37.02644598251209 L 421.9892671406269,-37.6611967603676 L 422.0947185456753,-38.29594754194841 L 422.4637984633446,-38.87780242599547 L 422.991055496037,-39.3009696174413 L 423.6237639337778,-39.459657311905175 L 424.2564723715186,-39.459657311905175 L 424.8891808092594,-39.19517781911418 L 425.46916354447603,-38.82490652985871 L 427.1036603450775,-41.36390967248008 L 426.5764033123851,-41.68128506373614 L 426.10187198221684,-42.10445225890726 L 425.7855177670717,-42.6863071504049 L 425.68006636202335,-43.26816203678027 L 425.73279206454754,-43.90291283093393 L 426.04914628714323,-44.48476772522554 L 426.2600490897894,-44.90793491806835 L 423.6764896437526,-46.494811901357025 L 423.3601354211569,-46.018748809117824 L 422.9383297935128,-45.54268570896238 L 422.4637984633446,-45.22531030932441 L 421.83109003305435,-45.06662262044847 L 421.19838159531355,-45.172414410859346 L 420.6711245626211,-45.38399800378829 L 420.19659323245287,-45.70137341413647 L 418.5093707367778,-42.95078664366156 L 419.0893534719944,-42.5805153506808 L 419.56388479471207,-42.10445225890726 L 419.88023901730776,-41.52259736228734 L 419.93296471983194,-40.88784657372162 L 419.827513307333,-40.2530957958661 L 419.4584333896637,-39.67124090110883 L 418.93117635697126,-39.3009696174413 L 418.29846791923046,-39.08938601985574 L 417.66575948148966,-39.08938601985574 L 417.03305104374886,-39.35386551357806 L 378.4905620664358,-63.42150018317625 L 378.01603073626757,-63.844667395576835 L 377.69967652112246,-64.42652232013643 L 377.6469508111477,-65.06127314083278 L 377.75240221619606,-65.69602397177368 L 378.12148214131594,-66.27787890471518 L 378.64873917400837,-66.70104612642899 L 379.2814476117492,-66.85973383160308 L 379.91415604949,-66.85973383160308 L 380.5468644872308,-66.59525431878865 L 381.33775002509356,-66.11919119628146 L 383.0776982307434,-68.97556993504986 L 382.0759098753333,-69.71611257456243 L 381.70682995021343,-70.24507160624489 L 381.4432014375925,-70.826926543843 L 381.3904757350683,-71.51457328675315 L 381.60137854516506,-72.14932411862537 L 381.91773276776075,-72.5724913449958 L 379.4396247193217,-74.05357664683834 L 379.2814476117492,-73.78909712843597 L 378.96509339660406,-73.26013808464631 L 378.38511065393686,-72.88986676745117 L 377.75240221619606,-72.73117905622348 L 377.06696808338165,-72.83697086153552 L 376.48698534816504,-72.94276266684756 L 375.85427691042423,-73.36592990066856 L 374.1143287047744,-70.50955112511292 L 374.79976284503937,-69.98059209203348 L 375.27429416775703,-69.50452896719798 L 375.5906483903527,-68.92267403565347 L 375.6433740928769,-68.28792320284992 L 375.53792268782854,-67.65317237051204 L 375.16884277015924,-67.07131743943319 L 374.64158573001623,-66.70104612642899 L 374.00887729227543,-66.48946251627058 L 373.3761688545346,-66.48946251627058 L 372.7434604167938,-66.753942030482 L 364.4655250310898,-71.88484460208565 L 363.25283385813236,-69.92769618704915 L 363.832816593349,-64.53231413010508 L 358.03298925608397,-68.12923549301922 L 352.285887606442,-71.67326099099591 L 357.3475551083684,-73.63040941627696 L 358.5075205862522,-75.53466195007786 L 350.8095679283142,-80.29529331438243 L 350.2823108881712,-80.71846055053174 L 349.9132309630513,-81.24741959339008 L 349.80777956545353,-81.88217045040801 L 349.8605052679777,-82.51692130602896 L 350.1768594831228,-83.15167216118425 L 350.6513908132911,-83.57483940059319 L 351.2840992510319,-83.83931892598048 L 351.9168076887727,-83.89221482444555 L 352.5495161265135,-83.6806312110275 L 353.49857878685,-83.25746396696195 L 355.0276241749525,-85.74357150960714 L 354.55309284478426,-86.11384284961969 L 354.078561514616,-86.48411418450996 L 353.70948158949614,-86.96017732610926 L 353.5513044819236,-87.54203228885308 L 353.5513044819236,-88.1238872515969 L 353.70948158949614,-88.70574221620336 L 368.9999355003238,-113.46102684689686 L 367.20726159214973,-116.89926095400006 L 366.15274753421545,-117.53401187248528 L 368.6308555826545,-121.50120511651039 L 371.05623792111874,-125.41550248442218 L 372.0580262839794,-124.78075155802071 L 376.5924367532134,-124.72785565629601 L 376.43425964564085,-125.15102293295786 L 376.5924367532134,-125.78577386401594 L 376.9615166708827,-126.31473297160119 L 377.43604799360037,-126.6850043530576 L 378.01603073626757,-126.89658799348399 L 378.64873917400837,-126.89658799348399 L 379.228721909225,-126.6850043530576 L 379.8614303469658,-126.26183706708252 L 381.4959271401167,-128.9066326096654 L 380.86321870982647,-129.3297999142669 L 380.4414130747318,-129.75296720024198 L 380.1777845621109,-130.33482221746817 L 380.1250588595867,-130.96957316296175 L 380.23051027208567,-131.60432410193607 L 380.59959018975496,-132.13328321371228 L 381.1268472224474,-132.5564505099319 L 381.70682995021343,-132.71513824677095 L 382.28681268543005,-132.71513824677095 L 382.86679542809725,-132.503554597497 L 383.55222956091166,-132.13328321371228 L 405.0115907341242,-118.64482597075403 L 405.38067065924406,-118.11586687061936 L 405.5388477668166,-117.53401187248528 L 405.48612206429243,-116.95215686224401 L 405.2752192467451,-116.37030185386539 L 404.9061393290758,-115.89423867408186 L 404.3788822963834,-115.57686321437359 L 403.7461738586426,-115.41817549336702 L 403.2189168334007,-115.52396730938926 L 402.5862083956599,-115.89423867408186 L 402.21712847054005,-116.10582230985165 L 400.58263166993856,-113.46102684689686 L 400.95171159505844,-113.24944321112707 L 401.58442003279924,-112.77338003180921 L 401.90077424794436,-112.2444209465757 L 402.0589513629675,-111.66256594005972 L 402.0589513629675,-111.08071094099432 L 401.84804854542017,-110.4988559433259 L 401.4789686277509,-109.7583132321015 L 403.90435096621513,-108.22433188091964 L 404.3261565938592,-108.80618687951937 L 404.6425108090043,-109.33514596289024 L 405.16976784169674,-109.70541732292622 L 405.74975057691336,-109.91700096521527 L 406.32973331213,-109.91700096521527 L 406.8569903448224,-109.59962550457567 L 407.38424737751484,-109.2822500532493 L 409.0714698731899,-111.87414957443252 L 408.4914871454239,-112.35021275561303 L 408.01695581525564,-112.93206775514409 L 407.91150441020727,-113.56681866431609 L 407.8587787076831,-114.20156957861036 L 408.01695581525564,-114.83632047940046 L 408.33331003040075,-115.36527958139777 L 408.8605670556426,-115.73555094189942 L 409.4405497983098,-115.94713458418846 L 410.0732582360506,-115.94713458418846 L 410.60051526129246,-115.73555094189942 L 411.23322369903326,-115.41817549336702 L 448.56302151829004,-91.93239246495068 L 448.93210143595934,-91.6679129358381 L 449.4066327661276,-91.29764159023762 L 449.77571269124746,-90.7686825376004 L 449.93388979882,-90.18682756926864 L 449.93388979882,-89.60497260792181 L 449.6702612861991,-89.02311764890328 L 449.3011813610792,-88.54705449007452 L 448.7739243283868,-88.22967905271798 L 448.141215890646,-88.07099134847522 L 447.5085074529052,-88.1238872515969 L 446.5594447925687,-88.70574221620336 L 444.9249479994178,-86.11384284961969 L 445.34675362706184,-85.84936332516372 L 445.7685592472553,-85.42619607411325 L 446.08491346240044,-84.89723702985793 L 446.2430905774236,-84.31538207270205 L 446.2430905774236,-83.73352712253109 L 446.03218776732683,-83.15167216118425 L 445.71583354473114,-82.56981720682234 L 448.24666730314493,-80.98294007591903 L 460.53175612539053,-73.36592990066856 L 472.8168449476361,-65.74891987768933 L 475.4004044085741,-64.21493871882558 L 475.61130721867085,-64.69100183388218 L 475.98038713634014,-65.27285675471649 L 476.5076441690326,-65.69602397177368 L 477.1403526067734,-65.85471168905497 L 477.7730610445142,-65.85471168905497 L 478.40576948970556,-65.59023216692731 L 485.3655622974038,-61.09408050077036 L 483.0983570665121,-57.550055098719895 L 485.52373940497637,-56.06896986672655 L 489.37271573394537,-55.80449035810307 L 487.1055104956031,-52.15467321360484 L 484.89103096723557,-48.50485609238967 L 482.8347285464406,-51.94308960670605 L 480.4620719105005,-53.42417482472956 L 465.38252080976963,-28.774685924872756 L 467.7551774531603,-27.29360080510378 L 471.6041537821293,-26.97622543014586 L 469.3369485512376,-23.379304446745664 L 467.1224690154195,-19.72948761889711 L 464.96071518957615,-23.061929068062454 L 462.8516870588064,-24.384326479863375 L 456.94640830904245,-14.915961121674627 L 449.7229869812727,-19.359216338489205 L 449.3011813610792,-19.835279405582696 L 449.0375528484583,-20.41713426169008 L 448.9848271384835,-21.05188501626253 L 449.14300425350666,-21.68663576990366 L 449.45935846865177,-22.215594726148993 L 449.9866154938936,-22.585866008885205 L 450.5665982365608,-22.797449592500925 L 451.14658097177744,-22.797449592500925 L 451.7265636995435,-22.532970114145428 L 452.6229006573558,-22.004011144395918 L 454.2573974505067,-24.648805966600776 L 453.41378620266914,-25.177764933090657 L 452.9919805750251,-25.600932105910033 L 452.67562635987997,-26.129891080316156 L 452.6229006573558,-26.764641838613898 L 452.78107776492834,-27.399392602033913 L 453.46651190519333,-28.615998236462474 L 450.88295245170593,-30.202875153161585 L 449.9866154938936,-28.880477716680616 L 449.45935846865177,-28.563102339860052 L 448.82665003091097,-28.40441464399919 L 448.19394159317017,-28.51020644325763 L 447.61395886540413,-28.721790028735995 L 447.0867018252611,-29.092061305884272 L 445.39947932958603,-26.288578775711358 L 445.97946206480265,-25.918307489249855 L 446.4012676849961,-25.49514032062143 L 446.770347610116,-25.019077244680375 L 446.92852471768856,-24.384326479863375 L 446.8757990151644,-23.802471626084298 L 446.66489620506763,-23.220616760663688 L 446.2430905774236,-22.74455369170755 L 445.7685592472553,-22.427178318612278 L 445.1358508169651,-22.321386522613466 L 444.5031423792243,-22.37428242340684 L 443.9231596365571,-22.691657797433436 Z " fill="none" stroke="#A0A890" stroke-width="1.0" /><path d="M 461.05901315808296,-195.07942339545116 L 465.32979510724545,-202.1674768119119 L 464.4334581568837,-205.2354402760975 L 462.5353328436613,-206.39915056061 L 464.4334581568837,-209.46711405273527 L 466.3315834701061,-212.4821816473268 L 467.9660802707076,-211.47715911222622 L 471.34052526950836,-211.9532224200666 L 474.1877132356167,-216.60806366521865 L 476.29674135893583,-215.3385614962317 L 479.77663776278496,-217.4015025231056 L 480.6202490180731,-218.72390061430633 L 482.36019721627235,-217.66598213929683 L 484.1528711244464,-216.55516773927957 L 483.30925986915827,-215.23276965785772 L 483.0983570665121,-211.10688765672967 L 490.5326812043786,-206.50494240503758 L 494.1707547158003,-208.56788337882608 L 494.9616402685642,-209.89028143603355 L 496.6488627642393,-208.8323629796505 L 498.38881096988916,-207.77444453025237 L 497.54519971460104,-206.39915056061 L 497.3342969045043,-202.2732686586678 L 498.17790815234184,-201.74430944444612 L 492.7471607327461,-193.06937842210755 L 496.17433143407106,-190.95354161318392 L 501.65780456364155,-199.73426442500204 L 503.60865557938814,-198.51765824761242 L 507.3521805033088,-200.633495089598 L 508.0376146361232,-201.74430944444612 L 510.5157226845622,-200.2103277198039 L 513.0465564355254,-198.62345008878037 L 512.3083965927362,-197.40684390394017 L 511.93931666761637,-193.38675394002348 L 523.0117143243551,-186.61607620725408 L 509.8302885442972,-165.08743764692917 L 508.5648716688156,-165.8808763907291 L 504.3995411247015,-164.50558256870136 L 503.5032041668892,-163.0244969110936 L 501.3941760510206,-164.34689481323585 L 499.2851479202509,-165.61639680387452 L 500.2342105731368,-167.15037838509306 L 499.65422784537077,-171.43494765926152 L 488.42365308105946,-178.3114169551991 L 492.9053378403187,-185.61105373408645 L 489.5836185440421,-187.67399459332228 L 485.1019337847829,-180.3214618526399 L 474.7676959708333,-186.66897212993354 L 470.6023654267192,-185.39947006525472 L 469.75875417143106,-184.0241761598736 L 466.3843091726303,-186.0871170097962 L 463.00986417382956,-188.15005786763504 L 463.9062011241913,-189.63114361837506 L 463.1680412814021,-193.80992130050436 L 461.05901315808296,-195.07942339545116 Z " fill="none" stroke="#A0A890" stroke-width="1.0" /><path d="M 529.971507139504,-161.91368267964572 L 538.9348766729236,-176.61874758126214 L 535.2440774515271,-178.84037614008412 L 532.5550665929914,-174.45001495163888 L 528.7060902640224,-168.15540081029758 L 526.2807079255581,-164.1882070689462 L 529.971507139504,-161.91368267964572 Z " fill="none" stroke="#A0A890" stroke-width="1.0" /><path d="M 50.167608700692654,-265.2723164819181 L 53.75295651704073,-271.0908688670024 L 60.29094371199608,-267.0707781165838 L 61.60908628255129,-269.2395112779923 L 62.92722886800766,-271.4082444566302 L 56.54741878807545,-275.3225433914922 L 60.18549229949713,-281.1939918641001 L 44.26232995837927,-290.97973953094333 L 40.67698214203119,-285.10829089861363 L 33.55901222676039,-289.498653375078 L 35.351686127483845,-292.40792973991483 L 34.50807487219572,-292.93688908731565 L 35.72076605260372,-294.9469345966354 L 34.29717206954956,-295.84616547916085 L 29.97366440296173,-288.8110062405467 L 25.650156751275063,-281.77584712114185 L 26.862847924232483,-281.0353040653281 L 28.022813394665718,-282.8866617111489 L 28.813698939979076,-282.41059831436723 L 30.606372840702534,-285.3198746368289 L 38.09342269599438,-280.7179284710437 L 34.50807487219572,-274.89937592856586 L 50.167608700692654,-265.2723164819181 Z " fill="none" stroke="#A0A890" stroke-width="1.0" /><path d="M 255.48149666935205,-321.7651743632741 L 260.4377127662301,-318.7501058895141 L 273.619138546288,-340.06716947443783 L 264.0230605825782,-345.99151489138603 L 264.76122042536736,-347.15522560989484 L 263.443077839911,-347.94866474624723 L 264.44486620277166,-349.48264706647024 L 264.9193975329399,-349.1652714116499 L 266.9229742512107,-352.44481983594596 L 261.59767823666334,-355.72436829982325 L 256.2196565195918,-359.00391677953303 L 254.11062838882208,-355.6185764083639 L 254.53243401646614,-355.35409668739885 L 253.79427417367697,-354.1374900052324 L 252.58158300071955,-354.8780332133174 L 251.7906974554062,-353.60853057773784 L 242.4055223017931,-359.3741883849725 L 229.2240965142846,-338.0571237169206 L 234.18031261116266,-334.98915917566046 L 233.0730728507042,-333.13780126860365 L 243.7236648797989,-326.5787047818303 L 254.374256901443,-319.9667124678381 L 255.48149666935205,-321.7651743632741 Z " fill="none" stroke="#A0A890" stroke-width="1.0" /><path d="M 438.1760580018163,-166.56852330360562 L 444.66131948679686,-177.04191492917016 L 448.19394159317017,-177.6237700190395 L 449.6702612861991,-176.7245394187048 L 451.0938552618027,-178.99906389415264 L 452.67562635987997,-181.5909638958983 L 451.1993066743016,-182.49019451299682 L 449.9866154938936,-185.92842924967408 L 462.5353328436613,-206.39915056061 L 464.4334581568837,-209.46711405273527 L 466.3315834701061,-212.4821816473268 L 470.2860112041235,-218.88258838793263 L 443.97588534653187,-235.12163736857474 L 424.1510209739208,-202.96091563999653 L 420.30204463750124,-203.01381155941635 L 419.30025628209114,-203.6485626185313 L 416.8221482411027,-199.68136850604787 L 414.3440401852131,-195.66127851651981 L 415.39855425059795,-195.0265274690464 L 417.1385024562478,-191.64118858007714 L 411.7604807317257,-182.9662577821873 L 438.1760580018163,-166.56852330360562 Z " fill="none" stroke="#A0A890" stroke-width="1.0" /><path d="M 161.8933736309409,-142.60667387675494 L 169.22224636375904,-138.11052128719166 L 163.36969330906868,-128.64215305820107 L 171.7003544047475,-123.51124970847741 L 171.278548784554,-122.82360286824405 L 167.53502386063337,-125.15102293295786 L 164.5296587869525,-120.28459918079898 L 170.6985660493374,-116.47609367920086 L 167.37684675306082,-111.08071094099432 L 211.08645463734865,-84.15669435355812 L 213.35365987569094,-87.85940772015601 L 214.24999682605267,-82.1995458798483 L 219.15348722040653,-79.1844793218188 L 221.10433823615313,-82.35823359619826 L 225.32239448279142,-79.76633426686749 L 226.6932627633214,-82.04085816256702 L 228.11685674637556,-84.31538207270205 L 224.05697760730982,-86.80148961488158 L 225.58602300286293,-89.39338897913694 L 225.16421737521887,-89.6578685157001 L 224.16242901980877,-90.39841119293123 L 223.26609206199646,-91.29764159023762 L 222.4752065166831,-92.24976790649816 L 221.8424980789423,-93.36058193864301 L 221.26251534372568,-94.8416673047468 L 220.99888683110476,-95.79379362659529 L 220.8407097235322,-97.06329539604485 L 220.78798401355743,-98.33279715664685 L 220.94616112858057,-99.60229892516509 L 221.26251534372568,-100.81890478963032 L 221.7897723764181,-102.03551065502688 L 222.42248081415892,-103.14632472302765 L 223.1606406569481,-104.15134696243331 L 224.05697760730982,-105.05057739606127 L 225.0587659701705,-105.84401601459831 L 226.16600573807955,-106.47876691771671 L 227.3259712010622,-107.00772599270567 L 228.5913880765438,-107.32510143704712 L 229.8568049520254,-107.48378917016089 L 231.12222182750702,-107.48378917016089 L 232.38763870298862,-107.32510143704712 L 233.54760417342186,-107.00772599270567 L 234.7075696438551,-106.58455872815102 L 235.81480940431356,-105.94980783341452 L 239.13652870804071,-111.34519048593938 L 238.60927167534828,-111.66256594005972 L 237.60748331993818,-112.40310867223889 L 236.7111463546753,-113.30233911424875 L 235.92026080936193,-114.30736139975488 L 235.28755237162113,-115.41817549336702 L 234.76029534637928,-116.58188549196348 L 234.4439411237836,-117.79849142208695 L 234.28576401621103,-119.06799325207248 L 234.23303831368685,-120.33749508997425 L 234.3912154212594,-121.60699693625793 L 234.76029534637928,-122.82360286824405 L 235.23482667654753,-124.04020881326869 L 235.86753511428833,-125.15102293295786 L 236.6056949570775,-126.15604523895308 L 237.50203190743923,-127.05527572939172 L 238.5038202702999,-127.84871439496055 L 239.61106003075838,-128.48346533067524 L 240.77102550119162,-128.95952852256596 L 242.03644237667322,-129.3297999142669 L 243.30185925215483,-129.48848763713613 L 244.56727612763643,-129.48848763713613 L 245.83269300311804,-129.3297999142669 L 247.04538416862488,-129.01242444105446 L 248.25807534903288,-128.53636123798788 L 249.31258940696716,-127.9016103092581 L 252.95066292583942,-133.82595239393413 L 174.5475423783064,-182.0141312489286 L 168.80044073611498,-172.75734558375552 L 163.84422463923693,-175.77241289289668 L 161.8933736309409,-172.54576192377135 L 159.9952483177185,-169.31911097560078 L 164.74056159704924,-166.40983555885032 L 159.3625398799777,-157.62911351630464 L 167.90410377830267,-152.3924179431051 L 161.8933736309409,-142.60667387675494 Z " fill="none" stroke="#A0A890" stroke-width="1.0" /><path d="M 108.27133355289698,-302.03498989203945 L 107.16409378498793,-302.7755329841748 L 106.6368367522955,-303.99213951220736 L 106.84773956984282,-305.3145379112102 L 107.79680222272873,-306.31956069823354 L 109.06221909821033,-306.63693631393835 L 110.32763597369194,-306.213768819347 L 111.17124722152948,-305.208746034652 L 111.32942432910204,-303.88634763797745 L 110.74944159388542,-302.6697411178611 L 109.58947612345219,-301.9820939549245 L 108.27133355289698,-302.03498989203945 Z " fill="#515745" stroke="#515745" stroke-width="1.0" /><path d="M 142.85939480364323,-280.7708244025707 L 141.75215503573418,-281.51136745885015 L 141.22489800304174,-282.7279739086516 L 141.43580082058907,-284.05037224199623 L 142.38486347347498,-285.0553949684836 L 143.65028034895658,-285.3727705664933 L 144.9156972169876,-284.9496030956507 L 145.75930847227573,-283.944580365438 L 145.9174855798483,-282.6221820465289 L 145.33750284463167,-281.4055755860172 L 144.17753737419844,-280.7179284710437 L 142.85939480364323,-280.7708244025707 Z " fill="#515745" stroke="#515745" stroke-width="1.0" /><path d="M 178.50197011232376,-258.87190895341337 L 177.3947303444147,-259.6124519710429 L 176.86747331172228,-260.8290583556518 L 177.0783761292696,-262.1514566014521 L 178.0274387821555,-263.1564792706631 L 179.2928556650877,-263.47385485097766 L 180.55827253311872,-263.0506874136627 L 181.40188378095627,-262.04566473467276 L 181.56006088852882,-260.7232664912008 L 180.9800781607628,-259.5066601084545 L 179.82011269032955,-258.8190130330622 L 178.50197011232376,-258.87190895341337 Z " fill="#515745" stroke="#515745" stroke-width="1.0" /><path d="M 213.51183699071407,-237.39616220165044 L 212.40459722280502,-238.13670516991988 L 211.8773401901126,-239.35331148467958 L 212.08824300020933,-240.67570964852348 L 213.03730566054583,-241.68073226464912 L 214.30272253602743,-241.9981078230776 L 215.56813941150904,-241.57494040718302 L 216.41175065934658,-240.56991780595854 L 216.56992776691914,-239.24751963699237 L 215.98994503170252,-238.0309133180417 L 214.82997956126928,-237.34326626872644 L 213.51183699071407,-237.39616220165044 Z " fill="#515745" stroke="#515745" stroke-width="1.0" /><path d="M 241.19283112883568,-282.1990145868622 L 240.08559136092663,-282.9395576454699 L 239.5583343282342,-284.15616409946233 L 239.76923714578152,-285.47856243140996 L 240.71829979866743,-286.48358515417203 L 241.98371667414904,-286.8009607619606 L 243.24913354963064,-286.377793292515 L 244.09274479746819,-285.3727705664933 L 244.25092190504074,-284.05037224199623 L 243.6709391772747,-282.83376577682793 L 242.5109736993909,-282.14611865207553 L 241.19283112883568,-282.1990145868622 Z " fill="#515745" stroke="#515745" stroke-width="1.0" /><path d="M 206.23568995296955,-303.7276598406024 L 205.1284501850605,-304.468202940654 L 204.60119315981865,-305.684809462633 L 204.8120959699154,-307.0072078681551 L 205.7611586228013,-308.0122306542471 L 207.0265754982829,-308.32960627693683 L 208.29199237376451,-307.9064387814142 L 209.13560362905264,-306.9014159911312 L 209.2937807366252,-305.5790175879374 L 208.71379800140858,-304.3624110617675 L 207.55383253097534,-303.6747638932429 L 206.23568995296955,-303.7276598406024 Z " fill="#515745" stroke="#515745" stroke-width="1.0" /><path d="M 170.54038894176483,-325.78526570182294 L 169.43314917385578,-326.5258088433184 L 168.90589214116335,-327.7424154425971 L 169.11679495871067,-329.06481392262504 L 170.06585761159658,-330.06983677949756 L 171.3312744796276,-330.38721241243184 L 172.59669135510921,-329.96404489083216 L 173.44030261039734,-328.9590220428072 L 173.5984797179699,-327.6366235706955 L 173.01849699020386,-326.4200169672258 L 171.85853151977062,-325.73236976889893 L 170.54038894176483,-325.78526570182294 Z " fill="#515745" stroke="#515745" stroke-width="1.0" /><path d="M 278.2062747180462,-260.19430719222873 L 277.5208405777812,-260.14141126163304 L 276.8881321400404,-260.3000990585424 L 276.3081494048238,-260.6703705615364 L 276.0972466021776,-260.247203128878 L 275.5699895620346,-259.77113975863904 L 274.99000683426857,-259.4537641829811 L 274.2518469840288,-259.347972325515 L 273.5664128437638,-259.4537641829811 L 272.933704406023,-259.77113975863904 L 272.3537216708064,-260.247203128878 L 272.0373674482107,-260.8819542848505 L 271.87919034063816,-261.56960136815906 L 271.9319160506129,-262.2572484612465 L 272.19554456323385,-262.89199961861596 L 272.3537216708064,-263.1035833391361 L 271.9319160506129,-263.47385485097766 L 271.56283613294363,-264.002814153675 L 271.3519333153963,-264.63756531849504 L 271.2992076128721,-265.32521241530776 L 271.51011042296886,-266.0128595093265 L 271.87919034063816,-266.5947147430852 L 272.45917308330536,-267.0178821859881 L 273.09188152104616,-267.2823618389666 L 273.77731565386057,-267.2823618389666 L 274.35729839652777,-267.1765699782409 L 274.99000683426857,-266.859194399789 L 275.2536353468895,-267.33525776909664 L 275.675440967083,-267.7584252143279 L 276.2554237097502,-268.075800802093 L 276.9408578425646,-268.18159266607836 L 277.67901768535376,-268.12869673082605 L 278.31172612309456,-267.8113211435266 L 278.838983155787,-267.33525776909664 L 279.1553373783827,-266.70050660613924 L 279.31351448595524,-266.0128595093265 L 279.20806308090687,-265.32521241530776 L 278.9971602708101,-264.8491490324959 L 278.7862574532628,-264.47887751925737 L 279.4189658910036,-264.002814153675 L 279.7880458161235,-263.47385485097766 L 279.9989486262202,-262.83910369314253 L 280.0516743287444,-262.1514566014521 L 279.84077151864767,-261.4638095186092 L 279.4716915935278,-260.8819542848505 L 278.89170886576176,-260.4058909127489 L 278.2062747180462,-260.19430719222873 Z " fill="#515745" stroke="#515745" stroke-width="1.0" /><path d="M 250.4198291748762,-215.12697781901807 L 249.7871207371354,-215.12697781901807 L 249.10168659687042,-215.2856655800715 L 248.5217038616538,-215.65593704022467 L 248.31080104410648,-215.23276965785772 L 247.78354401886463,-214.75670634629205 L 247.203561283648,-214.43933080509305 L 246.51812714338303,-214.33353896345943 L 245.77996729314327,-214.43933080509305 L 245.14725885540247,-214.70381042314693 L 244.56727612763643,-215.23276965785772 L 244.25092190504074,-215.86752073885873 L 244.09274479746819,-216.55516773927957 L 244.14547049999237,-217.2428147480823 L 244.4090990126133,-217.8775658304803 L 244.56727612763643,-218.08914952585474 L 244.14547049999237,-218.45942099485546 L 243.7763905748725,-218.98838023189455 L 243.56548777222633,-219.6231313208118 L 243.51276206225157,-220.31077833427116 L 243.7236648797989,-220.9455294199288 L 244.09274479746819,-221.58028051117435 L 244.6727275326848,-222.00344791589305 L 245.3054359704256,-222.26792752323672 L 245.9908701106906,-222.26792752323672 L 246.5708528459072,-222.16213568439707 L 247.203561283648,-221.84476013481617 L 247.46718980371952,-222.32082345802337 L 247.888995423913,-222.74399084644392 L 248.5217038616538,-223.06136640021577 L 249.1544122993946,-223.1671582418494 L 249.89257214218378,-223.11426232056692 L 250.52528057992458,-222.79688677424565 L 251.05253761261702,-222.32082345802337 L 251.3688918352127,-221.6860723583959 L 251.52706894278526,-220.9984253444709 L 251.4216175302863,-220.31077833427116 L 251.26344042271376,-219.83471501618624 L 250.99981191009283,-219.4644435448572 L 251.63252034783363,-218.98838023189455 L 252.0016002729535,-218.45942099485546 L 252.21250307559967,-217.8246699059382 L 252.26522878557444,-217.13702290365472 L 252.05432596802711,-216.44937589857727 L 251.68524605035782,-215.81462481804192 L 251.1052633151412,-215.3914574244991 L 250.4198291748762,-215.12697781901807 Z " fill="#515745" stroke="#515745" stroke-width="1.0" /><path d="M 161.9460993334651,-69.2929453579709 L 163.21151620149612,-71.35588557459414 L 161.10248807817698,-72.67828315682709 L 159.83707120269537,-70.61534292530268 L 161.9460993334651,-69.2929453579709 Z " fill="#515745" stroke="#515745" stroke-width="1.0" /><path d="M 149.29193057864904,-77.12153905816376 L 150.55734745413065,-79.1844793218188 L 148.4483193308115,-80.50687693292275 L 147.1301767528057,-78.44393665995449 L 149.29193057864904,-77.12153905816376 Z " fill="#515745" stroke="#515745" stroke-width="1.0" /><path d="M 171.7003544047475,-85.10882064793259 L 172.9657712802291,-87.1717609539628 L 170.85674316436052,-88.49415858695284 L 169.53860057890415,-86.43121827812865 L 171.7003544047475,-85.10882064793259 Z " fill="#515745" stroke="#515745" stroke-width="1.0" /><path d="M 158.94073425233364,-92.99031059490517 L 160.25887683033943,-95.05325093911961 L 158.0971230044961,-96.37564859772101 L 156.8317061290145,-94.31270825164393 L 158.94073425233364,-92.99031059490517 Z " fill="#515745" stroke="#515745" stroke-width="1.0" /><path d="M 174.44209097325802,-169.10752731049433 L 174.65299378335476,-168.84304771991447 L 174.7584451958537,-168.5785681400448 L 174.7584451958537,-168.26119263423607 L 174.65299378335476,-167.94381713680923 L 174.49481666833162,-167.67933755507693 L 174.1784624531865,-167.52064980426803 L 173.9148339405656,-167.41485796542838 L 173.5457540154457,-167.41485796542838 L 173.28212550282478,-167.5735457232222 L 173.01849699020386,-167.785129386466 L 172.8603198826313,-168.04960896773264 L 172.80759417265654,-168.36698446422815 L 172.8603198826313,-168.6843599686399 L 173.01849699020386,-169.00173547118902 L 173.22939979285002,-169.2133191432804 L 173.5457540154457,-169.31911097560078 L 173.86210823059082,-169.37200688570738 L 174.1784624531865,-169.31911097560078 L 174.44209097325802,-169.10752731049433 Z " fill="#515745" stroke="#515745" stroke-width="1.0" /><path d="M 291.3349747955799,-114.88921639183536 L 291.0186205804348,-114.14867366477847 L 290.385912142694,-113.56681866431609 L 289.6477522999048,-113.1965473019518 L 288.85686675459146,-113.14365139277652 L 288.0659812018275,-113.35523502994329 L 287.38054706156254,-113.83129820553586 L 286.95874144136906,-114.41315321391448 L 286.74783862382174,-115.15369593398646 L 286.74783862382174,-115.89423867408186 L 286.95874144136906,-116.58188549196348 L 287.38054706156254,-117.16374050313607 L 288.01325549930334,-117.63980368804187 L 288.69868963956833,-117.85138732939959 L 289.4368494823575,-117.85138732939959 L 290.1750093251467,-117.58690777374431 L 290.7549920678139,-117.16374050313607 L 291.22952339053154,-116.47609367920086 L 291.4404262006283,-115.6826550369151 L 291.3349747955799,-114.88921639183536 Z " fill="#515745" stroke="#515745" stroke-width="1.0" /><path d="M 271.7737389355898,-127.31975528225303 L 271.51011042296886,-126.63210844201967 L 271.0883048027754,-125.99735751049593 L 270.5083220601082,-125.57419022126123 L 269.770162217319,-125.36260657804087 L 269.0320023819804,-125.36260657804087 L 268.29384253174067,-125.62708613369614 L 267.71385979652405,-126.05025341548026 L 267.2393284663558,-126.73790025664493 L 267.02842566370964,-127.53133892407641 L 267.133877068758,-128.32477759057656 L 267.5029569789767,-129.06532034790143 L 268.0829397216439,-129.64717537816614 L 268.8210995644331,-130.01744675496593 L 269.61198510974646,-130.0703426655382 L 270.4028706550598,-129.85875901626423 L 271.0883048027754,-129.38269582018256 L 271.56283613294363,-128.80084079038352 L 271.7737389355898,-128.06029803305864 L 271.7737389355898,-127.31975528225303 Z " fill="#515745" stroke="#515745" stroke-width="1.0" /><path d="M 210.2955690920353,-99.91967436624691 L 210.50647190958261,-99.65519483340904 L 210.61192331463099,-99.39071529125795 L 210.61192331463099,-99.07333985017613 L 210.50647190958261,-98.75596441235393 L 210.34829480201006,-98.49148487485945 L 210.03194057941437,-98.33279715664685 L 209.76831206679344,-98.22700534155592 L 209.39923214167356,-98.22700534155592 L 209.13560362905264,-98.38569306675345 L 208.87197510898113,-98.59727668901905 L 208.71379800140858,-98.86175622511655 L 208.6610722988844,-99.17913166247308 L 208.71379800140858,-99.49650710821152 L 208.87197510898113,-99.81388255069032 L 209.08287792652845,-100.0254661818035 L 209.39923214167356,-100.13125799642876 L 209.71558636426926,-100.18415390374139 L 210.03194057941437,-100.13125799642876 L 210.2955690920353,-99.91967436624691 Z " fill="#515745" stroke="#515745" stroke-width="1.0" /><path d="M 201.06857104599476,-105.57953647756949 L 201.27947386354208,-105.36795284226537 L 201.38492526859045,-105.05057739606127 L 201.43765097111464,-104.73320195265114 L 201.33219956606627,-104.41582650598139 L 201.12129674851894,-104.15134696243331 L 200.85766823589802,-103.93976332992315 L 200.5413140207529,-103.88686742307618 L 200.22495979815722,-103.88686742307618 L 199.9086055830121,-104.04555514920503 L 199.6449770629406,-104.25713877566159 L 199.53952565789223,-104.52161831175908 L 199.48679995536804,-104.83899376355112 L 199.48679995536804,-105.15636920602992 L 199.6449770629406,-105.47374465689063 L 199.9086055830121,-105.68532829126343 L 200.17223409563303,-105.79112009843811 L 200.48858831077814,-105.84401601459831 L 200.80494253337383,-105.73822419485077 L 201.06857104599476,-105.57953647756949 Z " fill="#515745" stroke="#515745" stroke-width="1.0" /><path d="M 191.8942987024784,-111.23939867364243 L 192.10520152002573,-110.97491912730038 L 192.2106529250741,-110.71043958561495 L 192.2106529250741,-110.39306413382292 L 192.10520152002573,-110.07568868482485 L 191.94702441245317,-109.81120913522318 L 191.63067018985748,-109.65252141375095 L 191.36704166978598,-109.54672958888113 L 190.99796175211668,-109.54672958888113 L 190.73433323204517,-109.70541732292622 L 190.47070471942425,-109.91700096521527 L 190.3125276118517,-110.18148049525917 L 190.25980190187693,-110.4988559433259 L 190.3125276118517,-110.81623140024021 L 190.47070471942425,-111.13360684784129 L 190.68160753697157,-111.34519048593938 L 190.99796175211668,-111.45098230428994 L 191.31431597471237,-111.50387822277844 L 191.63067018985748,-111.45098230428994 L 191.8942987024784,-111.23939867364243 Z " fill="#515745" stroke="#515745" stroke-width="1.0" /><path d="M 182.77275206148624,-116.89926095400006 L 182.98365487903357,-116.63478140160441 L 183.08910628408194,-116.31740594375879 L 183.08910628408194,-116.00003049522638 L 182.98365487903357,-115.6826550369151 L 182.77275206148624,-115.41817549336702 L 182.50912354886532,-115.2594877644442 L 182.19276932626963,-115.15369593398646 L 181.87641511112452,-115.2065918459557 L 181.56006088852882,-115.31238366989419 L 181.34915807843208,-115.52396730938926 L 181.19098097085953,-115.8413427635096 L 181.13825526833534,-116.15871821995825 L 181.19098097085953,-116.47609367920086 L 181.2964323759079,-116.74057322042063 L 181.56006088852882,-116.95215686224401 L 181.87641511112452,-117.11084459442645 L 182.19276932626963,-117.11084459442645 L 182.50912354886532,-117.05794867966324 L 182.77275206148624,-116.89926095400006 Z " fill="#515745" stroke="#515745" stroke-width="1.0" /><path d="M 173.5457540154457,-122.55912331910804 L 173.75665683299303,-122.2946437667124 L 173.86210823059082,-121.97726830700412 L 173.86210823059082,-121.6598928370513 L 173.75665683299303,-121.3425173824653 L 173.5984797179699,-121.07803783286363 L 173.33485120534897,-120.91935010254383 L 173.01849699020386,-120.81355828000233 L 172.70214276760817,-120.86645418824628 L 172.38578855246305,-120.97224601078779 L 172.12216003239155,-121.18382965400815 L 171.9639829173684,-121.44830920360982 L 171.9112572222948,-121.76568466285244 L 171.9639829173684,-122.08306012535468 L 172.12216003239155,-122.40043558413163 L 172.3330628424883,-122.61201923061162 L 172.64941706508398,-122.77070696372539 L 172.9657712802291,-122.77070696372539 L 173.28212550282478,-122.71781104616821 L 173.5457540154457,-122.55912331910804 Z " fill="#515745" stroke="#515745" stroke-width="1.0" /><path d="M 230.01498205959797,-134.83097472088411 L 230.2258848771453,-134.56649515824392 L 230.33133628219366,-134.30201560026035 L 230.33133628219366,-133.98464012378827 L 230.2258848771453,-133.66726465011016 L 230.06770776957273,-133.4027851028368 L 229.8040792569518,-133.19120145216584 L 229.48772503435612,-133.13830554066226 L 229.171370819211,-133.13830554066226 L 228.85501659661531,-133.24409736320376 L 228.5913880765438,-133.4556810138747 L 228.43321096897125,-133.77305648336187 L 228.38048526644707,-134.0904319495894 L 228.43321096897125,-134.40780742559582 L 228.5913880765438,-134.67228698870167 L 228.80229089409113,-134.93676654342562 L 229.11864510923624,-135.04255837202072 L 229.43499933183193,-135.09545428026468 L 229.75135354697704,-134.98966246424243 L 230.01498205959797,-134.83097472088411 Z " fill="#515745" stroke="#515745" stroke-width="1.0" /><path d="M 220.78798401355743,-140.59662918141112 L 220.99888683110476,-140.33214962063357 L 221.10433823615313,-140.01477413903922 L 221.10433823615313,-139.69739866722375 L 220.99888683110476,-139.38002318516374 L 220.8407097235322,-139.11554362019524 L 220.57708121091127,-138.95685588521883 L 220.26072698831558,-138.8510640580207 L 219.94437277317047,-138.9039599779062 L 219.62801855057478,-139.00975179299712 L 219.36439003050327,-139.22133544646204 L 219.20621292293072,-139.48581501096487 L 219.15348722040653,-139.80319048510864 L 219.20621292293072,-140.12056596856564 L 219.36439003050327,-140.43794144224375 L 219.5752928480506,-140.64952509803697 L 219.83892136067152,-140.8082128292881 L 220.2080012857914,-140.8082128292881 L 220.5243555009365,-140.75531691964716 L 220.78798401355743,-140.59662918141112 Z " fill="#515745" stroke="#515745" stroke-width="1.0" /><path d="M 211.5082602724433,-146.3093878235668 L 211.71916307508945,-146.04490824462846 L 211.8246144875884,-145.72753276722506 L 211.8246144875884,-145.41015728749335 L 211.71916307508945,-145.14567771879956 L 211.5609859675169,-144.88119814824313 L 211.29735745489597,-144.66961450362578 L 210.98100323975086,-144.5638226713054 L 210.66464901715517,-144.61671858094633 L 210.34829480201006,-144.72251041326672 L 210.08466628193855,-144.93409405788407 L 209.926489174366,-145.19857363402843 L 209.8737634718418,-145.51594911050051 L 209.926489174366,-145.83332458976656 L 210.03194057941437,-146.15070007136092 L 210.2955690920353,-146.36228373693302 L 210.5591976121068,-146.52097146911547 L 210.9282775297761,-146.52097146911547 L 211.2446317523718,-146.46807555668056 L 211.5082602724433,-146.3093878235668 Z " fill="#515745" stroke="#515745" stroke-width="1.0" /><path d="M 202.228536516428,-152.0221465374343 L 202.43943933397532,-151.75766697060317 L 202.54489073902369,-151.4931873898022 L 202.54489073902369,-151.17581190215424 L 202.43943933397532,-150.8584364168346 L 202.28126222640276,-150.59395684720948 L 202.01763370633125,-150.38237319281325 L 201.70127948373556,-150.32947728037834 L 201.38492526859045,-150.32947728037834 L 201.06857104599476,-150.4352691047825 L 200.80494253337383,-150.64685276476666 L 200.64676542580128,-150.91133234044537 L 200.5940397158265,-151.2287078127265 L 200.64676542580128,-151.59897922258824 L 200.75221683084965,-151.8634588024579 L 201.01584535092115,-152.1279383613728 L 201.27947386354208,-152.23373019788414 L 201.64855378866196,-152.28662611311302 L 201.96490800380707,-152.18083428265527 L 202.228536516428,-152.0221465374343 Z " fill="#515745" stroke="#515745" stroke-width="1.0" /><path d="M 192.8960870653391,-157.68200943432748 L 193.10698987543583,-157.41752985538915 L 193.21244128793478,-157.10015436820686 L 193.21244128793478,-156.78277887124568 L 193.10698987543583,-156.46540338359773 L 192.94881276786327,-156.20092380652204 L 192.68518425524235,-156.04223606269807 L 192.36883003264666,-155.93644423410296 L 192.05247581750154,-155.98934014840052 L 191.73612159490585,-156.09513197140768 L 191.47249308228493,-156.30671563511714 L 191.31431597471237,-156.5711952112615 L 191.2615902647376,-156.88857070356607 L 191.31431597471237,-157.205946194008 L 191.47249308228493,-157.52332169236615 L 191.68339589238167,-157.73490534629673 L 191.99975010752678,-157.89359309338033 L 192.31610433012247,-157.89359309338033 L 192.63245854526758,-157.84069718187675 L 192.8960870653391,-157.68200943432748 Z " fill="#515745" stroke="#515745" stroke-width="1.0" /><path d="M 183.66908901929855,-163.500560158398 L 183.8799918293953,-163.23608057526872 L 183.98544324189425,-162.9187050871551 L 183.98544324189425,-162.601329583209 L 183.8799918293953,-162.28395408857614 L 183.66908901929855,-162.01947451289743 L 183.40546049922705,-161.8607867565006 L 183.08910628408194,-161.75499492883682 L 182.77275206148624,-161.80789084546268 L 182.45639784634113,-161.91368267964572 L 182.2454950362444,-162.1252663396299 L 182.08731792867184,-162.44264183659106 L 182.03459221869707,-162.7600173293613 L 182.08731792867184,-163.07739282539114 L 182.2454950362444,-163.3418724099174 L 182.45639784634113,-163.55345607269555 L 182.77275206148624,-163.71214381977916 L 183.08910628408194,-163.71214381977916 L 183.40546049922705,-163.65924790594727 L 183.66908901929855,-163.500560158398 Z " fill="#515745" stroke="#515745" stroke-width="1.0" /><path d="M 294.234888471663,-188.3087456212379 L 293.549454331398,-188.25584970833734 L 292.9167458936572,-188.41453746147454 L 292.3367631584406,-188.78480889834464 L 292.12586034834385,-188.3616415481083 L 291.59860330820084,-187.88557827100158 L 291.0186205804348,-187.56820275681093 L 290.2804607376456,-187.46241090772673 L 289.59502658993006,-187.56820275681093 L 288.96231815218925,-187.88557827100158 L 288.3823354244232,-188.3616415481083 L 288.0659812018275,-188.99639258068055 L 287.90780409425497,-189.6840395363979 L 287.96052980422974,-190.37168649490923 L 288.22415831685066,-191.00643754098564 L 288.3823354244232,-191.21802121400833 L 287.96052980422974,-191.5882926536724 L 287.59144987910986,-192.11725185345858 L 287.38054706156254,-192.75200289441273 L 287.32782136648893,-193.43964985758066 L 287.5387241691351,-194.1272968291305 L 287.90780409425497,-194.70915194926783 L 288.4877868294716,-195.13231932278723 L 289.1204952672124,-195.39679891755804 L 289.8059294074774,-195.39679891755804 L 290.385912142694,-195.29100707080215 L 291.0186205804348,-194.9736315482296 L 291.2822490930557,-195.44969483744353 L 291.7040547206998,-195.8728622063063 L 292.2840374559164,-196.19023772561923 L 292.9694715961814,-196.2960295691155 L 293.70763143897057,-196.2431336445734 L 294.34033987671137,-195.92575811920688 L 294.8675969019532,-195.44969483744353 L 295.1839511245489,-194.81494379788637 L 295.34212823212147,-194.1272968291305 L 295.2366768270731,-193.43964985758066 L 295.02577401697636,-192.9635865795426 L 294.8148712068796,-192.59331513848156 L 295.4475796446204,-192.11725185345858 L 295.8166595622897,-191.5882926536724 L 296.02756237238646,-190.95354161318392 L 296.0802880823612,-190.26589465560392 L 295.8693852648139,-189.57824769429862 L 295.500305339694,-188.99639258068055 L 294.920322611928,-188.5203293072991 L 294.234888471663,-188.3087456212379 Z " fill="#515745" stroke="#515745" stroke-width="1.0" /><path d="M 322.07405971735716,-233.32317588012666 L 321.38862557709217,-233.27027995232493 L 320.75591713935137,-233.42896772967651 L 320.17593441158533,-233.7992392089218 L 319.965031594038,-233.37607180792838 L 319.4377745613456,-232.90000847307965 L 318.85779182612896,-232.58263291791081 L 318.1196319833398,-232.476841065567 L 317.4341978430748,-232.58263291791081 L 316.801489405334,-232.90000847307965 L 316.2215066701174,-233.37607180792838 L 315.90515245497227,-234.01082292292267 L 315.7469753473997,-234.69846994942054 L 315.7997010499239,-235.38611699687317 L 316.0633295625448,-236.02086811279878 L 316.2215066701174,-236.23245181702077 L 315.7997010499239,-236.60272329906002 L 315.430621124804,-237.13168257148936 L 315.2197183147073,-237.76643368136138 L 315.1669926121831,-238.45408072788268 L 315.37789542227983,-239.14172777719796 L 315.7469753473997,-239.72358297137544 L 316.32695807516575,-240.1467503826134 L 316.95966651290655,-240.41123001649976 L 317.6451006606221,-240.41123001649976 L 318.22508338838816,-240.3054381669499 L 318.85779182612896,-239.98806260339916 L 319.1214203387499,-240.4641259443015 L 319.5432259738445,-240.88729336345568 L 320.12320870161057,-241.2046689176932 L 320.80864284932613,-241.31046077702194 L 321.5468026921153,-241.2575648445636 L 322.1795111298561,-240.94018928473815 L 322.70676815509796,-240.4641259443015 L 323.0231223702431,-239.82937481673434 L 323.1812994852662,-239.14172777719796 L 323.07584808021784,-238.45408072788268 L 322.8649452626705,-237.97801739210263 L 322.6540424525738,-237.60774590214714 L 323.2867508903146,-237.13168257148936 L 323.6558308079839,-236.60272329906002 L 323.8667336255312,-235.9679721831344 L 323.9194593280554,-235.28032514825463 L 323.70855651795864,-234.5926781045273 L 323.33947659283876,-234.01082292292267 L 322.75949385762215,-233.53475958527997 L 322.07405971735716,-233.32317588012666 Z " fill="#515745" stroke="#515745" stroke-width="1.0" /><path d="M 521.7990231513977,-136.25916435103863 L 523.1171657368541,-138.32210493413731 L 520.9554119110107,-139.64450275478885 L 519.6899950355291,-137.5815621628426 L 521.7990231513977,-136.25916435103863 Z " fill="#515745" stroke="#515745" stroke-width="1.0" /><path d="M 516.2100986242294,-127.05527572939172 L 517.5282412022352,-129.11821626033634 L 515.3664873689413,-130.44061404373497 L 514.1010704934597,-128.37767351046205 L 516.2100986242294,-127.05527572939172 Z " fill="#515745" stroke="#515745" stroke-width="1.0" /><path d="M 509.3030315116048,-115.94713458418846 L 510.62117409706116,-118.01007505133748 L 508.4594202712178,-119.3324728012085 L 507.1940033957362,-117.26953231357038 L 509.3030315116048,-115.94713458418846 Z " fill="#515745" stroke="#515745" stroke-width="1.0" /><path d="M 502.4486901089549,-104.73320195265114 L 503.7668326869607,-106.7961423676461 L 501.6050788536668,-108.11854007001966 L 500.3396619781852,-106.0555996526964 L 502.4486901089549,-104.73320195265114 Z " fill="#515745" stroke="#515745" stroke-width="1.0" /><path d="M 495.594348706305,-93.62506147148088 L 496.91249127686024,-95.68800181522965 L 494.7507374510169,-97.01039948360994 L 493.4853205755353,-94.94745912449434 L 495.594348706305,-93.62506147148088 Z " fill="#515745" stroke="#515745" stroke-width="1.0" /><path d="M 482.04384299367666,-166.8330028820783 L 483.36198557913303,-168.89594363700598 L 481.2002317532897,-170.21834156149998 L 479.9348148778081,-168.15540081029758 L 482.04384299367666,-166.8330028820783 Z " fill="#515745" stroke="#515745" stroke-width="1.0" /><path d="M 468.3878858909011,-175.34924555802718 L 469.7060284689069,-177.41218635020778 L 467.54427463561296,-178.73458429798484 L 466.27885776013136,-176.67164349695668 L 468.3878858909011,-175.34924555802718 Z " fill="#515745" stroke="#515745" stroke-width="1.0" /><path d="M -16.63585714995861,-160.80286845145747 L -87.7628306671977,-46.6534996079281 " fill="none" opacity="0.4" stroke="#000000" stroke-width="1.5" /><text fill="#888" font-family="Helvetica" font-size="10.0" opacity="0.7" stroke="#fff" stroke-linejoin="round" stroke-width="3.0" text-anchor="end" x="584.0" y="385.0">Rendering: Map Machine</text><text fill="#888" font-family="Helvetica" font-size="10.0" opacity="1.0" stroke="none" stroke-linejoin="round" stroke-width="1.0" text-anchor="end" x="584.0" y="385.0">Rendering: Map Machine</text><text fill="#888" font-family="Helvetica" font-size="10.0" opacity="0.7" stroke="#fff" stroke-linejoin="round" stroke-width="3.0" text-anchor="end" x="584.0" y="373.0">Data:  OpenStreetMap contributors</text><text fill="#888" font-family="Helvetica" font-size="10.0" opacity="1.0" stroke="none" stroke-linejoin="round" stroke-width="1.0" text-anchor="end" x="584.0" y="373.0">Data:  OpenStreetMap contributors</text></svg>