<?xml version="1.0" encoding="utf-8" ?>
<svg baseProfile="full" height="331.0" version="1.1" width="458.0" xmlns="http://www.w3.org/2000/svg" xmlns:ev="http://www.w3.org/2001/xml-events" xmlns:xlink="http://www.w3.org/1999/xlink"><rect fill="white" height="331.0" width="458.0" x="0" y="0" /><defs /><text font-family="JetBrains Mono,Fira Code,Fira Mono,ui-monospace,SFMono-regular,SF Mono,Menlo,Consolas,Liberation Mono,monospace" font-size="10.0" font-weight="bold" text-anchor="end" x="156.0" y="109.0">tower:construction=*</text><text font-family="JetBrains Mono,Fira Code,Fira Mono,ui-monospace,SFMono-regular,SF Mono,Menlo,Consolas,Liberation Mono,monospace" font-size="10.0" font-weight="normal" text-anchor="end" x="186.0" y="149.0">freestanding</text><text font-family="JetBrains Mono,Fira Code,Fira Mono,ui-monospace,SFMono-regular,SF Mono,Menlo,Consolas,Liberation Mono,monospace" font-size="10.0" font-weight="normal" text-anchor="end" x="186.0" y="197.0">lattice</text><text font-family="JetBrains Mono,Fira Code,Fira Mono,ui-monospace,SFMono-regular,SF Mono,Menlo,Consolas,Liberation Mono,monospace" font-size="10.0" font-weight="normal" text-anchor="end" x="186.0" y="245.0">guyed_tube</text><text font-family="JetBrains Mono,Fira Code,Fira Mono,ui-monospace,SFMono-regular,SF Mono,Menlo,Consolas,Liberation Mono,monospace" font-size="10.0" font-weight="normal" text-anchor="end" x="186.0" y="293.0">guyed_lattice</text><text font-family="JetBrains Mono,Fira Code,Fira Mono,ui-monospace,SFMono-regular,SF Mono,Menlo,Consolas,Liberation Mono,monospace" font-size="10.0" font-weight="bold" text-anchor="end" x="186.0" y="79.0">tower:type=*</text><text font-family="JetBrains Mono,Fira Code,Fira Mono,ui-monospace,SFMono-regular,SF Mono,Menlo,Consolas,Liberation Mono,monospace" font-size="10.0" font-weight="normal" text-anchor="start" transform="rotate(270,228.0,107.0)" x="228.0" y="107.0" /><text font-family="JetBrains Mono,Fira Code,Fira Mono,ui-monospace,SFMono-regular,SF Mono,Menlo,Consolas,Liberation Mono,monospace" font-size="10.0" font-weight="normal" text-anchor="start" transform="rotate(270,276.0,107.0)" x="276.0" y="107.0">communication</text><text font-family="JetBrains Mono,Fira Code,Fira Mono,ui-monospace,SFMono-regular,SF Mono,Menlo,Consolas,Liberation Mono,monospace" font-size="10.0" font-weight="normal" text-anchor="start" transform="rotate(270,324.0,107.0)" x="324.0" y="107.0">lighting</text><text font-family="JetBrains Mono,Fira Code,Fira Mono,ui-monospace,SFMono-regular,SF Mono,Menlo,Consolas,Liberation Mono,monospace" font-size="10.0" font-weight="normal" text-anchor="start" transform="rotate(270,372.0,107.0)" x="372.0" y="107.0">monitoring</text><text font-family="JetBrains Mono,Fira Code,Fira Mono,ui-monospace,SFMono-regular,SF Mono,Menlo,Consolas,Liberation Mono,monospace" font-size="10.0" font-weight="normal" text-anchor="start" transform="rotate(270,420.0,107.0)" x="420.0" y="107.0">siren</text><line stroke="black" stroke-width="0.5" x1="186.0" x2="171.0" y1="107.0" y2="92.0" /><rect fill="#FEA" height="192.0" width="240.0" x="202.0" y="123.0" /><g opacity="1.0"><path d="m 343.5,274 c -0.277,0 -0.5,0.223 -0.5,0.5 V 285 h -0.5 c -0.277,0 -0.5,0.223 -0.5,0.5 0,0.277 0.223,0.5 0.5,0.5 h 1 1 1 c 0.277,0 0.5,-0.223 0.5,-0.5 0,-0.277 -0.223,-0.5 -0.5,-0.5 H 345 v -10.5 c 0,-0.277 -0.223,-0.5 -0.5,-0.5 z" fill="#444" transform="translate(226.0,147.0) scale(2.0,2.0) translate(-344.0,-280.0)" /></g><g opacity="1.0"><path d="m 343.5,274 c -0.277,0 -0.5,0.223 -0.5,0.5 V 285 h -0.5 c -0.277,0 -0.5,0.223 -0.5,0.5 0,0.277 0.223,0.5 0.5,0.5 h 1 1 1 c 0.277,0 0.5,-0.223 0.5,-0.5 0,-0.277 -0.223,-0.5 -0.5,-0.5 H 345 v -10.5 c 0,-0.277 -0.223,-0.5 -0.5,-0.5 z" fill="#444" transform="translate(274.0,147.0) scale(2.0,2.0) translate(-344.0,-280.0)" /><path d="m 167.38477,340.87305 a 0.50005,0.50005 0 0 0 -0.35938,0.15234 C 166.36915,341.68163 166,342.57193 166,343.5 c 0,0.92807 0.36915,1.81837 1.02539,2.47461 a 0.50005,0.50005 0 1 0 0.70703,-0.70703 C 167.26345,344.7986 167,344.16323 167,343.5 c 0,-0.66323 0.26345,-1.2986 0.73242,-1.76758 a 0.50005,0.50005 0 0 0 -0.34765,-0.85937 z m 1.41406,1.41406 a 0.50005,0.50005 0 0 0 -0.35938,0.15234 C 168.15828,342.72062 168,343.10237 168,343.5 c 0,0.39763 0.15828,0.77938 0.43945,1.06055 a 0.50005,0.50005 0 1 0 0.70703,-0.70703 C 169.0526,343.75961 169,343.6328 169,343.5 c 0,-0.1328 0.0526,-0.25961 0.14648,-0.35352 a 0.50005,0.50005 0 0 0 -0.34765,-0.85937 z" fill="#444" transform="translate(268.0,141.0) scale(2.0,2.0) translate(-168.0,-344.0)" /><path d="m 184.61523,340.87305 a 0.50005,0.50005 0 0 0 -0.34765,0.85937 C 184.73655,342.2014 185,342.83677 185,343.5 c 0,0.66323 -0.26345,1.2986 -0.73242,1.76758 a 0.50005,0.50005 0 1 0 0.70703,0.70703 C 185.63085,345.31837 186,344.42807 186,343.5 c 0,-0.92807 -0.36915,-1.81837 -1.02539,-2.47461 a 0.50005,0.50005 0 0 0 -0.35938,-0.15234 z m -1.41406,1.41406 a 0.50005,0.50005 0 0 0 -0.34765,0.85937 C 182.94742,343.24038 183,343.3672 183,343.5 c 0,0.1328 -0.0526,0.25961 -0.14648,0.35352 a 0.50005,0.50005 0 1 0 0.70703,0.70703 C 183.84172,344.27938 184,343.89763 184,343.5 c 0,-0.39763 -0.15828,-0.77938 -0.43945,-1.06055 a 0.50005,0.50005 0 0 0 -0.35938,-0.15234 z" fill="#444" transform="translate(280.0,141.0) scale(2.0,2.0) translate(-184.0,-344.0)" /></g><g opacity="1.0"><path d="m 343.5,274 c -0.277,0 -0.5,0.223 -0.5,0.5 V 285 h -0.5 c -0.277,0 -0.5,0.223 -0.5,0.5 0,0.277 0.223,0.5 0.5,0.5 h 1 1 1 c 0.277,0 0.5,-0.223 0.5,-0.5 0,-0.277 -0.223,-0.5 -0.5,-0.5 H 345 v -10.5 c 0,-0.277 -0.223,-0.5 -0.5,-0.5 z" fill="#444" transform="translate(322.0,147.0) scale(2.0,2.0) translate(-344.0,-280.0)" /><path d="m 198.48242,340.99609 a 0.50005,0.50005 0 0 0 -0.20508,0.95118 l 2,1 a 0.50005,0.50005 0 1 0 0.44532,-0.89454 l -2,-1 a 0.50005,0.50005 0 0 0 -0.24024,-0.0566 z m 2.01953,3 a 0.50005,0.50005 0 0 0 -0.22461,0.0566 l -2,1 a 0.50005,0.50005 0 1 0 0.44532,0.89454 l 2,-1 a 0.50005,0.50005 0 0 0 -0.22071,-0.95118 z" fill="#444" transform="translate(316.0,141.0) scale(2.0,2.0) translate(-200.0,-344.0)" /><path d="m 217.50195,340.99609 a 0.50005,0.50005 0 0 0 -0.22461,0.0566 l -2,1 a 0.50005,0.50005 0 1 0 0.44532,0.89454 l 2,-1 a 0.50005,0.50005 0 0 0 -0.22071,-0.95118 z m -2.01953,3 a 0.50005,0.50005 0 0 0 -0.20508,0.95118 l 2,1 a 0.50005,0.50005 0 1 0 0.44532,-0.89454 l -2,-1 a 0.50005,0.50005 0 0 0 -0.24024,-0.0566 z" fill="#444" transform="translate(328.0,141.0) scale(2.0,2.0) translate(-216.0,-344.0)" /></g><g opacity="1.0"><path d="m 343.5,274 c -0.277,0 -0.5,0.223 -0.5,0.5 V 285 h -0.5 c -0.277,0 -0.5,0.223 -0.5,0.5 0,0.277 0.223,0.5 0.5,0.5 h 1 1 1 c 0.277,0 0.5,-0.223 0.5,-0.5 0,-0.277 -0.223,-0.5 -0.5,-0.5 H 345 v -10.5 c 0,-0.277 -0.223,-0.5 -0.5,-0.5 z" fill="#444" transform="translate(370.0,147.0) scale(2.0,2.0) translate(-344.0,-280.0)" /><path d="m 279.44531,340.2168 c 0.88956,0.41378 1.30157,1.44686 1.22461,2.57617 0,6.7e-4 0,10e-4 0,0.002 -0.0176,0.25084 -0.0917,0.50232 -0.15429,0.75391 0.36408,0.28114 1.54689,1.19605 2.19531,1.49804 0.57772,0.29067 0.17247,1.1612 -0.42188,0.90625 -0.64743,-0.30153 -2.10621,-0.61837 -2.55859,-0.71679 -0.15283,0.2097 -0.29738,0.42885 -0.47852,0.60351 -0.81464,0.78613 -1.87216,1.13653 -2.76172,0.72266 -0.25015,-0.11659 -0.35854,-0.4138 -0.24218,-0.66406 l 1.26562,-2.72071 1.26758,-2.71875 c 0.11659,-0.25015 0.4138,-0.35854 0.66406,-0.24218 z" fill="#444" transform="translate(364.0,141.0) scale(2.0,2.0) translate(-280.0,-344.0)" /><path d="m 296.55469,340.2168 c -0.88956,0.41378 -1.30157,1.44686 -1.22461,2.57617 0,6.7e-4 0,10e-4 0,0.002 0.0176,0.25084 0.0917,0.50232 0.15429,0.75391 -0.36408,0.28114 -1.54689,1.19605 -2.19531,1.49804 -0.57772,0.29067 -0.17247,1.1612 0.42188,0.90625 0.64743,-0.30153 2.10621,-0.61837 2.55859,-0.71679 0.15283,0.2097 0.29738,0.42885 0.47852,0.60351 0.81464,0.78613 1.87216,1.13653 2.76172,0.72266 0.25015,-0.11659 0.35854,-0.4138 0.24218,-0.66406 l -1.26562,-2.72071 -1.26758,-2.71875 c -0.11659,-0.25015 -0.4138,-0.35854 -0.66406,-0.24218 z" fill="#444" transform="translate(376.0,141.0) scale(2.0,2.0) translate(-296.0,-344.0)" /></g><g opacity="1.0"><path d="m 343.5,274 c -0.277,0 -0.5,0.223 -0.5,0.5 V 285 h -0.5 c -0.277,0 -0.5,0.223 -0.5,0.5 0,0.277 0.223,0.5 0.5,0.5 h 1 1 1 c 0.277,0 0.5,-0.223 0.5,-0.5 0,-0.277 -0.223,-0.5 -0.5,-0.5 H 345 v -10.5 c 0,-0.277 -0.223,-0.5 -0.5,-0.5 z" fill="#444" transform="translate(418.0,147.0) scale(2.0,2.0) translate(-344.0,-280.0)" /><path d="m 230.47461,341 c -0.0825,0.004 -0.1642,0.0284 -0.23828,0.0742 -0.19729,0.12214 -0.28463,0.36396 -0.21094,0.58398 0.47892,1.43676 0.47892,2.24684 0,3.6836 -0.1672,0.5008 0.45504,0.8853 0.82813,0.51172 C 232.31423,344.3928 233.11111,344 234.5,344 a 0.5,0.5 0 0 0 0.5,-0.5 0.5,0.5 0 0 0 -0.5,-0.5 c -1.38889,0 -2.18577,-0.3928 -3.64648,-1.85352 -0.10249,-0.10282 -0.24137,-0.15307 -0.37891,-0.14648 z" fill="#444" transform="translate(412.0,141.0) scale(2.0,2.0) translate(-232.0,-344.0)" /><path d="m 249.49609,341.00195 c -0.13051,6.3e-4 -0.256,0.0515 -0.34961,0.14453 -1.45158,1.4516 -2.24818,1.84862 -3.62109,1.85352 -0.009,3e-5 -0.0167,0 -0.0254,0 a 0.5,0.5 0 0 0 -0.5,0.5 0.5,0.5 0 0 0 0.5,0.5 c 1.38889,0 2.18577,0.3928 3.64648,1.85352 0.37309,0.37358 0.99533,-0.0109 0.82813,-0.51172 -0.47892,-1.43676 -0.47892,-2.24684 0,-3.6836 0.10014,-0.30272 -0.10481,-0.62058 -0.42188,-0.65429 -0.0187,-0.002 -0.038,-0.002 -0.0566,-0.002 z" fill="#444" transform="translate(424.0,141.0) scale(2.0,2.0) translate(-248.0,-344.0)" /></g><g opacity="1.0"><path d="m 374.49219,273.99219 a 0.50005,0.50005 0 0 0 -0.0488,0.004 0.50005,0.50005 0 0 0 -0.0605,0.01 0.50005,0.50005 0 0 0 -0.38281,0.5625 v 3.93164 0.92969 a 0.50005,0.50005 0 0 0 0,0.1582 v 0.83789 a 0.50005,0.50005 0 0 0 0,0.14258 v 0.93164 3.92969 a 0.50005,0.50005 0 0 0 0.45508,0.57617 0.50005,0.50005 0 0 0 0.0527,0.002 0.50005,0.50005 0 0 0 0.0488,-0.004 0.50005,0.50005 0 0 0 0.33984,-0.19141 0.50005,0.50005 0 0 0 0.004,-0.006 L 376,284.70703 V 285.5 a 0.50005,0.50005 0 1 0 1,0 v -1.94336 a 0.50005,0.50005 0 0 0 0,-0.12305 v -0.83984 a 0.50005,0.50005 0 0 0 0,-0.16797 V 281.5 v -3 -0.94336 a 0.50005,0.50005 0 0 0 0,-0.12305 v -0.83984 a 0.50005,0.50005 0 0 0 0,-0.16797 V 274.5 A 0.50005,0.50005 0 0 0 376.49219,273.99219 0.50005,0.50005 0 0 0 376,274.5 v 0.79297 l -1.10156,-1.10156 a 0.50005,0.50005 0 0 0 -0.40625,-0.19922 z m 0.50781,1.71484 1,1 v 0.58594 l -1,1 z m 1,3 v 2.58594 l -1,-1 v -0.58594 z m -1,3 1,1 v 0.58594 l -1,1 z" fill="#444" transform="translate(226.0,195.0) scale(2.0,2.0) translate(-376.0,-280.0)" /></g><g opacity="1.0"><path d="m 374.49219,273.99219 a 0.50005,0.50005 0 0 0 -0.0488,0.004 0.50005,0.50005 0 0 0 -0.0605,0.01 0.50005,0.50005 0 0 0 -0.38281,0.5625 v 3.93164 0.92969 a 0.50005,0.50005 0 0 0 0,0.1582 v 0.83789 a 0.50005,0.50005 0 0 0 0,0.14258 v 0.93164 3.92969 a 0.50005,0.50005 0 0 0 0.45508,0.57617 0.50005,0.50005 0 0 0 0.0527,0.002 0.50005,0.50005 0 0 0 0.0488,-0.004 0.50005,0.50005 0 0 0 0.33984,-0.19141 0.50005,0.50005 0 0 0 0.004,-0.006 L 376,284.70703 V 285.5 a 0.50005,0.50005 0 1 0 1,0 v -1.94336 a 0.50005,0.50005 0 0 0 0,-0.12305 v -0.83984 a 0.50005,0.50005 0 0 0 0,-0.16797 V 281.5 v -3 -0.94336 a 0.50005,0.50005 0 0 0 0,-0.12305 v -0.83984 a 0.50005,0.50005 0 0 0 0,-0.16797 V 274.5 A 0.50005,0.50005 0 0 0 376.49219,273.99219 0.50005,0.50005 0 0 0 376,274.5 v 0.79297 l -1.10156,-1.10156 a 0.50005,0.50005 0 0 0 -0.40625,-0.19922 z m 0.50781,1.71484 1,1 v 0.58594 l -1,1 z m 1,3 v 2.58594 l -1,-1 v -0.58594 z m -1,3 1,1 v 0.58594 l -1,1 z" fill="#444" transform="translate(274.0,195.0) scale(2.0,2.0) translate(-376.0,-280.0)" /><path d="m 167.38477,340.87305 a 0.50005,0.50005 0 0 0 -0.35938,0.15234 C 166.36915,341.68163 166,342.57193 166,343.5 c 0,0.92807 0.36915,1.81837 1.02539,2.47461 a 0.50005,0.50005 0 1 0 0.70703,-0.70703 C 167.26345,344.7986 167,344.16323 167,343.5 c 0,-0.66323 0.26345,-1.2986 0.73242,-1.76758 a 0.50005,0.50005 0 0 0 -0.34765,-0.85937 z m 1.41406,1.41406 a 0.50005,0.50005 0 0 0 -0.35938,0.15234 C 168.15828,342.72062 168,343.10237 168,343.5 c 0,0.39763 0.15828,0.77938 0.43945,1.06055 a 0.50005,0.50005 0 1 0 0.70703,-0.70703 C 169.0526,343.75961 169,343.6328 169,343.5 c 0,-0.1328 0.0526,-0.25961 0.14648,-0.35352 a 0.50005,0.50005 0 0 0 -0.34765,-0.85937 z" fill="#444" transform="translate(266.0,189.0) scale(2.0,2.0) translate(-168.0,-344.0)" /><path d="m 184.61523,340.87305 a 0.50005,0.50005 0 0 0 -0.34765,0.85937 C 184.73655,342.2014 185,342.83677 185,343.5 c 0,0.66323 -0.26345,1.2986 -0.73242,1.76758 a 0.50005,0.50005 0 1 0 0.70703,0.70703 C 185.63085,345.31837 186,344.42807 186,343.5 c 0,-0.92807 -0.36915,-1.81837 -1.02539,-2.47461 a 0.50005,0.50005 0 0 0 -0.35938,-0.15234 z m -1.41406,1.41406 a 0.50005,0.50005 0 0 0 -0.34765,0.85937 C 182.94742,343.24038 183,343.3672 183,343.5 c 0,0.1328 -0.0526,0.25961 -0.14648,0.35352 a 0.50005,0.50005 0 1 0 0.70703,0.70703 C 183.84172,344.27938 184,343.89763 184,343.5 c 0,-0.39763 -0.15828,-0.77938 -0.43945,-1.06055 a 0.50005,0.50005 0 0 0 -0.35938,-0.15234 z" fill="#444" transform="translate(280.0,189.0) scale(2.0,2.0) translate(-184.0,-344.0)" /></g><g opacity="1.0"><path d="m 374.49219,273.99219 a 0.50005,0.50005 0 0 0 -0.0488,0.004 0.50005,0.50005 0 0 0 -0.0605,0.01 0.50005,0.50005 0 0 0 -0.38281,0.5625 v 3.93164 0.92969 a 0.50005,0.50005 0 0 0 0,0.1582 v 0.83789 a 0.50005,0.50005 0 0 0 0,0.14258 v 0.93164 3.92969 a 0.50005,0.50005 0 0 0 0.45508,0.57617 0.50005,0.50005 0 0 0 0.0527,0.002 0.50005,0.50005 0 0 0 0.0488,-0.004 0.50005,0.50005 0 0 0 0.33984,-0.19141 0.50005,0.50005 0 0 0 0.004,-0.006 L 376,284.70703 V 285.5 a 0.50005,0.50005 0 1 0 1,0 v -1.94336 a 0.50005,0.50005 0 0 0 0,-0.12305 v -0.83984 a 0.50005,0.50005 0 0 0 0,-0.16797 V 281.5 v -3 -0.94336 a 0.50005,0.50005 0 0 0 0,-0.12305 v -0.83984 a 0.50005,0.50005 0 0 0 0,-0.16797 V 274.5 A 0.50005,0.50005 0 0 0 376.49219,273.99219 0.50005,0.50005 0 0 0 376,274.5 v 0.79297 l -1.10156,-1.10156 a 0.50005,0.50005 0 0 0 -0.40625,-0.19922 z m 0.50781,1.71484 1,1 v 0.58594 l -1,1 z m 1,3 v 2.58594 l -1,-1 v -0.58594 z m -1,3 1,1 v 0.58594 l -1,1 z" fill="#444" transform="translate(322.0,195.0) scale(2.0,2.0) translate(-376.0,-280.0)" /><path d="m 198.48242,340.99609 a 0.50005,0.50005 0 0 0 -0.20508,0.95118 l 2,1 a 0.50005,0.50005 0 1 0 0.44532,-0.89454 l -2,-1 a 0.50005,0.50005 0 0 0 -0.24024,-0.0566 z m 2.01953,3 a 0.50005,0.50005 0 0 0 -0.22461,0.0566 l -2,1 a 0.50005,0.50005 0 1 0 0.44532,0.89454 l 2,-1 a 0.50005,0.50005 0 0 0 -0.22071,-0.95118 z" fill="#444" transform="translate(314.0,189.0) scale(2.0,2.0) translate(-200.0,-344.0)" /><path d="m 217.50195,340.99609 a 0.50005,0.50005 0 0 0 -0.22461,0.0566 l -2,1 a 0.50005,0.50005 0 1 0 0.44532,0.89454 l 2,-1 a 0.50005,0.50005 0 0 0 -0.22071,-0.95118 z m -2.01953,3 a 0.50005,0.50005 0 0 0 -0.20508,0.95118 l 2,1 a 0.50005,0.50005 0 1 0 0.44532,-0.89454 l -2,-1 a 0.50005,0.50005 0 0 0 -0.24024,-0.0566 z" fill="#444" transform="translate(328.0,189.0) scale(2.0,2.0) translate(-216.0,-344.0)" /></g><g opacity="1.0"><path d="m 374.49219,273.99219 a 0.50005,0.50005 0 0 0 -0.0488,0.004 0.50005,0.50005 0 0 0 -0.0605,0.01 0.50005,0.50005 0 0 0 -0.38281,0.5625 v 3.93164 0.92969 a 0.50005,0.50005 0 0 0 0,0.1582 v 0.83789 a 0.50005,0.50005 0 0 0 0,0.14258 v 0.93164 3.92969 a 0.50005,0.50005 0 0 0 0.45508,0.57617 0.50005,0.50005 0 0 0 0.0527,0.002 0.50005,0.50005 0 0 0 0.0488,-0.004 0.50005,0.50005 0 0 0 0.33984,-0.19141 0.50005,0.50005 0 0 0 0.004,-0.006 L 376,284.70703 V 285.5 a 0.50005,0.50005 0 1 0 1,0 v -1.94336 a 0.50005,0.50005 0 0 0 0,-0.12305 v -0.83984 a 0.50005,0.50005 0 0 0 0,-0.16797 V 281.5 v -3 -0.94336 a 0.50005,0.50005 0 0 0 0,-0.12305 v -0.83984 a 0.50005,0.50005 0 0 0 0,-0.16797 V 274.5 A 0.50005,0.50005 0 0 0 376.49219,273.99219 0.50005,0.50005 0 0 0 376,274.5 v 0.79297 l -1.10156,-1.10156 a 0.50005,0.50005 0 0 0 -0.40625,-0.19922 z m 0.50781,1.71484 1,1 v 0.58594 l -1,1 z m 1,3 v 2.58594 l -1,-1 v -0.58594 z m -1,3 1,1 v 0.58594 l -1,1 z" fill="#444" transform="translate(370.0,195.0) scale(2.0,2.0) translate(-376.0,-280.0)" /><path d="m 279.44531,340.2168 c 0.88956,0.41378 1.30157,1.44686 1.22461,2.57617 0,6.7e-4 0,10e-4 0,0.002 -0.0176,0.25084 -0.0917,0.50232 -0.15429,0.75391 0.36408,0.28114 1.54689,1.19605 2.19531,1.49804 0.57772,0.29067 0.17247,1.1612 -0.42188,0.90625 -0.64743,-0.30153 -2.10621,-0.61837 -2.55859,-0.71679 -0.15283,0.2097 -0.29738,0.42885 -0.47852,0.60351 -0.81464,0.78613 -1.87216,1.13653 -2.76172,0.72266 -0.25015,-0.11659 -0.35854,-0.4138 -0.24218,-0.66406 l 1.26562,-2.72071 1.26758,-2.71875 c 0.11659,-0.25015 0.4138,-0.35854 0.66406,-0.24218 z" fill="#444" transform="translate(362.0,189.0) scale(2.0,2.0) translate(-280.0,-344.0)" /><path d="m 296.55469,340.2168 c -0.88956,0.41378 -1.30157,1.44686 -1.22461,2.57617 0,6.7e-4 0,10e-4 0,0.002 0.0176,0.25084 0.0917,0.50232 0.15429,0.75391 -0.36408,0.28114 -1.54689,1.19605 -2.19531,1.49804 -0.57772,0.29067 -0.17247,1.1612 0.42188,0.90625 0.64743,-0.30153 2.10621,-0.61837 2.55859,-0.71679 0.15283,0.2097 0.29738,0.42885 0.47852,0.60351 0.81464,0.78613 1.87216,1.13653 2.76172,0.72266 0.25015,-0.11659 0.35854,-0.4138 0.24218,-0.66406 l -1.26562,-2.72071 -1.26758,-2.71875 c -0.11659,-0.25015 -0.4138,-0.35854 -0.66406,-0.24218 z" fill="#444" transform="translate(376.0,189.0) scale(2.0,2.0) translate(-296.0,-344.0)" /></g><g opacity="1.0"><path d="m 374.49219,273.99219 a 0.50005,0.50005 0 0 0 -0.0488,0.004 0.50005,0.50005 0 0 0 -0.0605,0.01 0.50005,0.50005 0 0 0 -0.38281,0.5625 v 3.93164 0.92969 a 0.50005,0.50005 0 0 0 0,0.1582 v 0.83789 a 0.50005,0.50005 0 0 0 0,0.14258 v 0.93164 3.92969 a 0.50005,0.50005 0 0 0 0.45508,0.57617 0.50005,0.50005 0 0 0 0.0527,0.002 0.50005,0.50005 0 0 0 0.0488,-0.004 0.50005,0.50005 0 0 0 0.33984,-0.19141 0.50005,0.50005 0 0 0 0.004,-0.006 L 376,284.70703 V 285.5 a 0.50005,0.50005 0 1 0 1,0 v -1.94336 a 0.50005,0.50005 0 0 0 0,-0.12305 v -0.83984 a 0.50005,0.50005 0 0 0 0,-0.16797 V 281.5 v -3 -0.94336 a 0.50005,0.50005 0 0 0 0,-0.12305 v -0.83984 a 0.50005,0.50005 0 0 0 0,-0.16797 V 274.5 A 0.50005,0.50005 0 0 0 376.49219,273.99219 0.50005,0.50005 0 0 0 376,274.5 v 0.79297 l -1.10156,-1.10156 a 0.50005,0.50005 0 0 0 -0.40625,-0.19922 z m 0.50781,1.71484 1,1 v 0.58594 l -1,1 z m 1,3 v 2.58594 l -1,-1 v -0.58594 z m -1,3 1,1 v 0.58594 l -1,1 z" fill="#444" transform="translate(418.0,195.0) scale(2.0,2.0) translate(-376.0,-280.0)" /><path d="m 230.47461,341 c -0.0825,0.004 -0.1642,0.0284 -0.23828,0.0742 -0.19729,0.12214 -0.28463,0.36396 -0.21094,0.58398 0.47892,1.43676 0.47892,2.24684 0,3.6836 -0.1672,0.5008 0.45504,0.8853 0.82813,0.51172 C 232.31423,344.3928 233.11111,344 234.5,344 a 0.5,0.5 0 0 0 0.5,-0.5 0.5,0.5 0 0 0 -0.5,-0.5 c -1.38889,0 -2.18577,-0.3928 -3.64648,-1.85352 -0.10249,-0.10282 -0.24137,-0.15307 -0.37891,-0.14648 z" fill="#444" transform="translate(410.0,189.0) scale(2.0,2.0) translate(-232.0,-344.0)" /><path d="m 249.49609,341.00195 c -0.13051,6.3e-4 -0.256,0.0515 -0.34961,0.14453 -1.45158,1.4516 -2.24818,1.84862 -3.62109,1.85352 -0.009,3e-5 -0.0167,0 -0.0254,0 a 0.5,0.5 0 0 0 -0.5,0.5 0.5,0.5 0 0 0 0.5,0.5 c 1.38889,0 2.18577,0.3928 3.64648,1.85352 0.37309,0.37358 0.99533,-0.0109 0.82813,-0.51172 -0.47892,-1.43676 -0.47892,-2.24684 0,-3.6836 0.10014,-0.30272 -0.10481,-0.62058 -0.42188,-0.65429 -0.0187,-0.002 -0.038,-0.002 -0.0566,-0.002 z" fill="#444" transform="translate(424.0,189.0) scale(2.0,2.0) translate(-248.0,-344.0)" /></g><g opacity="1.0"><path d="m 359.5,274 c -0.277,0 -0.5,0.223 -0.5,0.5 v 5.82422 l -3.89062,4.86328 a 0.50024018,0.50024018 0 1 0 0.78124,0.625 L 359,281.92578 V 285.5 c 0,0.277 0.223,0.5 0.5,0.5 h 1 c 0.277,0 0.5,-0.223 0.5,-0.5 v -3.57422 l 3.10938,3.88672 a 0.50024018,0.50024018 0 1 0 0.78124,-0.625 L 361,280.32422 V 274.5 c 0,-0.277 -0.223,-0.5 -0.5,-0.5 z" fill="#444" transform="translate(226.0,243.0) scale(2.0,2.0) translate(-360.0,-280.0)" /></g><g opacity="1.0"><path d="m 359.5,274 c -0.277,0 -0.5,0.223 -0.5,0.5 v 5.82422 l -3.89062,4.86328 a 0.50024018,0.50024018 0 1 0 0.78124,0.625 L 359,281.92578 V 285.5 c 0,0.277 0.223,0.5 0.5,0.5 h 1 c 0.277,0 0.5,-0.223 0.5,-0.5 v -3.57422 l 3.10938,3.88672 a 0.50024018,0.50024018 0 1 0 0.78124,-0.625 L 361,280.32422 V 274.5 c 0,-0.277 -0.223,-0.5 -0.5,-0.5 z" fill="#444" transform="translate(274.0,243.0) scale(2.0,2.0) translate(-360.0,-280.0)" /><path d="m 167.38477,340.87305 a 0.50005,0.50005 0 0 0 -0.35938,0.15234 C 166.36915,341.68163 166,342.57193 166,343.5 c 0,0.92807 0.36915,1.81837 1.02539,2.47461 a 0.50005,0.50005 0 1 0 0.70703,-0.70703 C 167.26345,344.7986 167,344.16323 167,343.5 c 0,-0.66323 0.26345,-1.2986 0.73242,-1.76758 a 0.50005,0.50005 0 0 0 -0.34765,-0.85937 z m 1.41406,1.41406 a 0.50005,0.50005 0 0 0 -0.35938,0.15234 C 168.15828,342.72062 168,343.10237 168,343.5 c 0,0.39763 0.15828,0.77938 0.43945,1.06055 a 0.50005,0.50005 0 1 0 0.70703,-0.70703 C 169.0526,343.75961 169,343.6328 169,343.5 c 0,-0.1328 0.0526,-0.25961 0.14648,-0.35352 a 0.50005,0.50005 0 0 0 -0.34765,-0.85937 z" fill="#444" transform="translate(268.0,237.0) scale(2.0,2.0) translate(-168.0,-344.0)" /><path d="m 184.61523,340.87305 a 0.50005,0.50005 0 0 0 -0.34765,0.85937 C 184.73655,342.2014 185,342.83677 185,343.5 c 0,0.66323 -0.26345,1.2986 -0.73242,1.76758 a 0.50005,0.50005 0 1 0 0.70703,0.70703 C 185.63085,345.31837 186,344.42807 186,343.5 c 0,-0.92807 -0.36915,-1.81837 -1.02539,-2.47461 a 0.50005,0.50005 0 0 0 -0.35938,-0.15234 z m -1.41406,1.41406 a 0.50005,0.50005 0 0 0 -0.34765,0.85937 C 182.94742,343.24038 183,343.3672 183,343.5 c 0,0.1328 -0.0526,0.25961 -0.14648,0.35352 a 0.50005,0.50005 0 1 0 0.70703,0.70703 C 183.84172,344.27938 184,343.89763 184,343.5 c 0,-0.39763 -0.15828,-0.77938 -0.43945,-1.06055 a 0.50005,0.50005 0 0 0 -0.35938,-0.15234 z" fill="#444" transform="translate(280.0,237.0) scale(2.0,2.0) translate(-184.0,-344.0)" /></g><g opacity="1.0"><path d="m 359.5,274 c -0.277,0 -0.5,0.223 -0.5,0.5 v 5.82422 l -3.89062,4.86328 a 0.50024018,0.50024018 0 1 0 0.78124,0.625 L 359,281.92578 V 285.5 c 0,0.277 0.223,0.5 0.5,0.5 h 1 c 0.277,0 0.5,-0.223 0.5,-0.5 v -3.57422 l 3.10938,3.88672 a 0.50024018,0.50024018 0 1 0 0.78124,-0.625 L 361,280.32422 V 274.5 c 0,-0.277 -0.223,-0.5 -0.5,-0.5 z" fill="#444" transform="translate(322.0,243.0) scale(2.0,2.0) translate(-360.0,-280.0)" /><path d="m 198.48242,340.99609 a 0.50005,0.50005 0 0 0 -0.20508,0.95118 l 2,1 a 0.50005,0.50005 0 1 0 0.44532,-0.89454 l -2,-1 a 0.50005,0.50005 0 0 0 -0.24024,-0.0566 z m 2.01953,3 a 0.50005,0.50005 0 0 0 -0.22461,0.0566 l -2,1 a 0.50005,0.50005 0 1 0 0.44532,0.89454 l 2,-1 a 0.50005,0.50005 0 0 0 -0.22071,-0.95118 z" fill="#444" transform="translate(316.0,237.0) scale(2.0,2.0) translate(-200.0,-344.0)" /><path d="m 217.50195,340.99609 a 0.50005,0.50005 0 0 0 -0.22461,0.0566 l -2,1 a 0.50005,0.50005 0 1 0 0.44532,0.89454 l 2,-1 a 0.50005,0.50005 0 0 0 -0.22071,-0.95118 z m -2.01953,3 a 0.50005,0.50005 0 0 0 -0.20508,0.95118 l 2,1 a 0.50005,0.50005 0 1 0 0.44532,-0.89454 l -2,-1 a 0.50005,0.50005 0 0 0 -0.24024,-0.0566 z" fill="#444" transform="translate(328.0,237.0) scale(2.0,2.0) translate(-216.0,-344.0)" /></g><g opacity="1.0"><path d="m 359.5,274 c -0.277,0 -0.5,0.223 -0.5,0.5 v 5.82422 l -3.89062,4.86328 a 0.50024018,0.50024018 0 1 0 0.78124,0.625 L 359,281.92578 V 285.5 c 0,0.277 0.223,0.5 0.5,0.5 h 1 c 0.277,0 0.5,-0.223 0.5,-0.5 v -3.57422 l 3.10938,3.88672 a 0.50024018,0.50024018 0 1 0 0.78124,-0.625 L 361,280.32422 V 274.5 c 0,-0.277 -0.223,-0.5 -0.5,-0.5 z" fill="#444" transform="translate(370.0,243.0) scale(2.0,2.0) translate(-360.0,-280.0)" /><path d="m 279.44531,340.2168 c 0.88956,0.41378 1.30157,1.44686 1.22461,2.57617 0,6.7e-4 0,10e-4 0,0.002 -0.0176,0.25084 -0.0917,0.50232 -0.15429,0.75391 0.36408,0.28114 1.54689,1.19605 2.19531,1.49804 0.57772,0.29067 0.17247,1.1612 -0.42188,0.90625 -0.64743,-0.30153 -2.10621,-0.61837 -2.55859,-0.71679 -0.15283,0.2097 -0.29738,0.42885 -0.47852,0.60351 -0.81464,0.78613 -1.87216,1.13653 -2.76172,0.72266 -0.25015,-0.11659 -0.35854,-0.4138 -0.24218,-0.66406 l 1.26562,-2.72071 1.26758,-2.71875 c 0.11659,-0.25015 0.4138,-0.35854 0.66406,-0.24218 z" fill="#444" transform="translate(364.0,237.0) scale(2.0,2.0) translate(-280.0,-344.0)" /><path d="m 296.55469,340.2168 c -0.88956,0.41378 -1.30157,1.44686 -1.22461,2.57617 0,6.7e-4 0,10e-4 0,0.002 0.0176,0.25084 0.0917,0.50232 0.15429,0.75391 -0.36408,0.28114 -1.54689,1.19605 -2.19531,1.49804 -0.57772,0.29067 -0.17247,1.1612 0.42188,0.90625 0.64743,-0.30153 2.10621,-0.61837 2.55859,-0.71679 0.15283,0.2097 0.29738,0.42885 0.47852,0.60351 0.81464,0.78613 1.87216,1.13653 2.76172,0.72266 0.25015,-0.11659 0.35854,-0.4138 0.24218,-0.66406 l -1.26562,-2.72071 -1.26758,-2.71875 c -0.11659,-0.25015 -0.4138,-0.35854 -0.66406,-0.24218 z" fill="#444" transform="translate(376.0,237.0) scale(2.0,2.0) translate(-296.0,-344.0)" /></g><g opacity="1.0"><path d="m 359.5,274 c -0.277,0 -0.5,0.223 -0.5,0.5 v 5.82422 l -3.89062,4.86328 a 0.50024018,0.50024018 0 1 0 0.78124,0.625 L 359,281.92578 V 285.5 c 0,0.277 0.223,0.5 0.5,0.5 h 1 c 0.277,0 0.5,-0.223 0.5,-0.5 v -3.57422 l 3.10938,3.88672 a 0.50024018,0.50024018 0 1 0 0.78124,-0.625 L 361,280.32422 V 274.5 c 0,-0.277 -0.223,-0.5 -0.5,-0.5 z" fill="#444" transform="translate(418.0,243.0) scale(2.0,2.0) translate(-360.0,-280.0)" /><path d="m 230.47461,341 c -0.0825,0.004 -0.1642,0.0284 -0.23828,0.0742 -0.19729,0.12214 -0.28463,0.36396 -0.21094,0.58398 0.47892,1.43676 0.47892,2.24684 0,3.6836 -0.1672,0.5008 0.45504,0.8853 0.82813,0.51172 C 232.31423,344.3928 233.11111,344 234.5,344 a 0.5,0.5 0 0 0 0.5,-0.5 0.5,0.5 0 0 0 -0.5,-0.5 c -1.38889,0 -2.18577,-0.3928 -3.64648,-1.85352 -0.10249,-0.10282 -0.24137,-0.15307 -0.37891,-0.14648 z" fill="#444" transform="translate(412.0,237.0) scale(2.0,2.0) translate(-232.0,-344.0)" /><path d="m 249.49609,341.00195 c -0.13051,6.3e-4 -0.256,0.0515 -0.34961,0.14453 -1.45158,1.4516 -2.24818,1.84862 -3.62109,1.85352 -0.009,3e-5 -0.0167,0 -0.0254,0 a 0.5,0.5 0 0 0 -0.5,0.5 0.5,0.5 0 0 0 0.5,0.5 c 1.38889,0 2.18577,0.3928 3.64648,1.85352 0.37309,0.37358 0.99533,-0.0109 0.82813,-0.51172 -0.47892,-1.43676 -0.47892,-2.24684 0,-3.6836 0.10014,-0.30272 -0.10481,-0.62058 -0.42188,-0.65429 -0.0187,-0.002 -0.038,-0.002 -0.0566,-0.002 z" fill="#444" transform="translate(424.0,237.0) scale(2.0,2.0) translate(-248.0,-344.0)" /></g><g opacity="1.0"><path d="m 390.49219,273.99219 a 0.50005,0.50005 0 0 0 -0.0488,0.004 0.50005,0.50005 0 0 0 -0.0605,0.01 0.50005,0.50005 0 0 0 -0.38281,0.5625 v 4.86133 a 0.50005,0.50005 0 0 0 0,0.1582 v 0.73633 l -3.89062,4.86328 a 0.50024018,0.50024018 0 1 0 0.78124,0.625 l 3.1093,-3.889 v 3.50586 a 0.50005,0.50005 0 0 0 0.45508,0.57617 0.50005,0.50005 0 0 0 0.0527,0.002 0.50005,0.50005 0 0 0 0.0488,-0.004 0.50005,0.50005 0 0 0 0.33984,-0.19141 0.50005,0.50005 0 0 0 0.004,-0.006 L 392,284.70703 V 285.5 a 0.50005,0.50005 0 1 0 1,0 v -1.94336 a 0.50005,0.50005 0 0 0 0,-0.12305 v -0.83984 a 0.50005,0.50005 0 0 0 0,-0.16797 v -0.5 l 3.10938,3.88672 a 0.50024018,0.50024018 0 1 0 0.78124,-0.625 L 393,280.32422 v -2.76758 a 0.50005,0.50005 0 0 0 0,-0.12305 v -0.83984 a 0.50005,0.50005 0 0 0 0,-0.16797 V 274.5 A 0.50005,0.50005 0 0 0 392.49219,273.99219 0.50005,0.50005 0 0 0 392,274.5 v 0.79297 l -1.10156,-1.10156 a 0.50005,0.50005 0 0 0 -0.40625,-0.19922 z m 0.50781,1.71484 1,1 v 0.58594 l -1,1 z m 1,3 v 1.72266 a 0.50005,0.50005 0 0 0 0,0.13281 v 0.73047 l -1,-1 v -0.58594 z m -1,3 1,1 v 0.58594 l -1,1 z" fill="#444" transform="translate(226.0,291.0) scale(2.0,2.0) translate(-392.0,-280.0)" /></g><g opacity="1.0"><path d="m 390.49219,273.99219 a 0.50005,0.50005 0 0 0 -0.0488,0.004 0.50005,0.50005 0 0 0 -0.0605,0.01 0.50005,0.50005 0 0 0 -0.38281,0.5625 v 4.86133 a 0.50005,0.50005 0 0 0 0,0.1582 v 0.73633 l -3.89062,4.86328 a 0.50024018,0.50024018 0 1 0 0.78124,0.625 l 3.1093,-3.889 v 3.50586 a 0.50005,0.50005 0 0 0 0.45508,0.57617 0.50005,0.50005 0 0 0 0.0527,0.002 0.50005,0.50005 0 0 0 0.0488,-0.004 0.50005,0.50005 0 0 0 0.33984,-0.19141 0.50005,0.50005 0 0 0 0.004,-0.006 L 392,284.70703 V 285.5 a 0.50005,0.50005 0 1 0 1,0 v -1.94336 a 0.50005,0.50005 0 0 0 0,-0.12305 v -0.83984 a 0.50005,0.50005 0 0 0 0,-0.16797 v -0.5 l 3.10938,3.88672 a 0.50024018,0.50024018 0 1 0 0.78124,-0.625 L 393,280.32422 v -2.76758 a 0.50005,0.50005 0 0 0 0,-0.12305 v -0.83984 a 0.50005,0.50005 0 0 0 0,-0.16797 V 274.5 A 0.50005,0.50005 0 0 0 392.49219,273.99219 0.50005,0.50005 0 0 0 392,274.5 v 0.79297 l -1.10156,-1.10156 a 0.50005,0.50005 0 0 0 -0.40625,-0.19922 z m 0.50781,1.71484 1,1 v 0.58594 l -1,1 z m 1,3 v 1.72266 a 0.50005,0.50005 0 0 0 0,0.13281 v 0.73047 l -1,-1 v -0.58594 z m -1,3 1,1 v 0.58594 l -1,1 z" fill="#444" transform="translate(274.0,291.0) scale(2.0,2.0) translate(-392.0,-280.0)" /><path d="m 167.38477,340.87305 a 0.50005,0.50005 0 0 0 -0.35938,0.15234 C 166.36915,341.68163 166,342.57193 166,343.5 c 0,0.92807 0.36915,1.81837 1.02539,2.47461 a 0.50005,0.50005 0 1 0 0.70703,-0.70703 C 167.26345,344.7986 167,344.16323 167,343.5 c 0,-0.66323 0.26345,-1.2986 0.73242,-1.76758 a 0.50005,0.50005 0 0 0 -0.34765,-0.85937 z m 1.41406,1.41406 a 0.50005,0.50005 0 0 0 -0.35938,0.15234 C 168.15828,342.72062 168,343.10237 168,343.5 c 0,0.39763 0.15828,0.77938 0.43945,1.06055 a 0.50005,0.50005 0 1 0 0.70703,-0.70703 C 169.0526,343.75961 169,343.6328 169,343.5 c 0,-0.1328 0.0526,-0.25961 0.14648,-0.35352 a 0.50005,0.50005 0 0 0 -0.34765,-0.85937 z" fill="#444" transform="translate(266.0,285.0) scale(2.0,2.0) translate(-168.0,-344.0)" /><path d="m 184.61523,340.87305 a 0.50005,0.50005 0 0 0 -0.34765,0.85937 C 184.73655,342.2014 185,342.83677 185,343.5 c 0,0.66323 -0.26345,1.2986 -0.73242,1.76758 a 0.50005,0.50005 0 1 0 0.70703,0.70703 C 185.63085,345.31837 186,344.42807 186,343.5 c 0,-0.92807 -0.36915,-1.81837 -1.02539,-2.47461 a 0.50005,0.50005 0 0 0 -0.35938,-0.15234 z m -1.41406,1.41406 a 0.50005,0.50005 0 0 0 -0.34765,0.85937 C 182.94742,343.24038 183,343.3672 183,343.5 c 0,0.1328 -0.0526,0.25961 -0.14648,0.35352 a 0.50005,0.50005 0 1 0 0.70703,0.70703 C 183.84172,344.27938 184,343.89763 184,343.5 c 0,-0.39763 -0.15828,-0.77938 -0.43945,-1.06055 a 0.50005,0.50005 0 0 0 -0.35938,-0.15234 z" fill="#444" transform="translate(280.0,285.0) scale(2.0,2.0) translate(-184.0,-344.0)" /></g><g opacity="1.0"><path d="m 390.49219,273.99219 a 0.50005,0.50005 0 0 0 -0.0488,0.004 0.50005,0.50005 0 0 0 -0.0605,0.01 0.50005,0.50005 0 0 0 -0.38281,0.5625 v 4.86133 a 0.50005,0.50005 0 0 0 0,0.1582 v 0.73633 l -3.89062,4.86328 a 0.50024018,0.50024018 0 1 0 0.78124,0.625 l 3.1093,-3.889 v 3.50586 a 0.50005,0.50005 0 0 0 0.45508,0.57617 0.50005,0.50005 0 0 0 0.0527,0.002 0.50005,0.50005 0 0 0 0.0488,-0.004 0.50005,0.50005 0 0 0 0.33984,-0.19141 0.50005,0.50005 0 0 0 0.004,-0.006 L 392,284.70703 V 285.5 a 0.50005,0.50005 0 1 0 1,0 v -1.94336 a 0.50005,0.50005 0 0 0 0,-0.12305 v -0.83984 a 0.50005,0.50005 0 0 0 0,-0.16797 v -0.5 l 3.10938,3.88672 a 0.50024018,0.50024018 0 1 0 0.78124,-0.625 L 393,280.32422 v -2.76758 a 0.50005,0.50005 0 0 0 0,-0.12305 v -0.83984 a 0.50005,0.50005 0 0 0 0,-0.16797 V 274.5 A 0.50005,0.50005 0 0 0 392.49219,273.99219 0.50005,0.50005 0 0 0 392,274.5 v 0.79297 l -1.10156,-1.10156 a 0.50005,0.50005 0 0 0 -0.40625,-0.19922 z m 0.50781,1.71484 1,1 v 0.58594 l -1,1 z m 1,3 v 1.72266 a 0.50005,0.50005 0 0 0 0,0.13281 v 0.73047 l -1,-1 v -0.58594 z m -1,3 1,1 v 0.58594 l -1,1 z" fill="#444" transform="translate(322.0,291.0) scale(2.0,2.0) translate(-392.0,-280.0)" /><path d="m 198.48242,340.99609 a 0.50005,0.50005 0 0 0 -0.20508,0.95118 l 2,1 a 0.50005,0.50005 0 1 0 0.44532,-0.89454 l -2,-1 a 0.50005,0.50005 0 0 0 -0.24024,-0.0566 z m 2.01953,3 a 0.50005,0.50005 0 0 0 -0.22461,0.0566 l -2,1 a 0.50005,0.50005 0 1 0 0.44532,0.89454 l 2,-1 a 0.50005,0.50005 0 0 0 -0.22071,-0.95118 z" fill="#444" transform="translate(314.0,285.0) scale(2.0,2.0) translate(-200.0,-344.0)" /><path d="m 217.50195,340.99609 a 0.50005,0.50005 0 0 0 -0.22461,0.0566 l -2,1 a 0.50005,0.50005 0 1 0 0.44532,0.89454 l 2,-1 a 0.50005,0.50005 0 0 0 -0.22071,-0.95118 z m -2.01953,3 a 0.50005,0.50005 0 0 0 -0.20508,0.95118 l 2,1 a 0.50005,0.50005 0 1 0 0.44532,-0.89454 l -2,-1 a 0.50005,0.50005 0 0 0 -0.24024,-0.0566 z" fill="#444" transform="translate(328.0,285.0) scale(2.0,2.0) translate(-216.0,-344.0)" /></g><g opacity="1.0"><path d="m 390.49219,273.99219 a 0.50005,0.50005 0 0 0 -0.0488,0.004 0.50005,0.50005 0 0 0 -0.0605,0.01 0.50005,0.50005 0 0 0 -0.38281,0.5625 v 4.86133 a 0.50005,0.50005 0 0 0 0,0.1582 v 0.73633 l -3.89062,4.86328 a 0.50024018,0.50024018 0 1 0 0.78124,0.625 l 3.1093,-3.889 v 3.50586 a 0.50005,0.50005 0 0 0 0.45508,0.57617 0.50005,0.50005 0 0 0 0.0527,0.002 0.50005,0.50005 0 0 0 0.0488,-0.004 0.50005,0.50005 0 0 0 0.33984,-0.19141 0.50005,0.50005 0 0 0 0.004,-0.006 L 392,284.70703 V 285.5 a 0.50005,0.50005 0 1 0 1,0 v -1.94336 a 0.50005,0.50005 0 0 0 0,-0.12305 v -0.83984 a 0.50005,0.50005 0 0 0 0,-0.16797 v -0.5 l 3.10938,3.88672 a 0.50024018,0.50024018 0 1 0 0.78124,-0.625 L 393,280.32422 v -2.76758 a 0.50005,0.50005 0 0 0 0,-0.12305 v -0.83984 a 0.50005,0.50005 0 0 0 0,-0.16797 V 274.5 A 0.50005,0.50005 0 0 0 392.49219,273.99219 0.50005,0.50005 0 0 0 392,274.5 v 0.79297 l -1.10156,-1.10156 a 0.50005,0.50005 0 0 0 -0.40625,-0.19922 z m 0.50781,1.71484 1,1 v 0.58594 l -1,1 z m 1,3 v 1.72266 a 0.50005,0.50005 0 0 0 0,0.13281 v 0.73047 l -1,-1 v -0.58594 z m -1,3 1,1 v 0.58594 l -1,1 z" fill="#444" transform="translate(370.0,291.0) scale(2.0,2.0) translate(-392.0,-280.0)" /><path d="m 279.44531,340.2168 c 0.88956,0.41378 1.30157,1.44686 1.22461,2.57617 0,6.7e-4 0,10e-4 0,0.002 -0.0176,0.25084 -0.0917,0.50232 -0.15429,0.75391 0.36408,0.28114 1.54689,1.19605 2.19531,1.49804 0.57772,0.29067 0.17247,1.1612 -0.42188,0.90625 -0.64743,-0.30153 -2.10621,-0.61837 -2.55859,-0.71679 -0.15283,0.2097 -0.29738,0.42885 -0.47852,0.60351 -0.81464,0.78613 -1.87216,1.13653 -2.76172,0.72266 -0.25015,-0.11659 -0.35854,-0.4138 -0.24218,-0.66406 l 1.26562,-2.72071 1.26758,-2.71875 c 0.11659,-0.25015 0.4138,-0.35854 0.66406,-0.24218 z" fill="#444" transform="translate(362.0,285.0) scale(2.0,2.0) translate(-280.0,-344.0)" /><path d="m 296.55469,340.2168 c -0.88956,0.41378 -1.30157,1.44686 -1.22461,2.57617 0,6.7e-4 0,10e-4 0,0.002 0.0176,0.25084 0.0917,0.50232 0.15429,0.75391 -0.36408,0.28114 -1.54689,1.19605 -2.19531,1.49804 -0.57772,0.29067 -0.17247,1.1612 0.42188,0.90625 0.64743,-0.30153 2.10621,-0.61837 2.55859,-0.71679 0.15283,0.2097 0.29738,0.42885 0.47852,0.60351 0.81464,0.78613 1.87216,1.13653 2.76172,0.72266 0.25015,-0.11659 0.35854,-0.4138 0.24218,-0.66406 l -1.26562,-2.72071 -1.26758,-2.71875 c -0.11659,-0.25015 -0.4138,-0.35854 -0.66406,-0.24218 z" fill="#444" transform="translate(376.0,285.0) scale(2.0,2.0) translate(-296.0,-344.0)" /></g><g opacity="1.0"><path d="m 390.49219,273.99219 a 0.50005,0.50005 0 0 0 -0.0488,0.004 0.50005,0.50005 0 0 0 -0.0605,0.01 0.50005,0.50005 0 0 0 -0.38281,0.5625 v 4.86133 a 0.50005,0.50005 0 0 0 0,0.1582 v 0.73633 l -3.89062,4.86328 a 0.50024018,0.50024018 0 1 0 0.78124,0.625 l 3.1093,-3.889 v 3.50586 a 0.50005,0.50005 0 0 0 0.45508,0.57617 0.50005,0.50005 0 0 0 0.0527,0.002 0.50005,0.50005 0 0 0 0.0488,-0.004 0.50005,0.50005 0 0 0 0.33984,-0.19141 0.50005,0.50005 0 0 0 0.004,-0.006 L 392,284.70703 V 285.5 a 0.50005,0.50005 0 1 0 1,0 v -1.94336 a 0.50005,0.50005 0 0 0 0,-0.12305 v -0.83984 a 0.50005,0.50005 0 0 0 0,-0.16797 v -0.5 l 3.10938,3.88672 a 0.50024018,0.50024018 0 1 0 0.78124,-0.625 L 393,280.32422 v -2.76758 a 0.50005,0.50005 0 0 0 0,-0.12305 v -0.83984 a 0.50005,0.50005 0 0 0 0,-0.16797 V 274.5 A 0.50005,0.50005 0 0 0 392.49219,273.99219 0.50005,0.50005 0 0 0 392,274.5 v 0.79297 l -1.10156,-1.10156 a 0.50005,0.50005 0 0 0 -0.40625,-0.19922 z m 0.50781,1.71484 1,1 v 0.58594 l -1,1 z m 1,3 v 1.72266 a 0.50005,0.50005 0 0 0 0,0.13281 v 0.73047 l -1,-1 v -0.58594 z m -1,3 1,1 v 0.58594 l -1,1 z" fill="#444" transform="translate(418.0,291.0) scale(2.0,2.0) translate(-392.0,-280.0)" /><path d="m 230.47461,341 c -0.0825,0.004 -0.1642,0.0284 -0.23828,0.0742 -0.19729,0.12214 -0.28463,0.36396 -0.21094,0.58398 0.47892,1.43676 0.47892,2.24684 0,3.6836 -0.1672,0.5008 0.45504,0.8853 0.82813,0.51172 C 232.31423,344.3928 233.11111,344 234.5,344 a 0.5,0.5 0 0 0 0.5,-0.5 0.5,0.5 0 0 0 -0.5,-0.5 c -1.38889,0 -2.18577,-0.3928 -3.64648,-1.85352 -0.10249,-0.10282 -0.24137,-0.15307 -0.37891,-0.14648 z" fill="#444" transform="translate(410.0,285.0) scale(2.0,2.0) translate(-232.0,-344.0)" /><path d="m 249.49609,341.00195 c -0.13051,6.3e-4 -0.256,0.0515 -0.34961,0.14453 -1.45158,1.4516 -2.24818,1.84862 -3.62109,1.85352 -0.009,3e-5 -0.0167,0 -0.0254,0 a 0.5,0.5 0 0 0 -0.5,0.5 0.5,0.5 0 0 0 0.5,0.5 c 1.38889,0 2.18577,0.3928 3.64648,1.85352 0.37309,0.37358 0.99533,-0.0109 0.82813,-0.51172 -0.47892,-1.43676 -0.47892,-2.24684 0,-3.6836 0.10014,-0.30272 -0.10481,-0.62058 -0.42188,-0.65429 -0.0187,-0.002 -0.038,-0.002 -0.0566,-0.002 z" fill="#444" transform="translate(424.0,285.0) scale(2.0,2.0) translate(-248.0,-344.0)" /></g></svg>