<?xml version="1.0" encoding="utf-8" ?>
<svg baseProfile="full" height="384" version="1.1" width="768.0" xmlns="http://www.w3.org/2000/svg" xmlns:ev="http://www.w3.org/2001/xml-events" xmlns:xlink="http://www.w3.org/1999/xlink"><defs /><rect fill="#fff" height="384" width="768.0" x="0" y="0" /><g opacity="1.0"><path d="M 7.5,306 C 7.223,306 7,306.223 7,306.5 l 0,0.5 -4.5,0 A 0.5,0.5 0 0 0 2,307.5 0.5,0.5 0 0 0 2.5,308 l 4.5,0 0,10.5 c 0,0.277 0.223,0.5 0.5,0.5 l 1,0 c 0.277,0 0.5,-0.223 0.5,-0.5 l 0,-10.5 4.5,0 A 0.5,0.5 0 0 0 14,307.5 0.5,0.5 0 0 0 13.5,307 L 9,307 9,306.5 C 9,306.223 8.777,306 8.5,306 l -1,0 z m -5,2.5 A 0.5,0.5 0 0 0 2,309 l 0,1 A 0.5,0.5 0 0 0 2.5,310.5 0.5,0.5 0 0 0 3,310 l 0,-1 a 0.5,0.5 0 0 0 -0.5,-0.5 z m 11,0 A 0.5,0.5 0 0 0 13,309 l 0,1 a 0.5,0.5 0 0 0 0.5,0.5 0.5,0.5 0 0 0 0.5,-0.5 l 0,-1 a 0.5,0.5 0 0 0 -0.5,-0.5 z" fill="#444" transform="translate(48.0,48.0) scale(4.0,4.0) translate(-8.0,-312.0)" /></g><g opacity="1.0"><path d="m 23.5,306 c -0.277,0 -0.5,0.223 -0.5,0.5 l 0,0.5 -4.5,0 a 0.5,0.5 0 0 0 -0.5,0.5 0.5,0.5 0 0 0 0.5,0.5 l 4.5,0 0,1 -4.5,0 a 0.5,0.5 0 0 0 -0.5,0.5 0.5,0.5 0 0 0 0.5,0.5 l 4.5,0 0,8.5 c 0,0.277 0.223,0.5 0.5,0.5 l 1,0 c 0.277,0 0.5,-0.223 0.5,-0.5 l 0,-8.5 4.5,0 A 0.5,0.5 0 0 0 30,309.5 0.5,0.5 0 0 0 29.5,309 l -4.5,0 0,-1 4.5,0 A 0.5,0.5 0 0 0 30,307.5 0.5,0.5 0 0 0 29.5,307 l -4.5,0 0,-0.5 c 0,-0.277 -0.223,-0.5 -0.5,-0.5 l -1,0 z m -5,4.5 A 0.5,0.5 0 0 0 18,311 l 0,1 a 0.5,0.5 0 0 0 0.5,0.5 0.5,0.5 0 0 0 0.5,-0.5 l 0,-1 a 0.5,0.5 0 0 0 -0.5,-0.5 z m 11,0 A 0.5,0.5 0 0 0 29,311 l 0,1 a 0.5,0.5 0 0 0 0.5,0.5 0.5,0.5 0 0 0 0.5,-0.5 l 0,-1 a 0.5,0.5 0 0 0 -0.5,-0.5 z" fill="#444" transform="translate(144.0,48.0) scale(4.0,4.0) translate(-24.0,-312.0)" /></g><g opacity="1.0"><path d="m 66.5,306 a 0.5,0.5 0 0 0 -0.5,0.5 0.5,0.5 0 0 0 0.5,0.5 l 4.5,0 0,1 -4.5,0 a 0.5,0.5 0 0 0 -0.5,0.5 0.5,0.5 0 0 0 0.5,0.5 l 4.5,0 0,1 -4.5,0 a 0.5,0.5 0 0 0 -0.5,0.5 0.5,0.5 0 0 0 0.5,0.5 l 4.5,0 0,7.5 c 0,0.277 0.223,0.5 0.5,0.5 l 1,0 c 0.277,0 0.5,-0.223 0.5,-0.5 l 0,-7.5 4.5,0 A 0.5,0.5 0 0 0 78,310.5 0.5,0.5 0 0 0 77.5,310 l -4.5,0 0,-1 4.5,0 A 0.5,0.5 0 0 0 78,308.5 0.5,0.5 0 0 0 77.5,308 l -4.5,0 0,-1 4.5,0 A 0.5,0.5 0 0 0 78,306.5 0.5,0.5 0 0 0 77.5,306 l -5,0 -1,0 -5,0 z m 0,5.5 A 0.5,0.5 0 0 0 66,312 l 0,1 a 0.5,0.5 0 0 0 0.5,0.5 0.5,0.5 0 0 0 0.5,-0.5 l 0,-1 a 0.5,0.5 0 0 0 -0.5,-0.5 z m 11,0 A 0.5,0.5 0 0 0 77,312 l 0,1 a 0.5,0.5 0 0 0 0.5,0.5 0.5,0.5 0 0 0 0.5,-0.5 l 0,-1 a 0.5,0.5 0 0 0 -0.5,-0.5 z" fill="#444" transform="translate(240.0,48.0) scale(4.0,4.0) translate(-72.0,-312.0)" /></g><g opacity="1.0"><path d="m 146.5,305 a 0.5,0.5 0 0 0 -0.5,0.5 0.5,0.5 0 0 0 0.5,0.5 l 4.5,0 0,1 -4.5,0 a 0.5,0.5 0 0 0 -0.5,0.5 0.5,0.5 0 0 0 0.5,0.5 l 4.5,0 0,1 -4.5,0 a 0.5,0.5 0 0 0 -0.5,0.5 0.5,0.5 0 0 0 0.5,0.5 l 4.5,0 0,1 -4.5,0 a 0.5,0.5 0 0 0 -0.5,0.5 0.5,0.5 0 0 0 0.5,0.5 l 4.5,0 0,6.5 c 0,0.277 0.223,0.5 0.5,0.5 l 1,0 c 0.277,0 0.5,-0.223 0.5,-0.5 l 0,-6.5 4.5,0 a 0.5,0.5 0 0 0 0.5,-0.5 0.5,0.5 0 0 0 -0.5,-0.5 l -4.5,0 0,-1 4.5,0 a 0.5,0.5 0 0 0 0.5,-0.5 0.5,0.5 0 0 0 -0.5,-0.5 l -4.5,0 0,-1 4.5,0 a 0.5,0.5 0 0 0 0.5,-0.5 0.5,0.5 0 0 0 -0.5,-0.5 l -4.5,0 0,-1 4.5,0 a 0.5,0.5 0 0 0 0.5,-0.5 0.5,0.5 0 0 0 -0.5,-0.5 l -5,0 -1,0 -5,0 z m 0,7.5 A 0.5,0.5 0 0 0 146,313 l 0,1 a 0.5,0.5 0 0 0 0.5,0.5 0.5,0.5 0 0 0 0.5,-0.5 l 0,-1 a 0.5,0.5 0 0 0 -0.5,-0.5 z m 11,0 A 0.5,0.5 0 0 0 157,313 l 0,1 a 0.5,0.5 0 0 0 0.5,0.5 0.5,0.5 0 0 0 0.5,-0.5 l 0,-1 a 0.5,0.5 0 0 0 -0.5,-0.5 z" fill="#444" transform="translate(336.0,48.0) scale(4.0,4.0) translate(-152.0,-312.0)" /></g><g opacity="1.0"><path d="m 103.5,306 c -0.277,0 -0.5,0.223 -0.5,0.5 l 0,0.5 -4.5,0 a 0.5,0.5 0 0 0 -0.5,0.5 0.5,0.5 0 0 0 0.5,0.5 l 4.5,0 0,1 -4.5,0 a 0.5,0.5 0 0 0 -0.5,0.5 0.5,0.5 0 0 0 0.5,0.5 l 4.5,0 0,8.5 c 0,0.277 0.223,0.5 0.5,0.5 l 1,0 c 0.277,0 0.5,-0.223 0.5,-0.5 l 0,-8.5 4.5,0 a 0.5,0.5 0 0 0 0.5,-0.5 0.5,0.5 0 0 0 -0.5,-0.5 l -4.5,0 0,-2.5 c 0,-0.277 -0.223,-0.5 -0.5,-0.5 l -1,0 z m -5,4.5 A 0.5,0.5 0 0 0 98,311 l 0,1 a 0.5,0.5 0 0 0 0.5,0.5 0.5,0.5 0 0 0 0.5,-0.5 l 0,-1 a 0.5,0.5 0 0 0 -0.5,-0.5 z m 11,0 A 0.5,0.5 0 0 0 109,311 l 0,1 a 0.5,0.5 0 0 0 0.5,0.5 0.5,0.5 0 0 0 0.5,-0.5 l 0,-1 a 0.5,0.5 0 0 0 -0.5,-0.5 z" fill="#444" transform="translate(432.0,48.0) scale(4.0,4.0) translate(-104.0,-312.0)" /></g><g opacity="1.0"><path d="m 183.5,306 c -0.277,0 -0.5,0.223 -0.5,0.5 l 0,0.5 -1.5,0 a 0.5,0.5 0 0 0 -0.5,0.5 0.5,0.5 0 0 0 0.5,0.5 l 1.5,0 0,1 -1.5,0 a 0.5,0.5 0 0 0 -0.5,0.5 0.5,0.5 0 0 0 0.5,0.5 l 1.5,0 0,8.5 c 0,0.277 0.223,0.5 0.5,0.5 l 1,0 c 0.277,0 0.5,-0.223 0.5,-0.5 l 0,-8.5 1.5,0 a 0.5,0.5 0 0 0 0.5,-0.5 0.5,0.5 0 0 0 -0.5,-0.5 l -1.5,0 0,-2.5 c 0,-0.277 -0.223,-0.5 -0.5,-0.5 l -1,0 z m -2,4.5 A 0.5,0.5 0 0 0 181,311 l 0,1 a 0.5,0.5 0 0 0 0.5,0.5 0.5,0.5 0 0 0 0.5,-0.5 l 0,-1 a 0.5,0.5 0 0 0 -0.5,-0.5 z m 5,0 A 0.5,0.5 0 0 0 186,311 l 0,1 a 0.5,0.5 0 0 0 0.5,0.5 0.5,0.5 0 0 0 0.5,-0.5 l 0,-1 a 0.5,0.5 0 0 0 -0.5,-0.5 z" fill="#444" transform="translate(528.0,48.0) scale(4.0,4.0) translate(-184.0,-312.0)" /></g><g opacity="1.0"><path d="m 168,305.5 a 0.5,0.5 0 0 0 -0.5,0.5 l 0,1 a 0.5,0.5 0 0 0 0.5,0.5 0.5,0.5 0 0 0 0.5,-0.5 l 0,-1 a 0.5,0.5 0 0 0 -0.5,-0.5 z m -5.5,1 A 0.5,0.5 0 0 0 162,307 l 0,1 a 0.5,0.5 0 0 0 0.5,0.5 0.5,0.5 0 0 0 0.5,-0.5 l 0,-1 a 0.5,0.5 0 0 0 -0.5,-0.5 z m 11,0 A 0.5,0.5 0 0 0 173,307 l 0,1 a 0.5,0.5 0 0 0 0.5,0.5 0.5,0.5 0 0 0 0.5,-0.5 l 0,-1 a 0.5,0.5 0 0 0 -0.5,-0.5 z m -6,1.5 c -0.277,0 -0.5,0.223 -0.5,0.5 l 0,0.5 -4.5,0 a 0.5,0.5 0 0 0 -0.5,0.5 0.5,0.5 0 0 0 0.5,0.5 l 4.5,0 0,8.5 c 0,0.277 0.223,0.5 0.5,0.5 l 1,0 c 0.277,0 0.5,-0.223 0.5,-0.5 l 0,-8.5 4.5,0 a 0.5,0.5 0 0 0 0.5,-0.5 0.5,0.5 0 0 0 -0.5,-0.5 l -4.5,0 0,-0.5 c 0,-0.277 -0.223,-0.5 -0.5,-0.5 l -1,0 z" fill="#444" transform="translate(624.0,48.0) scale(4.0,4.0) translate(-168.0,-312.0)" /></g><g opacity="1.0"><path d="m 135.5,306 c -0.277,0 -0.5,0.223 -0.5,0.5 l 0,0.5 -4.5,0 a 0.5,0.5 0 0 0 -0.5,0.5 0.5,0.5 0 0 0 0.5,0.5 l 4.5,0 0,1 -4.5,0 a 0.5,0.5 0 0 0 -0.5,0.5 0.5,0.5 0 0 0 0.5,0.5 l 4.5,0 0,1 -4.5,0 a 0.5,0.5 0 0 0 -0.5,0.5 0.5,0.5 0 0 0 0.5,0.5 l 4.5,0 0,6.5 c 0,0.277 0.223,0.5 0.5,0.5 l 1,0 c 0.277,0 0.5,-0.223 0.5,-0.5 l 0,-12 c 0,-0.277 -0.223,-0.5 -0.5,-0.5 l -1,0 z m -5,6.5 A 0.5,0.5 0 0 0 130,313 l 0,1 a 0.5,0.5 0 0 0 0.5,0.5 0.5,0.5 0 0 0 0.5,-0.5 l 0,-1 a 0.5,0.5 0 0 0 -0.5,-0.5 z" fill="#444" transform="translate(720.0,48.0) scale(4.0,4.0) translate(-136.0,-312.0)" /></g><g opacity="1.0"><path d="m 119.5,306 c -0.277,0 -0.5,0.223 -0.5,0.5 l 0,0.5 -4.5,0 a 0.5,0.5 0 0 0 -0.5,0.5 0.5,0.5 0 0 0 0.5,0.5 l 4.5,0 0,3 -4.5,0 a 0.5,0.5 0 0 0 -0.5,0.5 0.5,0.5 0 0 0 0.5,0.5 l 4.5,0 0,6.5 c 0,0.277 0.223,0.5 0.5,0.5 l 1,0 c 0.277,0 0.5,-0.223 0.5,-0.5 l 0,-8.5 4.5,0 a 0.5,0.5 0 0 0 0.5,-0.5 0.5,0.5 0 0 0 -0.5,-0.5 l -4.5,0 0,-2.5 c 0,-0.277 -0.223,-0.5 -0.5,-0.5 l -1,0 z m 6,4.5 A 0.5,0.5 0 0 0 125,311 l 0,1 a 0.5,0.5 0 0 0 0.5,0.5 0.5,0.5 0 0 0 0.5,-0.5 l 0,-1 a 0.5,0.5 0 0 0 -0.5,-0.5 z m -11,2 A 0.5,0.5 0 0 0 114,313 l 0,1 a 0.5,0.5 0 0 0 0.5,0.5 0.5,0.5 0 0 0 0.5,-0.5 l 0,-1 a 0.5,0.5 0 0 0 -0.5,-0.5 z" fill="#444" transform="translate(48.0,144.0) scale(4.0,4.0) translate(-120.0,-312.0)" /></g><g opacity="1.0"><path d="m 199.5,306 c -0.277,0 -0.5,0.223 -0.5,0.5 l 0,0.5 -1.5,0 a 0.5,0.5 0 0 0 -0.5,0.5 0.5,0.5 0 0 0 0.5,0.5 l 1.5,0 0,3 -1.5,0 a 0.5,0.5 0 0 0 -0.5,0.5 0.5,0.5 0 0 0 0.5,0.5 l 1.5,0 0,6.5 c 0,0.277 0.223,0.5 0.5,0.5 l 1,0 c 0.277,0 0.5,-0.223 0.5,-0.5 l 0,-8.5 1.5,0 a 0.5,0.5 0 0 0 0.5,-0.5 0.5,0.5 0 0 0 -0.5,-0.5 l -1.5,0 0,-2.5 c 0,-0.277 -0.223,-0.5 -0.5,-0.5 l -1,0 z m 3,4.5 A 0.5,0.5 0 0 0 202,311 l 0,1 a 0.5,0.5 0 0 0 0.5,0.5 0.5,0.5 0 0 0 0.5,-0.5 l 0,-1 a 0.5,0.5 0 0 0 -0.5,-0.5 z m -5,2 A 0.5,0.5 0 0 0 197,313 l 0,1 a 0.5,0.5 0 0 0 0.5,0.5 0.5,0.5 0 0 0 0.5,-0.5 l 0,-1 a 0.5,0.5 0 0 0 -0.5,-0.5 z" fill="#444" transform="translate(144.0,144.0) scale(4.0,4.0) translate(-200.0,-312.0)" /></g><g opacity="1.0"><path d="m 7.47461,273 a 0.50005,0.50005 0 0 0 -0.44922,0.3418 l -0.95703,2.86914 -3.39453,2.91015 A 0.50005,0.50005 0 0 0 3,280 l 3,0 0,2.38281 -1.94727,3.89453 a 0.50005,0.50005 0 1 0 0.89454,0.44532 L 5.30859,286 l 4.38282,0 0.36132,0.72266 a 0.50005,0.50005 0 1 0 0.89454,-0.44532 L 9,282.38281 9,280 l 3,0 a 0.50005,0.50005 0 0 0 0.32617,-0.87891 L 8.93164,276.21094 7.97461,273.3418 A 0.50005,0.50005 0 0 0 7.47461,273 Z M 7.5,275.08203 7.80664,276 7.19336,276 Z M 7,277 l 1,0 0,2 -1,0 z M 6,277.58789 6,279 4.35156,279 Z m 3,0 L 10.64844,279 9,279 Z M 7,280 l 1,0 0,2 -1,0 z m -0.19141,3 1.38282,0 1,2 -3.38282,0 z" fill="#444" transform="translate(240.0,144.0) scale(4.0,4.0) translate(-8.0,-280.0)" /></g><g opacity="1.0"><path d="m 22.5,274 a 0.50005,0.50005 0 0 0 -0.32617,0.12109 l -3.5,3 A 0.50005,0.50005 0 0 0 19,278 l 3,0 0,1.26953 -3.32617,2.85156 A 0.50005,0.50005 0 0 0 19,283 l 2.69141,0 -1.63868,3.27734 a 0.50005,0.50005 0 1 0 0.89454,0.44532 L 21.30859,286 l 4.38282,0 0.36132,0.72266 a 0.50005,0.50005 0 1 0 0.89454,-0.44532 L 25.30859,283 28,283 a 0.50005,0.50005 0 0 0 0.32617,-0.87891 L 25,279.26953 25,278 l 3,0 a 0.50005,0.50005 0 0 0 0.32617,-0.87891 l -3.5,-3 A 0.50005,0.50005 0 0 0 24.5,274 Z m 0.5,1 1,0 0,2 -1,0 z m -1,0.58789 0,1.41211 -1.64844,0 z m 3,0 L 26.64844,277 25,277 Z M 23,278 l 1,0 0,1 -1,0 z m 0,2 1,0 0,2 -1,0 z m -1,0.58789 0,1.41211 -1.64844,0 z m 3,0 L 26.64844,282 25,282 Z M 22.80859,283 l 1.38282,0 1,2 -3.38282,0 z" fill="#444" transform="translate(336.0,144.0) scale(4.0,4.0) translate(-24.0,-280.0)" /></g><g opacity="1.0"><path d="m 70.5,273 a 0.50005,0.50005 0 0 0 -0.32617,0.12109 l -3.5,3 A 0.50005,0.50005 0 0 0 67,277 l 2.14844,0 -2.47461,2.12109 A 0.50005,0.50005 0 0 0 67,280 l 2.14844,0 -2.47461,2.12109 A 0.50005,0.50005 0 0 0 67,283 l 2.69141,0 -1.63868,3.27734 a 0.50005,0.50005 0 1 0 0.89454,0.44532 L 69.30859,286 l 4.38282,0 0.36132,0.72266 a 0.50005,0.50005 0 1 0 0.89454,-0.44532 L 73.30859,283 76,283 a 0.50005,0.50005 0 0 0 0.32617,-0.87891 L 73.85156,280 76,280 a 0.50005,0.50005 0 0 0 0.32617,-0.87891 L 73.85156,277 76,277 a 0.50005,0.50005 0 0 0 0.32617,-0.87891 l -3.5,-3 A 0.50005,0.50005 0 0 0 72.5,273 Z m 0.5,1 1,0 0,2 -1,0 z m -1,0.58789 0,1.41211 -1.64844,0 z m 3,0 L 74.64844,276 73,276 Z M 71,277 l 1,0 0,2 -1,0 z m -1,0.58789 0,1.41211 -1.64844,0 z m 3,0 L 74.64844,279 73,279 Z M 71,280 l 1,0 0,2 -1,0 z m -1,0.58789 0,1.41211 -1.64844,0 z m 3,0 L 74.64844,282 73,282 Z M 70.80859,283 l 1.38282,0 1,2 -3.38282,0 z" fill="#444" transform="translate(432.0,144.0) scale(4.0,4.0) translate(-72.0,-280.0)" /></g><g opacity="1.0"><path d="m 151.50391,273 a 0.50005,0.50005 0 0 0 -0.45118,0.27734 l -1,2 A 0.50005,0.50005 0 0 0 150,275.5 l 0,0.5 -2.5,0 a 0.50005,0.50005 0 1 0 0,1 l 2.5,0 0,1 -2.5,0 a 0.50005,0.50005 0 1 0 0,1 l 2.5,0 0,1 -2.5,0 a 0.50005,0.50005 0 1 0 0,1 l 2.5,0 0,1 -2.5,0 a 0.50005,0.50005 0 1 0 0,1 l 2.19141,0 -1.63868,3.27734 a 0.50005,0.50005 0 1 0 0.89454,0.44532 L 149.30859,286 l 4.38282,0 0.36132,0.72266 a 0.50005,0.50005 0 1 0 0.89454,-0.44532 L 153.30859,283 155.5,283 a 0.50005,0.50005 0 1 0 0,-1 l -2.5,0 0,-1 2.5,0 a 0.50005,0.50005 0 1 0 0,-1 l -2.5,0 0,-1 2.5,0 a 0.50005,0.50005 0 1 0 0,-1 l -2.5,0 0,-1 2.5,0 a 0.50005,0.50005 0 1 0 0,-1 l -2.5,0 0,-0.5 a 0.50005,0.50005 0 0 0 -0.0527,-0.22266 l -1,-2 A 0.50005,0.50005 0 0 0 151.50391,273 Z m -0.004,1.61719 0.5,1 0,0.38281 -1,0 0,-0.38281 z M 151,277 l 1,0 0,1 -1,0 z m 0,2 1,0 0,1 -1,0 z m 0,2 1,0 0,1 -1,0 z m -0.19141,2 1.38282,0 1,2 -3.38282,0 z" fill="#444" transform="translate(528.0,144.0) scale(4.0,4.0) translate(-152.0,-280.0)" /></g><g opacity="1.0"><path d="m 102.5,274 a 0.50005,0.50005 0 0 0 -0.32617,0.12109 0.50005,0.50005 0 0 0 -0.002,0.002 l -3.49805,2.99804 A 0.50005,0.50005 0 0 0 99,278 l 3,0 0,1.26953 -3.32617,2.85156 A 0.50005,0.50005 0 0 0 99,283 l 2.69141,0 -1.63868,3.27734 a 0.50005,0.50005 0 1 0 0.89454,0.44532 L 101.30859,286 l 4.38282,0 0.36132,0.72266 a 0.50005,0.50005 0 1 0 0.89454,-0.44532 L 105.30859,283 108,283 a 0.50005,0.50005 0 0 0 0.32617,-0.87891 L 105,279.26953 l 0,-4.68945 A 0.50005,0.50005 0 0 0 104.5,274 Z m 0.5,1 1,0 0,2 -1,0 z m -1,0.58789 0,1.41211 -1.64844,0 z m 1,2.41211 1,0 0,1 -1,0 z m 0,2 1,0 0,2 -1,0 z m -1,0.58789 0,1.41211 -1.64844,0 z m 3,0 L 106.64844,282 105,282 Z M 102.80859,283 l 1.38282,0 1,2 -3.38282,0 z" fill="#444" transform="translate(624.0,144.0) scale(4.0,4.0) translate(-104.0,-280.0)" /></g><g opacity="1.0"><path d="m 86.5,273 a 0.50005,0.50005 0 0 0 -0.35352,0.14648 l -3,3 A 0.50005,0.50005 0 0 0 83.5,277 l 1.49805,0 -2.79883,2.09961 A 0.50005,0.50005 0 0 0 82.5,280 l 2.79297,0 -2.14649,2.14648 A 0.50005,0.50005 0 0 0 83.5,283 l 2.19141,0 -1.63868,3.27734 a 0.50005,0.50005 0 1 0 0.89454,0.44532 L 85.30859,286 l 4.38282,0 0.36132,0.72266 a 0.50005,0.50005 0 1 0 0.89454,-0.44532 L 89.30859,283 91.5,283 a 0.50005,0.50005 0 0 0 0.35352,-0.85352 L 89.70703,280 92.5,280 a 0.50005,0.50005 0 0 0 0.30078,-0.90039 L 90.00195,277 91.5,277 a 0.50005,0.50005 0 0 0 0.35352,-0.85352 l -3,-3 A 0.50005,0.50005 0 0 0 88.5,273 Z m 0.5,1 1,0 0,2 -1,0 z m -1,0.70703 0,1.29297 -1.29297,0 z m 3,0 L 90.29297,276 89,276 Z M 87,277 l 1,0 0,2 -1,0 z m 2,0.5 2,1.5 -2,0 z m -3,0.002 0,1.498 -1.99805,0 L 86,277.50195 Z m 1,2.498 1,0 0,2 -1,0 z m -1,0.70703 0,1.29297 -1.29297,0 z m 3,0 L 90.29297,282 89,282 Z M 86.80859,283 l 1.38282,0 1,2 -3.38282,0 z" fill="#444" transform="translate(720.0,144.0) scale(4.0,4.0) translate(-88.0,-280.0)" /></g><g opacity="1.0"><path d="M 163.49219,274.99219 A 0.50005,0.50005 0 0 0 163,275.5 l 0,0.5 -1,0 a 0.50005,0.50005 0 1 0 0,1 l 1,0 0,1.41797 a 0.50005,0.50005 0 0 0 0.0898,0.37109 L 166,283.63867 166,286.5 a 0.50005,0.50005 0 1 0 1,0 l 0,-0.5 1,0 0,0.5 a 0.50005,0.50005 0 1 0 1,0 l 0,-2.86133 2.90625,-4.84375 a 0.50005,0.50005 0 0 0 0.008,-0.01 0.50005,0.50005 0 0 0 0.0857,-0.36695 l 0,-1.41797 1,0 a 0.50005,0.50005 0 1 0 0,-1 l -1,0 0,-0.5 A 0.50005,0.50005 0 0 0 171.49219,274.99219 0.50005,0.50005 0 0 0 171,275.5 l 0,0.5 -7,0 0,-0.5 a 0.50005,0.50005 0 0 0 -0.50781,-0.50781 z M 164,277 l 7,0 0,1.25 -3.5,2.625 -3.5,-2.625 z m 1.24414,3.43555 1.62109,1.21484 -0.40429,0.81055 z m 4.51172,0 -1.2168,2.02539 -0.40429,-0.81055 z m -2.25586,2.18359 0.5,0.99805 0,1.38281 -1,0 0,-1.38281 z" fill="#444" transform="translate(48.0,240.0) scale(4.0,4.0) translate(-168.0,-280.0)" /></g><g opacity="1.0"><path d="M 179.49219,273.99219 A 0.50005,0.50005 0 0 0 179,274.5 l 0,0.5 -1,0 a 0.50005,0.50005 0 1 0 0,1 l 1,0 0,1 -1,0 a 0.50005,0.50005 0 1 0 0,1 l 1,0 0,0.41797 a 0.50005,0.50005 0 0 0 0.0898,0.37109 L 182,283.63867 182,286.5 a 0.50005,0.50005 0 1 0 1,0 l 0,-0.5 1,0 0,0.5 a 0.50005,0.50005 0 1 0 1,0 l 0,-2.86133 2.90625,-4.84375 a 0.50005,0.50005 0 0 0 0.008,-0.01 0.50005,0.50005 0 0 0 0.0857,-0.36695 l 0,-0.41797 1,0 a 0.50005,0.50005 0 1 0 0,-1 l -1,0 0,-1 1,0 a 0.50005,0.50005 0 1 0 0,-1 l -1,0 0,-0.5 A 0.50005,0.50005 0 0 0 187.49219,273.99219 0.50005,0.50005 0 0 0 187,274.5 l 0,0.5 -7,0 0,-0.5 a 0.50005,0.50005 0 0 0 -0.50781,-0.50781 z M 180,276 l 7,0 0,1 -7,0 z m 0,2 7,0 0,0.25 -3.5,2.625 -3.5,-2.625 z m 1.24414,2.43555 1.62109,1.21484 -0.40429,0.81055 z m 4.51172,0 -1.2168,2.02539 -0.40429,-0.81055 z m -2.25586,2.18359 0.5,0.99805 0,1.38281 -1,0 0,-1.38281 z" fill="#444" transform="translate(144.0,240.0) scale(4.0,4.0) translate(-184.0,-280.0)" /></g><g opacity="1.0"><path d="M 195.49219,272.99219 A 0.50005,0.50005 0 0 0 195,273.5 l 0,0.5 -1,0 a 0.50005,0.50005 0 1 0 0,1 l 1,0 0,1 -1,0 a 0.50005,0.50005 0 1 0 0,1 l 1,0 0,1 -1,0 a 0.50005,0.50005 0 1 0 0,1 l 1.21484,0 2.78516,4.63867 0,2.86133 a 0.50005,0.50005 0 1 0 1,0 l 0,-0.5 1,0 0,0.5 a 0.50005,0.50005 0 1 0 1,0 l 0,-2.86133 L 203.78516,279 205,279 a 0.50005,0.50005 0 1 0 0,-1 l -1,0 0,-1 1,0 a 0.50005,0.50005 0 1 0 0,-1 l -1,0 0,-1 1,0 a 0.50005,0.50005 0 1 0 0,-1 l -1,0 0,-0.5 A 0.50005,0.50005 0 0 0 203.49219,272.99219 0.50005,0.50005 0 0 0 203,273.5 l 0,0.5 -7,0 0,-0.5 a 0.50005,0.50005 0 0 0 -0.50781,-0.50781 z M 196,275 l 7,0 0,1 -7,0 z m 0,2 7,0 0,1 -7,0 z m 1.00195,2 4.9961,0 -2.49805,1.87305 z m 0.24219,1.43555 1.62109,1.21484 -0.40429,0.81055 z m 4.51172,0 -1.2168,2.02539 -0.40429,-0.81055 z m -2.25586,2.18359 0.5,0.99805 0,1.38281 -1,0 0,-1.38281 z" fill="#444" transform="translate(240.0,240.0) scale(4.0,4.0) translate(-200.0,-280.0)" /></g><g opacity="1.0"><path d="m 38.5,274 a 0.50005,0.50005 0 0 0 -0.35352,0.14648 l -3,3 A 0.50005,0.50005 0 0 0 35.5,278 l 2.5,0 0,1.25 -3.80078,2.84961 A 0.50005,0.50005 0 0 0 34.5,283 l 3.19141,0 -1.63868,3.27734 a 0.50005,0.50005 0 1 0 0.89454,0.44532 L 37.30859,286 l 4.38282,0 0.36132,0.72266 a 0.50005,0.50005 0 1 0 0.89454,-0.44532 L 41.30859,283 44.5,283 a 0.50005,0.50005 0 0 0 0.30078,-0.90039 L 41,279.25 41,278 l 2.5,0 a 0.50005,0.50005 0 0 0 0.35352,-0.85352 l -3,-3 A 0.50005,0.50005 0 0 0 40.5,274 Z m 0.5,1 1,0 0,2 -1,0 z m -1,0.70703 0,1.29297 -1.29297,0 z m 3,0 L 42.29297,277 41,277 Z M 39,278 l 1,0 0,1 -1,0 z m 0,2 1,0 0,2 -1,0 z m 2,0.5 2,1.5 -2,0 z m -3,0.002 0,1.498 -1.99805,0 L 38,280.50195 Z m 0.80859,2.498 1.38282,0 1,2 -3.38282,0 z" fill="#444" transform="translate(336.0,240.0) scale(4.0,4.0) translate(-40.0,-280.0)" /></g><g opacity="1.0"><path d="M 54.5 274 A 0.50005 0.50005 0 0 0 54.199219 274.09961 L 50.199219 277.09961 A 0.50005 0.50005 0 0 0 50.5 278 L 54 278 L 54 279.29297 L 51.146484 282.14648 A 0.50005 0.50005 0 0 0 51.5 283 L 53.691406 283 L 52.052734 286.27734 A 0.50005 0.50005 0 1 0 52.947266 286.72266 L 53.308594 286 L 57.691406 286 L 58.052734 286.72266 A 0.50005 0.50005 0 1 0 58.947266 286.27734 L 57.308594 283 L 59.5 283 A 0.50005 0.50005 0 0 0 59.853516 282.14648 L 57 279.29297 L 57 278 L 60.5 278 A 0.50005 0.50005 0 0 0 60.800781 277.09961 L 56.800781 274.09961 A 0.50005 0.50005 0 0 0 56.5 274 L 54.5 274 z M 55 275 L 56 275 L 56 277 L 55 277 L 55 275 z M 57 275.5 L 59 277 L 57 277 L 57 275.5 z M 54 275.50195 L 54 277 L 52.001953 277 L 54 275.50195 z M 55 278 L 56 278 L 56 279 L 55 279 L 55 278 z M 55 280 L 56 280 L 56 282 L 55 282 L 55 280 z M 54 280.70703 L 54 282 L 52.707031 282 L 54 280.70703 z M 57 280.70703 L 58.292969 282 L 57 282 L 57 280.70703 z M 54.808594 283 L 56.191406 283 L 57.191406 285 L 53.808594 285 L 54.808594 283 z " fill="#444" transform="translate(432.0,240.0) scale(4.0,4.0) translate(-56.0,-280.0)" /></g><g opacity="1.0"><path d="m 135.50391,273 a 0.50005,0.50005 0 0 0 -0.45118,0.27734 l -1,2 A 0.50005,0.50005 0 0 0 134,275.5 l 0,0.5 -3,0 a 0.50005,0.50005 0 1 0 0,1 l 3,0 0,2 -3,0 a 0.50005,0.50005 0 1 0 0,1 l 3,0 0,2 -3,0 a 0.50005,0.50005 0 1 0 0,1 l 2.69141,0 -1.63868,3.27734 a 0.50005,0.50005 0 1 0 0.89454,0.44532 L 133.30859,286 l 4.38282,0 0.36132,0.72266 a 0.50005,0.50005 0 1 0 0.89454,-0.44532 L 137,282.38281 137,275.5 a 0.50005,0.50005 0 0 0 -0.0527,-0.22266 l -1,-2 A 0.50005,0.50005 0 0 0 135.50391,273 Z m -0.004,1.61719 0.5,1 0,0.38281 -1,0 0,-0.38281 z M 135,277 l 1,0 0,2 -1,0 z m 0,3 1,0 0,2 -1,0 z m -0.19141,3 1.38282,0 1,2 -3.38282,0 z" fill="#444" transform="translate(528.0,240.0) scale(4.0,4.0) translate(-136.0,-280.0)" /></g><g opacity="1.0"><path d="m 276.48438,273.99219 a 0.50005,0.50005 0 0 0 -0.48243,0.46679 L 275.95703,275 274.5,275 a 0.50005,0.50005 0 1 0 0,1 l 1.37305,0 -0.8711,10.45898 a 0.50005,0.50005 0 1 0 0.9961,0.082 L 276.87695,276 l 5.2461,0 0.8789,10.54102 a 0.50005,0.50005 0 1 0 0.9961,-0.082 L 283.12695,276 284.5,276 a 0.50005,0.50005 0 1 0 0,-1 l -1.45703,0 -0.0449,-0.54102 a 0.50005,0.50005 0 0 0 -0.49805,-0.46679 0.50005,0.50005 0 0 0 -0.49805,0.54883 l 0.039,0.45898 -5.08204,0 0.0391,-0.45898 a 0.50005,0.50005 0 0 0 -0.51367,-0.54883 z m -1.99219,2.5 A 0.50005,0.50005 0 0 0 274,277 l 0,1 a 0.50005,0.50005 0 1 0 1,0 l 0,-1 a 0.50005,0.50005 0 0 0 -0.50781,-0.50781 z m 5,0 A 0.50005,0.50005 0 0 0 279,277 l 0,1 a 0.50005,0.50005 0 1 0 1,0 l 0,-1 a 0.50005,0.50005 0 0 0 -0.50781,-0.50781 z m 5,0 A 0.50005,0.50005 0 0 0 284,277 l 0,1 a 0.50005,0.50005 0 1 0 1,0 l 0,-1 a 0.50005,0.50005 0 0 0 -0.50781,-0.50781 z" fill="#444" transform="translate(624.0,240.0) scale(4.0,4.0) translate(-280.0,-280.0)" /></g><g opacity="1.0"><path d="M 244.49219,273.99219 A 0.50005,0.50005 0 0 0 244,274.5 l 0,0.5 -1.5,0 a 0.50005,0.50005 0 1 0 0,1 l 1.5,0 0,7.41992 a 0.50005,0.50005 0 0 0 0,0.16211 l 0,2.91797 a 0.50005,0.50005 0 1 0 1,0 l 0,-2.5 5,0 0,2.5 a 0.50005,0.50005 0 1 0 1,0 l 0,-2.91992 a 0.50005,0.50005 0 0 0 0,-0.16211 L 251,276 l 1.5,0 a 0.50005,0.50005 0 1 0 0,-1 l -1.5,0 0,-0.5 A 0.50005,0.50005 0 0 0 250.49219,273.99219 0.50005,0.50005 0 0 0 250,274.5 l 0,0.5 -5,0 0,-0.5 a 0.50005,0.50005 0 0 0 -0.50781,-0.50781 z M 245,276 l 5,0 0,7 -5,0 z m -2.50781,0.49219 A 0.50005,0.50005 0 0 0 242,277 l 0,1 a 0.50005,0.50005 0 1 0 1,0 l 0,-1 a 0.50005,0.50005 0 0 0 -0.50781,-0.50781 z m 5,0 A 0.50005,0.50005 0 0 0 247,277 l 0,1 a 0.50005,0.50005 0 1 0 1,0 l 0,-1 a 0.50005,0.50005 0 0 0 -0.50781,-0.50781 z m 5,0 A 0.50005,0.50005 0 0 0 252,277 l 0,1 a 0.50005,0.50005 0 1 0 1,0 l 0,-1 a 0.50005,0.50005 0 0 0 -0.50781,-0.50781 z" fill="#444" transform="translate(720.0,240.0) scale(4.0,4.0) translate(-248.0,-280.0)" /></g><g opacity="1.0"><path d="M 260.49219,273.99219 A 0.50005,0.50005 0 0 0 260,274.5 l 0,0.5 -1.5,0 a 0.50005,0.50005 0 1 0 0,1 l 1.5,0 0,1 -1.5,0 a 0.50005,0.50005 0 1 0 0,1 l 1.5,0 0,5.41992 a 0.50005,0.50005 0 0 0 0,0.16211 l 0,2.91797 a 0.50005,0.50005 0 1 0 1,0 l 0,-2.5 5,0 0,2.5 a 0.50005,0.50005 0 1 0 1,0 l 0,-2.91992 a 0.50005,0.50005 0 0 0 0,-0.16211 L 267,278 l 1.5,0 a 0.50005,0.50005 0 1 0 0,-1 l -1.5,0 0,-1 1.5,0 a 0.50005,0.50005 0 1 0 0,-1 l -1.5,0 0,-0.5 A 0.50005,0.50005 0 0 0 266.49219,273.99219 0.50005,0.50005 0 0 0 266,274.5 l 0,0.5 -5,0 0,-0.5 a 0.50005,0.50005 0 0 0 -0.50781,-0.50781 z M 261,276 l 5,0 0,1 -5,0 z m 0,2 5,0 0,5 -5,0 z m -2.50781,0.49219 A 0.50005,0.50005 0 0 0 258,279 l 0,1 a 0.50005,0.50005 0 1 0 1,0 l 0,-1 a 0.50005,0.50005 0 0 0 -0.50781,-0.50781 z m 5,0 A 0.50005,0.50005 0 0 0 263,278.96484 a 0.50005,0.50005 0 0 0 0,0.0352 l 0,1 a 0.50005,0.50005 0 0 0 0.45703,0.50586 0.50005,0.50005 0 0 0 0.0508,0.002 A 0.50005,0.50005 0 0 0 264,280 l 0,-1 a 0.50005,0.50005 0 0 0 -0.50781,-0.50781 z m 5,0 A 0.50005,0.50005 0 0 0 268,278.96484 a 0.50005,0.50005 0 0 0 0,0.0352 l 0,1 a 0.50005,0.50005 0 0 0 0.45703,0.50586 0.50005,0.50005 0 0 0 0.0508,0.002 A 0.50005,0.50005 0 0 0 269,280 l 0,-1 a 0.50005,0.50005 0 0 0 -0.50781,-0.50781 z" fill="#444" transform="translate(48.0,336.0) scale(4.0,4.0) translate(-264.0,-280.0)" /></g><g opacity="1.0"><path d="m 291.48438,273.99219 a 0.50005,0.50005 0 0 0 -0.48243,0.46679 L 290.95703,275 290.5,275 a 0.50005,0.50005 0 1 0 0,1 l 0.37305,0 -0.8711,10.45898 a 0.50005,0.50005 0 1 0 0.9961,0.082 L 291.87695,276 l 7.2461,0 0.8789,10.54102 a 0.50005,0.50005 0 1 0 0.9961,-0.082 L 300.12695,276 300.5,276 a 0.50005,0.50005 0 1 0 0,-1 l -0.45703,0 -0.0449,-0.54102 a 0.50005,0.50005 0 0 0 -0.49805,-0.46679 0.50005,0.50005 0 0 0 -0.49805,0.54883 l 0.039,0.45898 -7.08204,0 0.0391,-0.45898 a 0.50005,0.50005 0 0 0 -0.51367,-0.54883 z m 2.00781,2.5 A 0.50005,0.50005 0 0 0 293,277 l 0,1 a 0.50005,0.50005 0 1 0 1,0 l 0,-1 a 0.50005,0.50005 0 0 0 -0.50781,-0.50781 z m 4,0 A 0.50005,0.50005 0 0 0 297,277 l 0,1 a 0.50005,0.50005 0 1 0 1,0 l 0,-1 a 0.50005,0.50005 0 0 0 -0.50781,-0.50781 z" fill="#444" transform="translate(144.0,336.0) scale(4.0,4.0) translate(-296.0,-280.0)" /></g><g opacity="1.0"><path d="m 307.48438,273.99219 a 0.50005,0.50005 0 0 0 -0.48243,0.46679 L 306.95703,275 306.5,275 a 0.50005,0.50005 0 1 0 0,1 l 0.37305,0 -0.084,1 -0.28905,0 a 0.50005,0.50005 0 1 0 0,1 l 0.20703,0 -0.70508,8.45898 a 0.50005,0.50005 0 1 0 0.9961,0.082 L 307.71094,278 l 7.57812,0 0.71289,8.54102 a 0.50005,0.50005 0 1 0 0.9961,-0.082 L 316.29297,278 316.5,278 a 0.50005,0.50005 0 1 0 0,-1 l -0.28906,0 -0.084,-1 0.37306,0 a 0.50005,0.50005 0 1 0 0,-1 l -0.45703,0 -0.0449,-0.54102 a 0.50005,0.50005 0 0 0 -0.49805,-0.46679 0.50005,0.50005 0 0 0 -0.49805,0.54883 l 0.039,0.45898 -7.08204,0 0.0391,-0.45898 a 0.50005,0.50005 0 0 0 -0.51367,-0.54883 z m 0.39257,2.00781 7.2461,0 0.084,1 -7.41406,0 z m 1.61524,2.49219 A 0.50005,0.50005 0 0 0 309,279 l 0,1 a 0.50005,0.50005 0 1 0 1,0 l 0,-1 a 0.50005,0.50005 0 0 0 -0.50781,-0.50781 z m 4,0 A 0.50005,0.50005 0 0 0 313,279 l 0,1 a 0.50005,0.50005 0 1 0 1,0 l 0,-1 a 0.50005,0.50005 0 0 0 -0.50781,-0.50781 z" fill="#444" transform="translate(240.0,336.0) scale(4.0,4.0) translate(-312.0,-280.0)" /></g><g opacity="1.0"><path d="m 323.48438,273.99219 a 0.50005,0.50005 0 0 0 -0.48243,0.46679 L 322.95703,275 322.5,275 a 0.50005,0.50005 0 1 0 0,1 l 0.37305,0 -0.084,1 -0.28905,0 a 0.50005,0.50005 0 1 0 0,1 l 0.20703,0 -0.084,1 -0.12303,0 a 0.50005,0.50005 0 1 0 0,1 l 0.041,0 -0.53907,6.45898 a 0.50005,0.50005 0 1 0 0.9961,0.082 L 323.54297,280 l 7.91406,0 0.54492,6.54102 a 0.50005,0.50005 0 1 0 0.9961,-0.082 L 332.45898,280 l 0.041,0 a 0.50005,0.50005 0 1 0 0,-1 l -0.12305,0 -0.084,-1 0.20707,0 a 0.50005,0.50005 0 1 0 0,-1 l -0.28906,0 -0.084,-1 0.37306,0 a 0.50005,0.50005 0 1 0 0,-1 l -0.45703,0 -0.0449,-0.54102 a 0.50005,0.50005 0 0 0 -0.49805,-0.46679 0.50005,0.50005 0 0 0 -0.49805,0.54883 l 0.039,0.45898 -7.08204,0 0.0391,-0.45898 a 0.50005,0.50005 0 0 0 -0.51367,-0.54883 z m 0.39257,2.00781 7.2461,0 0.084,1 -7.41406,0 z m -0.16601,2 7.57812,0 0.084,1 -7.7461,0 z m 1.78125,2.49219 A 0.50005,0.50005 0 0 0 325,281 l 0,1 a 0.50005,0.50005 0 1 0 1,0 l 0,-1 a 0.50005,0.50005 0 0 0 -0.50781,-0.50781 z m 4,0 A 0.50005,0.50005 0 0 0 329,281 l 0,1 a 0.50005,0.50005 0 1 0 1,0 l 0,-1 a 0.50005,0.50005 0 0 0 -0.50781,-0.50781 z" fill="#444" transform="translate(336.0,336.0) scale(4.0,4.0) translate(-328.0,-280.0)" /></g><g opacity="1.0"><path d="m 118.5,273 a 0.50005,0.50005 0 0 0 -0.32617,0.12109 0.50005,0.50005 0 0 0 -0.002,0.002 l -3.49805,2.99804 A 0.50005,0.50005 0 0 0 115,277 l 3,0 0,2.26953 -3.32617,2.85156 A 0.50005,0.50005 0 0 0 115,283 l 2.69141,0 -1.63868,3.27734 a 0.50005,0.50005 0 1 0 0.89454,0.44532 L 117.30859,286 l 4.38282,0 0.36132,0.72266 a 0.50005,0.50005 0 1 0 0.89454,-0.44532 L 121,282.38281 121,280 l 3,0 a 0.50005,0.50005 0 0 0 0.32617,-0.87891 L 121,276.26953 121,273.5 a 0.50005,0.50005 0 0 0 -0.5,-0.5 z m 0.5,1 1,0 0,2 -1,0 z m -1,0.58789 0,1.41211 -1.64844,0 z m 1,2.41211 1,0 0,2 -1,0 z m 2,0.58789 L 122.64844,279 121,279 Z M 119,280 l 1,0 0,2 -1,0 z m -1,0.58789 0,1.41211 -1.64844,0 z m 0.80859,2.41211 1.38282,0 1,2 -3.38282,0 z" fill="#444" transform="translate(432.0,336.0) scale(4.0,4.0) translate(-120.0,-280.0)" /></g><g opacity="1.0"><path d="m 226.5,274.99414 a 0.50005,0.50005 0 0 0 -0.0273,0.002 0.50005,0.50005 0 0 0 -0.002,0 0.50005,0.50005 0 0 0 -0.043,0.004 0.50005,0.50005 0 0 0 -0.0312,0.006 0.50005,0.50005 0 0 0 -0.0254,0.004 0.50005,0.50005 0 0 0 -0.0195,0.006 0.50005,0.50005 0 0 0 -0.043,0.0137 0.50005,0.50005 0 0 0 -0.01,0.004 0.50005,0.50005 0 0 0 -0.0215,0.01 0.50005,0.50005 0 0 0 -0.0176,0.01 0.50005,0.50005 0 0 0 -0.0254,0.0137 0.50005,0.50005 0 0 0 -0.0176,0.0117 0.50005,0.50005 0 0 0 -0.041,0.0313 0.50005,0.50005 0 0 0 -0.0352,0.0332 0.50005,0.50005 0 0 0 -0.0352,0.0371 0.50005,0.50005 0 0 0 0.0371,0.67578 l 3.8578,4.81916 0,0.72852 -1.9375,4.84179 a 0.50005,0.50005 0 0 0 0.69727,0.6836 0.50005,0.50005 0 0 0 0.002,-0.002 0.50050477,0.50050477 0 0 0 0.0137,-0.01 0.50005,0.50005 0 0 0 0.0312,-0.0234 l 0.0352,-0.0273 2.6582,-2.06836 2.68164,2.08594 a 0.50050477,0.50050477 0 0 0 0.0449,0.0351 0.50005,0.50005 0 0 0 0.006,0.004 0.50005,0.50005 0 0 0 0.70313,-0.68164 L 233,281.4043 l 0,-0.72852 3.85938,-4.82422 a 0.50005,0.50005 0 0 0 0.12304,-0.50976 0.50005,0.50005 0 0 0 -0.0664,-0.13477 0.50005,0.50005 0 0 0 -0.01,-0.0137 0.50005,0.50005 0 0 0 -0.0215,-0.0254 0.50005,0.50005 0 0 0 -0.0352,-0.0352 0.50005,0.50005 0 0 0 -0.0117,-0.0117 0.50005,0.50005 0 0 0 -0.0254,-0.0215 0.50005,0.50005 0 0 0 -0.0137,-0.01 0.50005,0.50005 0 0 0 -0.0371,-0.0254 0.50005,0.50005 0 0 0 -0.004,-0.002 0.50005,0.50005 0 0 0 -0.0293,-0.0156 0.50005,0.50005 0 0 0 -0.0156,-0.008 0.50005,0.50005 0 0 0 -0.008,-0.004 0.50005,0.50005 0 0 0 -0.0391,-0.0137 0.50005,0.50005 0 0 0 -0.0312,-0.01 0.50005,0.50005 0 0 0 -0.0176,-0.004 0.50005,0.50005 0 0 0 -0.13281,-0.0137 0.50005,0.50005 0 0 0 -0.26563,0.0898 0.50005,0.50005 0 0 0 -0.0137,0.01 l -4.70508,2.82227 -4.70898,-2.82618 -0.008,-0.006 a 0.50005,0.50005 0 0 0 -0.0254,-0.0137 0.50005,0.50005 0 0 0 -0.13672,-0.0586 0.50005,0.50005 0 0 0 -0.0488,-0.01 0.50005,0.50005 0 0 0 -0.0508,-0.006 0.50005,0.50005 0 0 0 -0.0215,-0.002 z m 2.13086,2.36914 2.21484,1.32813 -0.44336,0.88671 z m 5.73828,0 -1.77148,2.21484 -0.44336,-0.88671 z m -2.86914,2.25586 0.5,0.99805 0,0.38281 -1,0 0,-0.38281 z M 230.83984,282 l 1.32032,0 0.3125,0.77734 -0.97266,0.75586 -0.97266,-0.75586 z m -0.69726,1.74414 0.54297,0.42188 -1.03516,0.80468 z m 2.71484,0 0.49219,1.22656 -1.03516,-0.80468 z" fill="#444" transform="translate(528.0,336.0) scale(4.0,4.0) translate(-232.0,-280.0)" /></g><g opacity="1.0"><path d="m 210.49414,274.99414 a 0.50005,0.50005 0 0 0 -0.14844,0.0234 0.50005,0.50005 0 0 0 -0.006,0.002 0.50005,0.50005 0 0 0 -0.0156,0.006 0.50005,0.50005 0 0 0 -0.0254,0.01 0.50005,0.50005 0 0 0 -0.004,0.002 0.50005,0.50005 0 0 0 -0.0449,0.0234 0.50005,0.50005 0 0 0 -0.043,0.0273 0.50005,0.50005 0 0 0 -0.0352,0.0254 0.50005,0.50005 0 0 0 -0.004,0.004 0.50005,0.50005 0 0 0 -0.0332,0.0312 0.50005,0.50005 0 0 0 -0.004,0.004 0.50005,0.50005 0 0 0 -0.0273,0.0332 0.50005,0.50005 0 0 0 -0.004,0.004 0.50005,0.50005 0 0 0 -0.0254,0.0371 0.50005,0.50005 0 0 0 -0.0156,0.0274 0.50005,0.50005 0 0 0 -0.01,0.0156 0.50005,0.50005 0 0 0 -0.002,0.006 0.50005,0.50005 0 0 0 -0.0332,0.0879 0.50005,0.50005 0 0 0 -0.002,0.006 0.50005,0.50005 0 0 0 -0.0156,0.14258 0.50005,0.50005 0 0 0 0,0.006 0.50005,0.50005 0 0 0 0.004,0.043 0.50005,0.50005 0 0 0 0,0.006 0.50005,0.50005 0 0 0 0.01,0.043 0.50005,0.50005 0 0 0 0.0937,0.19531 l 3.897,5.84641 0,0.76758 a 0.50005,0.50005 0 0 0 -0.006,0.0371 0.50005,0.50005 0 0 0 0,0.004 l -0.97852,3.91797 a 0.50005,0.50005 0 1 0 0.96876,0.24218 L 214.14062,286 l 2.71876,0 0.15624,0.62109 a 0.50005,0.50005 0 1 0 0.96876,-0.24218 l -0.97852,-3.92188 a 0.50005,0.50005 0 0 0 -0.006,-0.0391 l 0,-0.76563 3.88477,-5.83007 a 0.50005,0.50005 0 0 0 0.01,-0.0137 0.50005,0.50005 0 0 0 0.0996,-0.21484 0.50005,0.50005 0 0 0 0.008,-0.043 0.50005,0.50005 0 0 0 0,-0.006 0.50005,0.50005 0 0 0 0,-0.0996 0.50005,0.50005 0 0 0 -0.008,-0.0488 0.50005,0.50005 0 0 0 -0.01,-0.043 0.50005,0.50005 0 0 0 -0.002,-0.006 0.50005,0.50005 0 0 0 -0.0156,-0.043 0.50005,0.50005 0 0 0 -0.002,-0.004 0.50005,0.50005 0 0 0 -0.0215,-0.0449 0.50005,0.50005 0 0 0 -0.0176,-0.0312 0.50005,0.50005 0 0 0 -0.008,-0.0117 0.50005,0.50005 0 0 0 -0.0273,-0.0352 0.50005,0.50005 0 0 0 -0.004,-0.006 0.50005,0.50005 0 0 0 -0.0293,-0.0313 0.50005,0.50005 0 0 0 -0.004,-0.004 0.50005,0.50005 0 0 0 -0.0332,-0.0293 0.50005,0.50005 0 0 0 -0.004,-0.004 0.50005,0.50005 0 0 0 -0.0371,-0.0254 0.50005,0.50005 0 0 0 -0.0801,-0.043 0.50005,0.50005 0 0 0 -0.008,-0.004 0.50005,0.50005 0 0 0 -0.006,-0.002 0.50005,0.50005 0 0 0 -0.0899,-0.0254 0.50005,0.50005 0 0 0 -0.10547,-0.01 0.50005,0.50005 0 0 0 -0.0937,0.0137 0.50005,0.50005 0 0 0 -0.13867,0.0527 0.50005,0.50005 0 0 0 -0.043,0.0273 0.50005,0.50005 0 0 0 -0.0469,0.0371 l -4.66797,3.73438 -4.67188,-3.73633 -0.0117,-0.0117 a 0.50005,0.50005 0 0 0 -0.004,-0.002 0.50005,0.50005 0 0 0 -0.22461,-0.10547 0.50005,0.50005 0 0 0 -0.0937,-0.01 z m 2.20898,2.9082 2.16993,1.73633 -0.4336,0.86719 z m 5.59376,0 -1.73633,2.60352 -0.4336,-0.86719 z m -2.79688,2.7168 0.5,0.99805 0,0.38281 -1,0 0,-0.38281 z M 214.89062,283 l 1.21876,0 0.5,2 -2.21876,0 z" fill="#444" transform="translate(624.0,336.0) scale(4.0,4.0) translate(-216.0,-280.0)" /></g></svg>