<?xml version="1.0" encoding="utf-8" ?>
<svg baseProfile="full" height="241.0" version="1.1" width="410.0" xmlns="http://www.w3.org/2000/svg" xmlns:ev="http://www.w3.org/2001/xml-events" xmlns:xlink="http://www.w3.org/1999/xlink"><rect fill="white" height="241.0" width="410.0" x="0" y="0" /><defs /><text font-family="JetBrains Mono,Fira Code,Fira Mono,ui-monospace,SFMono-regular,SF Mono,Menlo,Consolas,Liberation Mono,monospace" font-size="10.0" font-weight="bold" text-anchor="end" x="156.0" y="67.0">volcano:type=*</text><text font-family="JetBrains Mono,Fira Code,Fira Mono,ui-monospace,SFMono-regular,SF Mono,Menlo,Consolas,Liberation Mono,monospace" font-size="10.0" font-weight="normal" text-anchor="end" x="186.0" y="107.0">stratovolcano</text><text font-family="JetBrains Mono,Fira Code,Fira Mono,ui-monospace,SFMono-regular,SF Mono,Menlo,Consolas,Liberation Mono,monospace" font-size="10.0" font-weight="normal" text-anchor="end" x="186.0" y="155.0">shield</text><text font-family="JetBrains Mono,Fira Code,Fira Mono,ui-monospace,SFMono-regular,SF Mono,Menlo,Consolas,Liberation Mono,monospace" font-size="10.0" font-weight="normal" text-anchor="end" x="186.0" y="203.0">scoria</text><text font-family="JetBrains Mono,Fira Code,Fira Mono,ui-monospace,SFMono-regular,SF Mono,Menlo,Consolas,Liberation Mono,monospace" font-size="10.0" font-weight="bold" text-anchor="end" x="186.0" y="37.0">volcano:status=*</text><text font-family="JetBrains Mono,Fira Code,Fira Mono,ui-monospace,SFMono-regular,SF Mono,Menlo,Consolas,Liberation Mono,monospace" font-size="10.0" font-weight="normal" text-anchor="start" transform="rotate(270,228.0,65.0)" x="228.0" y="65.0" /><text font-family="JetBrains Mono,Fira Code,Fira Mono,ui-monospace,SFMono-regular,SF Mono,Menlo,Consolas,Liberation Mono,monospace" font-size="10.0" font-weight="normal" text-anchor="start" transform="rotate(270,276.0,65.0)" x="276.0" y="65.0">active</text><text font-family="JetBrains Mono,Fira Code,Fira Mono,ui-monospace,SFMono-regular,SF Mono,Menlo,Consolas,Liberation Mono,monospace" font-size="10.0" font-weight="normal" text-anchor="start" transform="rotate(270,324.0,65.0)" x="324.0" y="65.0">dormant</text><text font-family="JetBrains Mono,Fira Code,Fira Mono,ui-monospace,SFMono-regular,SF Mono,Menlo,Consolas,Liberation Mono,monospace" font-size="10.0" font-weight="normal" text-anchor="start" transform="rotate(270,372.0,65.0)" x="372.0" y="65.0">extinct</text><line stroke="black" stroke-width="0.5" x1="186.0" x2="171.0" y1="65.0" y2="50.0" /><rect fill="#FEA" height="144.0" width="192.0" x="202.0" y="81.0" /><g opacity="1.0"><path d="m 231.5,23 c -0.16717,1.2e-5 -0.32328,0.08356 -0.41602,0.222656 -0.9431,1.414662 -2.92743,3.408953 -4.88476,4.876953 C 225.81381,28.388057 226.01861,29.00111 226.5,29 h 11 c 0.48139,0.0011 0.68619,-0.611943 0.30078,-0.900391 -1.95733,-1.468 -3.94166,-3.462291 -4.88476,-4.876953 C 232.82328,23.083563 232.66717,23.000012 232.5,23 Z" fill="#444" transform="translate(226.0,105.0) scale(2.0,2.0) translate(-232.0,-24.0)" /><path d="m 294.5,22 c -0.277,0 -0.5,0.223 -0.5,0.5 0,0.277 0.223,0.5 0.5,0.5 h 4.94922 c 0.277,0 0.5,-0.223 0.5,-0.5 0,-0.277 -0.223,-0.5 -0.5,-0.5 z m 1,2 c -0.277,0 -0.5,0.223 -0.5,0.5 0,0.277 0.223,0.5 0.5,0.5 h 1 c 0.277,0 0.5,-0.223 0.5,-0.5 0,-0.277 -0.223,-0.5 -0.5,-0.5 z" fill="#444" transform="translate(226.0,99.0) scale(2.0,2.0) translate(-296.0,-24.0)" /></g><g opacity="1.0"><path d="m 231.5,23 c -0.16717,1.2e-5 -0.32328,0.08356 -0.41602,0.222656 -0.9431,1.414662 -2.92743,3.408953 -4.88476,4.876953 C 225.81381,28.388057 226.01861,29.00111 226.5,29 h 11 c 0.48139,0.0011 0.68619,-0.611943 0.30078,-0.900391 -1.95733,-1.468 -3.94166,-3.462291 -4.88476,-4.876953 C 232.82328,23.083563 232.66717,23.000012 232.5,23 Z" fill="#444" transform="translate(274.0,105.0) scale(2.0,2.0) translate(-232.0,-24.0)" /><path d="m 310,53.5 c -1.60782,0 -2.92818,1.279318 -2.99609,2.871094 C 307.00174,56.413542 307,56.457038 307,56.5 a 0.5,0.5 0 0 0 0.0234,0.144531 0.5,0.5 0 0 0 0.0137,0.0332 0.5,0.5 0 0 0 0.0508,0.09961 0.5,0.5 0 0 0 0.0254,0.0332 0.5,0.5 0 0 0 0.0762,0.07617 0.5,0.5 0 0 0 0.0332,0.02539 0.5,0.5 0 0 0 0.0996,0.05078 0.5,0.5 0 0 0 0.0332,0.01367 A 0.5,0.5 0 0 0 307.5,57 a 0.5,0.5 0 0 0 0.14453,-0.02344 0.5,0.5 0 0 0 0.0332,-0.01367 0.5,0.5 0 0 0 0.0996,-0.05078 0.5,0.5 0 0 0 0.0332,-0.02539 0.5,0.5 0 0 0 0.0762,-0.07617 0.5,0.5 0 0 0 0.0254,-0.0332 0.5,0.5 0 0 0 0.0508,-0.09961 0.5,0.5 0 0 0 0.0137,-0.0332 A 0.5,0.5 0 0 0 308,56.5 c 0,-0.02619 9.7e-4,-0.05219 0.002,-0.07813 C 308.04179,55.624284 308.69172,55 309.5,55 c 0.83435,0 1.5,0.665651 1.5,1.5 a 0.5,0.5 0 0 0 0.0156,0.121094 0.5,0.5 0 0 0 0.004,0.01563 0.5,0.5 0 0 0 0.0742,0.152343 0.5,0.5 0 0 0 0.006,0.0078 0.5,0.5 0 0 0 0.041,0.04883 0.5,0.5 0 0 0 0.0137,0.01367 0.5,0.5 0 0 0 0.0488,0.04102 0.5,0.5 0 0 0 0.008,0.0059 0.5,0.5 0 0 0 0.15234,0.07422 0.5,0.5 0 0 0 0.0156,0.0039 A 0.5,0.5 0 0 0 311.5,57 h 1 a 0.5,0.5 0 0 0 0.13672,-0.01953 0.5,0.5 0 0 0 0.008,-0.0039 A 0.5,0.5 0 0 0 313,56.5 c 0,-0.834349 0.66565,-1.5 1.5,-1.5 0.83435,0 1.5,0.665651 1.5,1.5 v 1 a 0.5,0.5 0 0 0 0.5,0.5 0.5,0.5 0 0 0 0.5,-0.5 v -1 a 0.5,0.5 0 0 0 -0.002,-0.03125 c -4.1e-4,-0.03245 -3.1e-4,-0.06551 -0.002,-0.09766 C 316.92818,54.779318 315.60782,53.5 314,53.5 c -0.76644,0 -1.46846,0.290843 -2,0.767578 C 311.46846,53.790843 310.76644,53.5 310,53.5 Z m 8.5,3.5 a 0.5,0.5 0 0 0 -0.5,0.5 0.5,0.5 0 0 0 0.5,0.5 0.5,0.5 0 0 0 0.5,-0.5 0.5,0.5 0 0 0 -0.5,-0.5 z m -10,1 a 0.5,0.5 0 0 0 -0.5,0.5 0.5,0.5 0 0 0 0.5,0.5 0.5,0.5 0 0 0 0.5,-0.5 0.5,0.5 0 0 0 -0.5,-0.5 z m -2,1 a 0.5,0.5 0 0 0 -0.5,0.5 0.5,0.5 0 0 0 0.5,0.5 0.5,0.5 0 0 0 0.5,-0.5 0.5,0.5 0 0 0 -0.5,-0.5 z m 11,0 a 0.5,0.5 0 0 0 -0.5,0.5 0.5,0.5 0 0 0 0.5,0.5 0.5,0.5 0 0 0 0.5,-0.5 0.5,0.5 0 0 0 -0.5,-0.5 z" fill="#444" transform="translate(274.0,99.0) scale(2.0,2.0) translate(-312.0,-56.0)" /></g><g opacity="1.0"><path d="m 231.5,23 c -0.16717,1.2e-5 -0.32328,0.08356 -0.41602,0.222656 -0.9431,1.414662 -2.92743,3.408953 -4.88476,4.876953 C 225.81381,28.388057 226.01861,29.00111 226.5,29 h 11 c 0.48139,0.0011 0.68619,-0.611943 0.30078,-0.900391 -1.95733,-1.468 -3.94166,-3.462291 -4.88476,-4.876953 C 232.82328,23.083563 232.66717,23.000012 232.5,23 Z" fill="#444" transform="translate(322.0,105.0) scale(2.0,2.0) translate(-232.0,-24.0)" /><path d="m 278.5,22 c -0.277,0 -0.5,0.223 -0.5,0.5 0,0.277 0.223,0.5 0.5,0.5 h 1 c 0.277,0 0.5,0.223 0.5,0.5 0,0.277 -0.223,0.5 -0.5,0.5 -0.277,0 -0.5,0.223 -0.5,0.5 0,0.277 0.223,0.5 0.5,0.5 h 1 c 0.277,0 0.5,-0.223 0.5,-0.5 0,-0.277 0.223,-0.5 0.5,-0.5 h 2 c 0.277,0 0.5,-0.223 0.5,-0.5 0,-0.277 0.223,-0.5 0.5,-0.5 h 1 c 0.277,0 0.5,-0.223 0.5,-0.5 0,-0.277 -0.223,-0.5 -0.5,-0.5 z" fill="#444" transform="translate(324.0,99.0) scale(2.0,2.0) translate(-280.0,-24.0)" /></g><g opacity="1.0"><path d="m 231.5,23 c -0.16717,1.2e-5 -0.32328,0.08356 -0.41602,0.222656 -0.9431,1.414662 -2.92743,3.408953 -4.88476,4.876953 C 225.81381,28.388057 226.01861,29.00111 226.5,29 h 11 c 0.48139,0.0011 0.68619,-0.611943 0.30078,-0.900391 -1.95733,-1.468 -3.94166,-3.462291 -4.88476,-4.876953 C 232.82328,23.083563 232.66717,23.000012 232.5,23 Z" fill="#444" transform="translate(370.0,105.0) scale(2.0,2.0) translate(-232.0,-24.0)" /></g><g opacity="1.0"><path d="m 247.5,25 c -0.1326,2.4e-5 -0.25976,0.05271 -0.35352,0.146484 -0.94107,0.941075 -2.37472,1.905748 -4.83203,2.888672 C 241.80138,28.238744 241.94802,29.001233 242.5,29 h 11 c 0.55198,0.0012 0.69862,-0.761256 0.18555,-0.964844 -2.45731,-0.982924 -3.89096,-1.947597 -4.83203,-2.888672 C 248.75976,25.052715 248.6326,25.000024 248.5,25 Z" fill="#444" transform="translate(226.0,153.0) scale(2.0,2.0) translate(-248.0,-24.0)" /><path d="m 294.5,22 c -0.277,0 -0.5,0.223 -0.5,0.5 0,0.277 0.223,0.5 0.5,0.5 h 4.94922 c 0.277,0 0.5,-0.223 0.5,-0.5 0,-0.277 -0.223,-0.5 -0.5,-0.5 z m 1,2 c -0.277,0 -0.5,0.223 -0.5,0.5 0,0.277 0.223,0.5 0.5,0.5 h 1 c 0.277,0 0.5,-0.223 0.5,-0.5 0,-0.277 -0.223,-0.5 -0.5,-0.5 z" fill="#444" transform="translate(226.0,151.0) scale(2.0,2.0) translate(-296.0,-24.0)" /></g><g opacity="1.0"><path d="m 247.5,25 c -0.1326,2.4e-5 -0.25976,0.05271 -0.35352,0.146484 -0.94107,0.941075 -2.37472,1.905748 -4.83203,2.888672 C 241.80138,28.238744 241.94802,29.001233 242.5,29 h 11 c 0.55198,0.0012 0.69862,-0.761256 0.18555,-0.964844 -2.45731,-0.982924 -3.89096,-1.947597 -4.83203,-2.888672 C 248.75976,25.052715 248.6326,25.000024 248.5,25 Z" fill="#444" transform="translate(274.0,153.0) scale(2.0,2.0) translate(-248.0,-24.0)" /><path d="m 310,53.5 c -1.60782,0 -2.92818,1.279318 -2.99609,2.871094 C 307.00174,56.413542 307,56.457038 307,56.5 a 0.5,0.5 0 0 0 0.0234,0.144531 0.5,0.5 0 0 0 0.0137,0.0332 0.5,0.5 0 0 0 0.0508,0.09961 0.5,0.5 0 0 0 0.0254,0.0332 0.5,0.5 0 0 0 0.0762,0.07617 0.5,0.5 0 0 0 0.0332,0.02539 0.5,0.5 0 0 0 0.0996,0.05078 0.5,0.5 0 0 0 0.0332,0.01367 A 0.5,0.5 0 0 0 307.5,57 a 0.5,0.5 0 0 0 0.14453,-0.02344 0.5,0.5 0 0 0 0.0332,-0.01367 0.5,0.5 0 0 0 0.0996,-0.05078 0.5,0.5 0 0 0 0.0332,-0.02539 0.5,0.5 0 0 0 0.0762,-0.07617 0.5,0.5 0 0 0 0.0254,-0.0332 0.5,0.5 0 0 0 0.0508,-0.09961 0.5,0.5 0 0 0 0.0137,-0.0332 A 0.5,0.5 0 0 0 308,56.5 c 0,-0.02619 9.7e-4,-0.05219 0.002,-0.07813 C 308.04179,55.624284 308.69172,55 309.5,55 c 0.83435,0 1.5,0.665651 1.5,1.5 a 0.5,0.5 0 0 0 0.0156,0.121094 0.5,0.5 0 0 0 0.004,0.01563 0.5,0.5 0 0 0 0.0742,0.152343 0.5,0.5 0 0 0 0.006,0.0078 0.5,0.5 0 0 0 0.041,0.04883 0.5,0.5 0 0 0 0.0137,0.01367 0.5,0.5 0 0 0 0.0488,0.04102 0.5,0.5 0 0 0 0.008,0.0059 0.5,0.5 0 0 0 0.15234,0.07422 0.5,0.5 0 0 0 0.0156,0.0039 A 0.5,0.5 0 0 0 311.5,57 h 1 a 0.5,0.5 0 0 0 0.13672,-0.01953 0.5,0.5 0 0 0 0.008,-0.0039 A 0.5,0.5 0 0 0 313,56.5 c 0,-0.834349 0.66565,-1.5 1.5,-1.5 0.83435,0 1.5,0.665651 1.5,1.5 v 1 a 0.5,0.5 0 0 0 0.5,0.5 0.5,0.5 0 0 0 0.5,-0.5 v -1 a 0.5,0.5 0 0 0 -0.002,-0.03125 c -4.1e-4,-0.03245 -3.1e-4,-0.06551 -0.002,-0.09766 C 316.92818,54.779318 315.60782,53.5 314,53.5 c -0.76644,0 -1.46846,0.290843 -2,0.767578 C 311.46846,53.790843 310.76644,53.5 310,53.5 Z m 8.5,3.5 a 0.5,0.5 0 0 0 -0.5,0.5 0.5,0.5 0 0 0 0.5,0.5 0.5,0.5 0 0 0 0.5,-0.5 0.5,0.5 0 0 0 -0.5,-0.5 z m -10,1 a 0.5,0.5 0 0 0 -0.5,0.5 0.5,0.5 0 0 0 0.5,0.5 0.5,0.5 0 0 0 0.5,-0.5 0.5,0.5 0 0 0 -0.5,-0.5 z m -2,1 a 0.5,0.5 0 0 0 -0.5,0.5 0.5,0.5 0 0 0 0.5,0.5 0.5,0.5 0 0 0 0.5,-0.5 0.5,0.5 0 0 0 -0.5,-0.5 z m 11,0 a 0.5,0.5 0 0 0 -0.5,0.5 0.5,0.5 0 0 0 0.5,0.5 0.5,0.5 0 0 0 0.5,-0.5 0.5,0.5 0 0 0 -0.5,-0.5 z" fill="#444" transform="translate(274.0,151.0) scale(2.0,2.0) translate(-312.0,-56.0)" /></g><g opacity="1.0"><path d="m 247.5,25 c -0.1326,2.4e-5 -0.25976,0.05271 -0.35352,0.146484 -0.94107,0.941075 -2.37472,1.905748 -4.83203,2.888672 C 241.80138,28.238744 241.94802,29.001233 242.5,29 h 11 c 0.55198,0.0012 0.69862,-0.761256 0.18555,-0.964844 -2.45731,-0.982924 -3.89096,-1.947597 -4.83203,-2.888672 C 248.75976,25.052715 248.6326,25.000024 248.5,25 Z" fill="#444" transform="translate(322.0,153.0) scale(2.0,2.0) translate(-248.0,-24.0)" /><path d="m 278.5,22 c -0.277,0 -0.5,0.223 -0.5,0.5 0,0.277 0.223,0.5 0.5,0.5 h 1 c 0.277,0 0.5,0.223 0.5,0.5 0,0.277 -0.223,0.5 -0.5,0.5 -0.277,0 -0.5,0.223 -0.5,0.5 0,0.277 0.223,0.5 0.5,0.5 h 1 c 0.277,0 0.5,-0.223 0.5,-0.5 0,-0.277 0.223,-0.5 0.5,-0.5 h 2 c 0.277,0 0.5,-0.223 0.5,-0.5 0,-0.277 0.223,-0.5 0.5,-0.5 h 1 c 0.277,0 0.5,-0.223 0.5,-0.5 0,-0.277 -0.223,-0.5 -0.5,-0.5 z" fill="#444" transform="translate(324.0,151.0) scale(2.0,2.0) translate(-280.0,-24.0)" /></g><g opacity="1.0"><path d="m 247.5,25 c -0.1326,2.4e-5 -0.25976,0.05271 -0.35352,0.146484 -0.94107,0.941075 -2.37472,1.905748 -4.83203,2.888672 C 241.80138,28.238744 241.94802,29.001233 242.5,29 h 11 c 0.55198,0.0012 0.69862,-0.761256 0.18555,-0.964844 -2.45731,-0.982924 -3.89096,-1.947597 -4.83203,-2.888672 C 248.75976,25.052715 248.6326,25.000024 248.5,25 Z" fill="#444" transform="translate(370.0,153.0) scale(2.0,2.0) translate(-248.0,-24.0)" /></g><g opacity="1.0"><path d="m 263.5,24 c -0.21529,-1.13e-4 -0.40648,0.137577 -0.47461,0.341797 -0.46838,1.405132 -1.40941,2.813303 -2.80273,3.742187 C 259.81126,28.358467 260.00544,28.999813 260.5,29 h 7 c 0.49456,-1.87e-4 0.68874,-0.641533 0.27734,-0.916016 -1.39332,-0.928884 -2.33435,-2.337055 -2.80273,-3.742187 C 264.90648,24.137577 264.71529,23.999887 264.5,24 Z" fill="#444" transform="translate(226.0,201.0) scale(2.0,2.0) translate(-264.0,-24.0)" /><path d="m 294.5,22 c -0.277,0 -0.5,0.223 -0.5,0.5 0,0.277 0.223,0.5 0.5,0.5 h 4.94922 c 0.277,0 0.5,-0.223 0.5,-0.5 0,-0.277 -0.223,-0.5 -0.5,-0.5 z m 1,2 c -0.277,0 -0.5,0.223 -0.5,0.5 0,0.277 0.223,0.5 0.5,0.5 h 1 c 0.277,0 0.5,-0.223 0.5,-0.5 0,-0.277 -0.223,-0.5 -0.5,-0.5 z" fill="#444" transform="translate(226.0,197.0) scale(2.0,2.0) translate(-296.0,-24.0)" /></g><g opacity="1.0"><path d="m 263.5,24 c -0.21529,-1.13e-4 -0.40648,0.137577 -0.47461,0.341797 -0.46838,1.405132 -1.40941,2.813303 -2.80273,3.742187 C 259.81126,28.358467 260.00544,28.999813 260.5,29 h 7 c 0.49456,-1.87e-4 0.68874,-0.641533 0.27734,-0.916016 -1.39332,-0.928884 -2.33435,-2.337055 -2.80273,-3.742187 C 264.90648,24.137577 264.71529,23.999887 264.5,24 Z" fill="#444" transform="translate(274.0,201.0) scale(2.0,2.0) translate(-264.0,-24.0)" /><path d="m 310,53.5 c -1.60782,0 -2.92818,1.279318 -2.99609,2.871094 C 307.00174,56.413542 307,56.457038 307,56.5 a 0.5,0.5 0 0 0 0.0234,0.144531 0.5,0.5 0 0 0 0.0137,0.0332 0.5,0.5 0 0 0 0.0508,0.09961 0.5,0.5 0 0 0 0.0254,0.0332 0.5,0.5 0 0 0 0.0762,0.07617 0.5,0.5 0 0 0 0.0332,0.02539 0.5,0.5 0 0 0 0.0996,0.05078 0.5,0.5 0 0 0 0.0332,0.01367 A 0.5,0.5 0 0 0 307.5,57 a 0.5,0.5 0 0 0 0.14453,-0.02344 0.5,0.5 0 0 0 0.0332,-0.01367 0.5,0.5 0 0 0 0.0996,-0.05078 0.5,0.5 0 0 0 0.0332,-0.02539 0.5,0.5 0 0 0 0.0762,-0.07617 0.5,0.5 0 0 0 0.0254,-0.0332 0.5,0.5 0 0 0 0.0508,-0.09961 0.5,0.5 0 0 0 0.0137,-0.0332 A 0.5,0.5 0 0 0 308,56.5 c 0,-0.02619 9.7e-4,-0.05219 0.002,-0.07813 C 308.04179,55.624284 308.69172,55 309.5,55 c 0.83435,0 1.5,0.665651 1.5,1.5 a 0.5,0.5 0 0 0 0.0156,0.121094 0.5,0.5 0 0 0 0.004,0.01563 0.5,0.5 0 0 0 0.0742,0.152343 0.5,0.5 0 0 0 0.006,0.0078 0.5,0.5 0 0 0 0.041,0.04883 0.5,0.5 0 0 0 0.0137,0.01367 0.5,0.5 0 0 0 0.0488,0.04102 0.5,0.5 0 0 0 0.008,0.0059 0.5,0.5 0 0 0 0.15234,0.07422 0.5,0.5 0 0 0 0.0156,0.0039 A 0.5,0.5 0 0 0 311.5,57 h 1 a 0.5,0.5 0 0 0 0.13672,-0.01953 0.5,0.5 0 0 0 0.008,-0.0039 A 0.5,0.5 0 0 0 313,56.5 c 0,-0.834349 0.66565,-1.5 1.5,-1.5 0.83435,0 1.5,0.665651 1.5,1.5 v 1 a 0.5,0.5 0 0 0 0.5,0.5 0.5,0.5 0 0 0 0.5,-0.5 v -1 a 0.5,0.5 0 0 0 -0.002,-0.03125 c -4.1e-4,-0.03245 -3.1e-4,-0.06551 -0.002,-0.09766 C 316.92818,54.779318 315.60782,53.5 314,53.5 c -0.76644,0 -1.46846,0.290843 -2,0.767578 C 311.46846,53.790843 310.76644,53.5 310,53.5 Z m 8.5,3.5 a 0.5,0.5 0 0 0 -0.5,0.5 0.5,0.5 0 0 0 0.5,0.5 0.5,0.5 0 0 0 0.5,-0.5 0.5,0.5 0 0 0 -0.5,-0.5 z m -10,1 a 0.5,0.5 0 0 0 -0.5,0.5 0.5,0.5 0 0 0 0.5,0.5 0.5,0.5 0 0 0 0.5,-0.5 0.5,0.5 0 0 0 -0.5,-0.5 z m -2,1 a 0.5,0.5 0 0 0 -0.5,0.5 0.5,0.5 0 0 0 0.5,0.5 0.5,0.5 0 0 0 0.5,-0.5 0.5,0.5 0 0 0 -0.5,-0.5 z m 11,0 a 0.5,0.5 0 0 0 -0.5,0.5 0.5,0.5 0 0 0 0.5,0.5 0.5,0.5 0 0 0 0.5,-0.5 0.5,0.5 0 0 0 -0.5,-0.5 z" fill="#444" transform="translate(274.0,197.0) scale(2.0,2.0) translate(-312.0,-56.0)" /></g><g opacity="1.0"><path d="m 263.5,24 c -0.21529,-1.13e-4 -0.40648,0.137577 -0.47461,0.341797 -0.46838,1.405132 -1.40941,2.813303 -2.80273,3.742187 C 259.81126,28.358467 260.00544,28.999813 260.5,29 h 7 c 0.49456,-1.87e-4 0.68874,-0.641533 0.27734,-0.916016 -1.39332,-0.928884 -2.33435,-2.337055 -2.80273,-3.742187 C 264.90648,24.137577 264.71529,23.999887 264.5,24 Z" fill="#444" transform="translate(322.0,201.0) scale(2.0,2.0) translate(-264.0,-24.0)" /><path d="m 278.5,22 c -0.277,0 -0.5,0.223 -0.5,0.5 0,0.277 0.223,0.5 0.5,0.5 h 1 c 0.277,0 0.5,0.223 0.5,0.5 0,0.277 -0.223,0.5 -0.5,0.5 -0.277,0 -0.5,0.223 -0.5,0.5 0,0.277 0.223,0.5 0.5,0.5 h 1 c 0.277,0 0.5,-0.223 0.5,-0.5 0,-0.277 0.223,-0.5 0.5,-0.5 h 2 c 0.277,0 0.5,-0.223 0.5,-0.5 0,-0.277 0.223,-0.5 0.5,-0.5 h 1 c 0.277,0 0.5,-0.223 0.5,-0.5 0,-0.277 -0.223,-0.5 -0.5,-0.5 z" fill="#444" transform="translate(324.0,197.0) scale(2.0,2.0) translate(-280.0,-24.0)" /></g><g opacity="1.0"><path d="m 263.5,24 c -0.21529,-1.13e-4 -0.40648,0.137577 -0.47461,0.341797 -0.46838,1.405132 -1.40941,2.813303 -2.80273,3.742187 C 259.81126,28.358467 260.00544,28.999813 260.5,29 h 7 c 0.49456,-1.87e-4 0.68874,-0.641533 0.27734,-0.916016 -1.39332,-0.928884 -2.33435,-2.337055 -2.80273,-3.742187 C 264.90648,24.137577 264.71529,23.999887 264.5,24 Z" fill="#444" transform="translate(370.0,201.0) scale(2.0,2.0) translate(-264.0,-24.0)" /></g></svg>